<svg width="52" height="52" viewBox="0 0 52 52" fill="none" xmlns="http://www.w3.org/2000/svg">
<path d="M48.128 39.343V32.9149C48.128 30.3474 47.1082 27.885 45.2929 26.0695C43.4775 24.254 41.0154 23.234 38.4481 23.234H32.9167C31.8165 23.234 30.7613 22.7969 29.9833 22.0188C29.2053 21.2408 28.7682 20.1855 28.7682 19.0851V12.657C29.9221 12.1299 30.9005 11.2825 31.5868 10.2156C32.2732 9.14864 32.6388 7.907 32.6402 6.6383C32.6402 4.87771 31.9409 3.18923 30.6961 1.94431C29.4513 0.69939 27.7629 0 26.0025 0C24.2421 0 22.5538 0.69939 21.309 1.94431C20.0642 3.18923 19.3649 4.87771 19.3649 6.6383C19.3649 9.31298 20.9579 11.606 23.2368 12.657V19.0851C23.2368 20.1855 22.7998 21.2408 22.0218 22.0188C21.2438 22.7969 20.1886 23.234 19.0883 23.234H13.5569C10.9897 23.234 8.52753 24.254 6.7122 26.0695C4.89686 27.885 3.87702 30.3474 3.87702 32.9149V39.343C2.49906 39.9714 1.37794 41.053 0.700314 42.4075C0.0226893 43.7621 -0.170544 45.3079 0.152787 46.7876C0.476118 48.2673 1.2965 49.5916 2.47735 50.54C3.65819 51.4884 5.12823 52.0037 6.64271 52C8.15563 52.0007 9.62331 51.484 10.802 50.5354C11.9807 49.5869 12.7996 48.2636 13.1226 46.7854C13.4456 45.3073 13.2533 43.763 12.5777 42.4092C11.9021 41.0554 10.7837 39.9734 9.4084 39.343V32.9149C9.4084 31.8145 9.84547 30.7592 10.6235 29.9811C11.4015 29.2031 12.4567 28.7659 13.5569 28.7659H19.0883C20.579 28.7659 21.9757 28.4008 23.2368 27.7979V39.343C21.8589 39.9714 20.7378 41.053 20.0601 42.4075C19.3825 43.7621 19.1893 45.3079 19.5126 46.7876C19.8359 48.2673 20.6563 49.5916 21.8372 50.54C23.018 51.4884 24.488 52.0037 26.0025 52C27.5155 52.0007 28.9831 51.484 30.1618 50.5354C31.3406 49.5869 32.1594 48.2636 32.4824 46.7854C32.8054 45.3073 32.6131 43.763 31.9375 42.4092C31.2619 41.0554 30.1435 39.9734 28.7682 39.343V27.7979C30.0294 28.4008 31.426 28.7659 32.9167 28.7659H38.4481C39.5484 28.7659 40.6036 29.2031 41.3816 29.9811C42.1596 30.7592 42.5967 31.8145 42.5967 32.9149V39.343C41.4427 39.87 40.4644 40.7174 39.778 41.7844C39.0916 42.8513 38.726 44.093 38.7247 45.3617C38.7247 47.1223 39.424 48.8107 40.6688 50.0557C41.9136 51.3006 43.6019 52 45.3623 52C47.1228 52 48.8111 51.3006 50.0559 50.0557C51.3007 48.8107 52 47.1223 52 45.3617C52 42.687 50.4097 40.394 48.128 39.343ZM26.0025 2.80745C27.0177 2.80745 27.9913 3.21076 28.7091 3.92867C29.427 4.64657 29.8302 5.62026 29.8302 6.63553C29.8302 7.6508 29.427 8.62449 28.7091 9.34239C27.9913 10.0603 27.0177 10.4636 26.0025 10.4636C24.9874 10.4636 24.0138 10.0603 23.2959 9.34239C22.5781 8.62449 22.1748 7.6508 22.1748 6.63553C22.1748 5.62026 22.5781 4.64657 23.2959 3.92867C24.0138 3.21076 24.9874 2.80745 26.0025 2.80745ZM6.64271 49.1925C6.13968 49.1925 5.64158 49.0934 5.17685 48.9009C4.71211 48.7084 4.28984 48.4262 3.93415 48.0705C3.57846 47.7148 3.2963 47.2925 3.10381 46.8277C2.91131 46.3629 2.81223 45.8648 2.81223 45.3617C2.81223 44.8586 2.91131 44.3605 3.10381 43.8957C3.2963 43.4309 3.57846 43.0086 3.93415 42.6529C4.28984 42.2971 4.71211 42.015 5.17685 41.8224C5.64158 41.6299 6.13968 41.5308 6.64271 41.5308C7.65861 41.5308 8.63291 41.9344 9.35126 42.6529C10.0696 43.3713 10.4732 44.3457 10.4732 45.3617C10.4732 46.3777 10.0696 47.3521 9.35126 48.0705C8.63291 48.7889 7.65861 49.1925 6.64271 49.1925ZM26.0025 49.1925C25.4995 49.1925 25.0014 49.0934 24.5367 48.9009C24.0719 48.7084 23.6497 48.4262 23.294 48.0705C22.9383 47.7148 22.6561 47.2925 22.4636 46.8277C22.2711 46.3629 22.172 45.8648 22.172 45.3617C22.172 44.8586 22.2711 44.3605 22.4636 43.8957C22.6561 43.4309 22.9383 43.0086 23.294 42.6529C23.6497 42.2971 24.0719 42.015 24.5367 41.8224C25.0014 41.6299 25.4995 41.5308 26.0025 41.5308C27.0184 41.5308 27.9927 41.9344 28.7111 42.6529C29.4294 43.3713 29.833 44.3457 29.833 45.3617C29.833 46.3777 29.4294 47.3521 28.7111 48.0705C27.9927 48.7889 27.0184 49.1925 26.0025 49.1925ZM45.3623 49.1925C44.8593 49.1925 44.3612 49.0934 43.8965 48.9009C43.4318 48.7084 43.0095 48.4262 42.6538 48.0705C42.2981 47.7148 42.0159 47.2925 41.8234 46.8277C41.6309 46.3629 41.5319 45.8648 41.5319 45.3617C41.5319 44.8586 41.6309 44.3605 41.8234 43.8957C42.0159 43.4309 42.2981 43.0086 42.6538 42.6529C43.0095 42.2971 43.4318 42.015 43.8965 41.8224C44.3612 41.6299 44.8593 41.5308 45.3623 41.5308C46.3783 41.5308 47.3526 41.9344 48.0709 42.6529C48.7893 43.3713 49.1928 44.3457 49.1928 45.3617C49.1928 46.3777 48.7893 47.3521 48.0709 48.0705C47.3526 48.7889 46.3783 49.1925 45.3623 49.1925Z" fill="black"/>
</svg>
