<svg width="52" height="52" viewBox="0 0 52 52" fill="none" xmlns="http://www.w3.org/2000/svg">
<path d="M27.9637 3.20567C30.5709 1.16312 33.5953 0.141844 37.0108 0.141844C38.888 0.141844 40.9478 0.680851 43.19 1.8156C45.4322 2.92199 47.2051 4.22695 48.5088 5.7305C51.1942 9.3617 52.3153 13.5887 51.9243 18.4113C51.5071 23.234 50.047 27.0071 47.518 29.6738L27.729 51.2057C27.2337 51.7447 26.6079 52 25.8779 52C25.1479 52 24.5482 51.7447 24.0528 51.2057C23.8118 50.9474 23.6225 50.6377 23.4968 50.2959C23.3712 49.9541 23.3119 49.5878 23.3228 49.2199C23.3228 48.4255 23.5575 47.7447 24.0528 47.2057L36.0201 34.1844C36.6719 33.5603 36.6719 32.9078 36.0201 32.1986C35.3683 31.4894 34.7686 31.4894 34.195 32.1986L22.2278 45.2199C21.9864 45.4843 21.6973 45.6915 21.3787 45.8282C21.0601 45.9649 20.7189 46.0282 20.3766 46.0142C19.6466 46.0142 19.0469 45.7589 18.5515 45.2199C18.3105 44.9616 18.1212 44.6518 17.9955 44.3101C17.8699 43.9683 17.8107 43.6019 17.8215 43.234C17.8215 42.4397 18.0562 41.7589 18.5515 41.2199L30.5188 28.1986C31.2227 27.4894 31.2227 26.7801 30.5188 26.0709C29.9191 25.3617 29.3455 25.3617 28.6937 26.0709L16.7265 39.234C16.4824 39.4944 16.1929 39.6989 15.8749 39.8353C15.5569 39.9718 15.217 40.0374 14.8753 40.0284C14.1453 40.0284 13.5196 39.7731 12.972 39.234C12.4506 38.695 12.1899 38.0426 12.1899 37.2482C12.1899 36.4539 12.4767 35.7447 13.0503 35.1206L25.0436 22.0709C25.6954 21.3617 25.6954 20.7092 25.0436 20.0851C24.3918 19.461 23.766 19.461 23.1924 20.0851L11.0948 33.1631C10.5212 33.7305 9.92157 34.0426 9.26976 34.0426C8.53974 34.0426 7.914 33.7589 7.44469 33.1631C6.94932 32.5957 6.68859 31.9149 6.68859 31.1206C6.68859 30.3262 6.94932 29.6738 7.44469 29.1348C15.4229 20.3972 20.3505 15.1206 22.2278 13.1631L31.5095 23.1489C32.5264 24.1986 33.6996 24.7376 35.1336 24.7376C36.9587 24.7376 38.3927 23.9433 39.4616 22.3546C40.1917 21.1915 40.4524 19.9149 40.2438 18.4965C40.0352 17.078 39.4877 15.8865 38.6012 14.8936L27.9637 3.20567ZM33.3346 21.1631L22.2278 9.04965L3.76848 29.1348C1.5784 26.7234 0.326921 23.0355 0.0401241 18.0142C-0.246673 13.0213 1.0048 8.68085 3.76848 5.04965C6.8711 1.70213 10.5734 0 14.8753 0C19.2034 0 22.8796 1.70213 25.8779 5.04965L37.0108 17.1631C37.5062 17.7021 37.7409 18.3546 37.7409 19.1489C37.7409 19.9433 37.5062 20.6241 37.0108 21.1631C36.5154 21.6738 35.9158 21.9574 35.1336 21.9574C34.4297 21.9574 33.83 21.6738 33.3346 21.1631Z" fill="black"/>
</svg>
