<svg width="240" height="212" viewBox="0 0 240 212" fill="none" xmlns="http://www.w3.org/2000/svg">
<g filter="url(#filter0_d_49_45)">
<path d="M80 10.6667C80 8.89856 80.7024 7.20286 81.9526 5.95262C83.2029 4.70238 84.8986 4 86.6667 4H100V10.6667H86.6667V24H80V10.6667ZM160 77.3333C160 79.1014 159.298 80.7971 158.047 82.0474C156.797 83.2976 155.101 84 153.333 84H140V77.3333H153.333V64H160V77.3333ZM86.6667 84C84.8986 84 83.2029 83.2976 81.9526 82.0474C80.7024 80.7971 80 79.1014 80 77.3333V64H86.6667V77.3333H100V84H86.6667ZM153.333 4C155.101 4 156.797 4.70238 158.047 5.95262C159.298 7.20286 160 8.89856 160 10.6667V24H153.333V10.6667H140V4H153.333Z" fill="url(#paint0_linear_49_45)"/>
<path d="M120.985 56.395C120.985 54.4225 121.83 54.14 123.802 55.2675C126.021 56.5523 128.275 57.7736 130.562 58.93C130.562 57.805 131.69 56.9575 133.662 57.52C135.635 58.0825 137.605 58.365 137.605 58.365C137.605 58.365 136.48 55.83 135.915 54.705C135.07 52.7325 135.915 51.605 136.76 51.325C136.76 51.325 135.635 50.48 134.788 49.915C133.098 48.79 133.38 47.38 135.07 46.815C137.325 45.69 140.423 44.565 140.423 44.565C139.577 44 138.45 42.59 139.577 40.62C140.702 38.93 142.677 36.395 142.677 36.395H137.325C135.35 36.395 134.788 34.705 134.788 33.5775C134.788 33.5775 131.69 35.83 129.438 37.24C127.463 38.6475 125.775 37.24 126.058 34.985C126.436 32.5555 126.718 30.1119 126.903 27.66C125.775 28.7875 123.803 28.5075 122.678 26.8175C121.268 24 119.86 20.6175 119.86 20.6175C119.86 20.6175 118.45 24 117.042 26.82C116.197 28.51 114.225 28.79 113.097 27.945C113.282 30.3969 113.564 32.8405 113.942 35.27C114.225 37.2425 112.535 38.65 110.562 37.2425C108.31 35.8325 104.93 33.58 104.93 33.58C104.93 34.705 104.365 36.115 102.395 36.3975H97.0425C97.0425 36.3975 99.015 38.9325 100.142 40.6225C101.27 42.3125 100.142 44.0025 99.295 44.565C99.295 44.565 102.113 45.975 104.648 46.82C106.338 47.665 106.903 48.79 104.93 49.92C104.365 50.4825 102.958 51.3275 102.958 51.3275C104.083 51.6075 104.93 52.735 104.083 54.7075C103.52 55.8325 102.395 58.3675 102.395 58.3675C102.395 58.3675 104.365 57.805 106.337 57.5225C108.31 56.96 109.155 58.0875 109.438 58.9325C109.438 58.9325 112.818 56.96 116.198 55.27C117.888 54.145 119.015 54.7075 119.015 56.395V61.185C119.015 64.0025 118.45 66.82 117.605 68.51C104.93 67.1 94.225 56.96 94.225 43.44C94.225 29.6375 105.775 18.3675 120.14 18.3675C134.507 18.3675 146.058 29.6375 146.058 43.44C146.058 56.3975 135.915 67.1 122.958 68.51V71.89C138.17 70.48 150 58.365 150 43.4375C150 27.38 136.48 14.705 119.86 14.705C103.52 14.705 90 27.38 90 43.155C90 56.9575 100.422 68.505 114.225 71.0425C116.48 71.605 117.888 71.8875 119.295 73.295C120.705 70.48 120.985 64.845 120.985 61.745V56.395Z" fill="url(#paint1_linear_49_45)"/>
</g>
<path d="M21.3906 137V121.16H27.7266C28.8559 121.16 29.7689 121.387 30.4656 121.842C31.1623 122.289 31.6719 122.854 31.9946 123.536C32.3173 124.218 32.4786 124.907 32.4786 125.604C32.4786 126.491 32.2769 127.228 31.8736 127.815C31.4776 128.402 30.9313 128.794 30.2346 128.992V128.442C31.2246 128.647 31.9653 129.106 32.4566 129.817C32.9553 130.528 33.2046 131.324 33.2046 132.204C33.2046 133.15 33.0286 133.982 32.6766 134.701C32.3319 135.42 31.8039 135.984 31.0926 136.395C30.3813 136.798 29.4866 137 28.4086 137H21.3906ZM24.4266 134.184H28.1006C28.5039 134.184 28.8633 134.1 29.1786 133.931C29.4939 133.755 29.7396 133.513 29.9156 133.205C30.0989 132.89 30.1906 132.519 30.1906 132.094C30.1906 131.72 30.1136 131.386 29.9596 131.093C29.8056 130.8 29.5709 130.569 29.2556 130.4C28.9476 130.224 28.5626 130.136 28.1006 130.136H24.4266V134.184ZM24.4266 127.342H27.6826C28.0199 127.342 28.3206 127.283 28.5846 127.166C28.8486 127.049 29.0576 126.869 29.2116 126.627C29.3656 126.378 29.4426 126.059 29.4426 125.67C29.4426 125.186 29.2923 124.779 28.9916 124.449C28.6909 124.119 28.2546 123.954 27.6826 123.954H24.4266V127.342ZM35.3984 137V125.12H38.0384V128.024L37.7524 127.65C37.9064 127.239 38.1117 126.865 38.3684 126.528C38.6251 126.191 38.9404 125.912 39.3144 125.692C39.6004 125.516 39.9121 125.38 40.2494 125.285C40.5867 125.182 40.9351 125.12 41.2944 125.098C41.6537 125.069 42.0131 125.076 42.3724 125.12V127.914C42.0424 127.811 41.6574 127.778 41.2174 127.815C40.7847 127.844 40.3924 127.943 40.0404 128.112C39.6884 128.273 39.3914 128.49 39.1494 128.761C38.9074 129.025 38.7241 129.34 38.5994 129.707C38.4747 130.066 38.4124 130.473 38.4124 130.928V137H35.3984ZM47.5285 137.33C46.6778 137.33 45.9555 137.169 45.3615 136.846C44.7748 136.516 44.3275 136.08 44.0195 135.537C43.7188 134.987 43.5685 134.382 43.5685 133.722C43.5685 133.172 43.6528 132.67 43.8215 132.215C43.9901 131.76 44.2615 131.361 44.6355 131.016C45.0168 130.664 45.5265 130.371 46.1645 130.136C46.6045 129.975 47.1288 129.832 47.7375 129.707C48.3461 129.582 49.0355 129.465 49.8055 129.355C50.5755 129.238 51.4225 129.109 52.3465 128.97L51.2685 129.564C51.2685 128.86 51.0998 128.343 50.7625 128.013C50.4251 127.683 49.8605 127.518 49.0685 127.518C48.6285 127.518 48.1701 127.624 47.6935 127.837C47.2168 128.05 46.8831 128.427 46.6925 128.97L43.9865 128.112C44.2871 127.129 44.8518 126.33 45.6805 125.714C46.5091 125.098 47.6385 124.79 49.0685 124.79C50.1171 124.79 51.0485 124.951 51.8625 125.274C52.6765 125.597 53.2925 126.154 53.7105 126.946C53.9451 127.386 54.0845 127.826 54.1285 128.266C54.1725 128.706 54.1945 129.197 54.1945 129.74V137H51.5765V134.558L51.9505 135.064C51.3711 135.863 50.7441 136.443 50.0695 136.802C49.4021 137.154 48.5551 137.33 47.5285 137.33ZM48.1665 134.976C48.7165 134.976 49.1785 134.881 49.5525 134.69C49.9338 134.492 50.2345 134.268 50.4545 134.019C50.6818 133.77 50.8358 133.561 50.9165 133.392C51.0705 133.069 51.1585 132.695 51.1805 132.27C51.2098 131.837 51.2245 131.478 51.2245 131.192L52.1045 131.412C51.2171 131.559 50.4985 131.683 49.9485 131.786C49.3985 131.881 48.9548 131.969 48.6175 132.05C48.2801 132.131 47.9831 132.219 47.7265 132.314C47.4331 132.431 47.1948 132.56 47.0115 132.699C46.8355 132.831 46.7035 132.978 46.6155 133.139C46.5348 133.3 46.4945 133.48 46.4945 133.678C46.4945 133.949 46.5605 134.184 46.6925 134.382C46.8318 134.573 47.0261 134.719 47.2755 134.822C47.5248 134.925 47.8218 134.976 48.1665 134.976ZM65.1506 137V131.39C65.1506 131.119 65.136 130.774 65.1066 130.356C65.0773 129.931 64.9856 129.505 64.8316 129.08C64.6776 128.655 64.4246 128.299 64.0726 128.013C63.728 127.727 63.2366 127.584 62.5986 127.584C62.342 127.584 62.067 127.624 61.7736 127.705C61.4803 127.786 61.2053 127.943 60.9486 128.178C60.692 128.405 60.4793 128.743 60.3106 129.19C60.1493 129.637 60.0686 130.231 60.0686 130.972L58.3526 130.158C58.3526 129.219 58.5433 128.339 58.9246 127.518C59.306 126.697 59.878 126.033 60.6406 125.527C61.4106 125.021 62.3786 124.768 63.5446 124.768C64.476 124.768 65.235 124.926 65.8216 125.241C66.4083 125.556 66.863 125.956 67.1856 126.44C67.5156 126.924 67.7503 127.43 67.8896 127.958C68.029 128.479 68.1133 128.955 68.1426 129.388C68.172 129.821 68.1866 130.136 68.1866 130.334V137H65.1506ZM57.0326 137V125.12H59.6946V129.058H60.0686V137H57.0326ZM75.6441 137.33C74.5515 137.33 73.5945 137.055 72.7731 136.505C71.9518 135.955 71.3101 135.207 70.8481 134.261C70.3935 133.315 70.1661 132.248 70.1661 131.06C70.1661 129.85 70.3971 128.776 70.8591 127.837C71.3285 126.891 71.9848 126.147 72.8281 125.604C73.6715 125.061 74.6615 124.79 75.7981 124.79C76.9275 124.79 77.8771 125.065 78.6471 125.615C79.4171 126.165 80.0001 126.913 80.3961 127.859C80.7921 128.805 80.9901 129.872 80.9901 131.06C80.9901 132.248 80.7885 133.315 80.3851 134.261C79.9891 135.207 79.3951 135.955 78.6031 136.505C77.8111 137.055 76.8248 137.33 75.6441 137.33ZM76.1281 134.668C76.7955 134.668 77.3271 134.518 77.7231 134.217C78.1265 133.916 78.4161 133.495 78.5921 132.952C78.7681 132.409 78.8561 131.779 78.8561 131.06C78.8561 130.341 78.7681 129.711 78.5921 129.168C78.4161 128.625 78.1338 128.204 77.7451 127.903C77.3638 127.602 76.8615 127.452 76.2381 127.452C75.5708 127.452 75.0208 127.617 74.5881 127.947C74.1628 128.27 73.8475 128.706 73.6421 129.256C73.4368 129.799 73.3341 130.4 73.3341 131.06C73.3341 131.727 73.4331 132.336 73.6311 132.886C73.8291 133.429 74.1335 133.861 74.5441 134.184C74.9548 134.507 75.4828 134.668 76.1281 134.668ZM78.8561 137V128.86H78.4821V121.16H81.4961V137H78.8561ZM88.9804 137V121.16H95.6684C95.8224 121.16 96.0278 121.167 96.2844 121.182C96.5484 121.189 96.7831 121.211 96.9884 121.248C97.9344 121.395 98.7081 121.706 99.3094 122.183C99.9181 122.66 100.365 123.261 100.651 123.987C100.937 124.706 101.08 125.509 101.08 126.396C101.08 127.723 100.75 128.86 100.09 129.806C99.4304 130.745 98.3964 131.324 96.9884 131.544L95.6684 131.632H91.9724V137H88.9804ZM97.9124 137L94.7884 130.554L97.8684 129.96L101.3 137H97.9124ZM91.9724 128.838H95.5364C95.6904 128.838 95.8591 128.831 96.0424 128.816C96.2258 128.801 96.3944 128.772 96.5484 128.728C96.9518 128.618 97.2634 128.435 97.4834 128.178C97.7034 127.914 97.8538 127.624 97.9344 127.309C98.0224 126.986 98.0664 126.682 98.0664 126.396C98.0664 126.11 98.0224 125.809 97.9344 125.494C97.8538 125.171 97.7034 124.882 97.4834 124.625C97.2634 124.361 96.9518 124.174 96.5484 124.064C96.3944 124.02 96.2258 123.991 96.0424 123.976C95.8591 123.961 95.6904 123.954 95.5364 123.954H91.9724V128.838ZM109.241 137.33C108.023 137.33 106.949 137.07 106.018 136.549C105.094 136.021 104.368 135.299 103.84 134.382C103.319 133.458 103.059 132.402 103.059 131.214C103.059 129.916 103.315 128.787 103.829 127.826C104.342 126.865 105.05 126.121 105.952 125.593C106.854 125.058 107.891 124.79 109.065 124.79C110.311 124.79 111.371 125.083 112.244 125.67C113.116 126.257 113.762 127.082 114.18 128.145C114.598 129.208 114.744 130.459 114.62 131.896H111.661V130.796C111.661 129.586 111.466 128.717 111.078 128.189C110.696 127.654 110.069 127.386 109.197 127.386C108.177 127.386 107.426 127.698 106.942 128.321C106.465 128.937 106.227 129.85 106.227 131.06C106.227 132.167 106.465 133.025 106.942 133.634C107.426 134.235 108.133 134.536 109.065 134.536C109.651 134.536 110.154 134.408 110.572 134.151C110.99 133.894 111.309 133.524 111.529 133.04L114.521 133.898C114.073 134.983 113.366 135.827 112.398 136.428C111.437 137.029 110.385 137.33 109.241 137.33ZM105.303 131.896V129.674H113.179V131.896H105.303ZM122.339 137.33C121.107 137.33 120.051 137.055 119.171 136.505C118.291 135.955 117.617 135.207 117.147 134.261C116.678 133.315 116.443 132.248 116.443 131.06C116.443 129.857 116.685 128.783 117.169 127.837C117.661 126.891 118.35 126.147 119.237 125.604C120.125 125.061 121.173 124.79 122.383 124.79C123.784 124.79 124.957 125.146 125.903 125.857C126.857 126.561 127.465 127.525 127.729 128.75L124.737 129.542C124.561 128.926 124.253 128.446 123.813 128.101C123.381 127.756 122.889 127.584 122.339 127.584C121.709 127.584 121.192 127.738 120.788 128.046C120.385 128.347 120.088 128.761 119.897 129.289C119.707 129.81 119.611 130.4 119.611 131.06C119.611 132.094 119.839 132.934 120.293 133.579C120.755 134.217 121.437 134.536 122.339 134.536C123.014 134.536 123.527 134.382 123.879 134.074C124.231 133.766 124.495 133.326 124.671 132.754L127.729 133.392C127.392 134.653 126.754 135.625 125.815 136.307C124.877 136.989 123.718 137.33 122.339 137.33ZM134.953 137.33C133.758 137.33 132.709 137.062 131.807 136.527C130.905 135.992 130.201 135.255 129.695 134.316C129.197 133.37 128.947 132.285 128.947 131.06C128.947 129.821 129.204 128.732 129.717 127.793C130.231 126.847 130.938 126.11 131.84 125.582C132.742 125.054 133.78 124.79 134.953 124.79C136.149 124.79 137.197 125.058 138.099 125.593C139.009 126.128 139.716 126.869 140.222 127.815C140.728 128.754 140.981 129.835 140.981 131.06C140.981 132.292 140.725 133.381 140.211 134.327C139.705 135.266 138.998 136.003 138.088 136.538C137.186 137.066 136.141 137.33 134.953 137.33ZM134.953 134.536C135.914 134.536 136.629 134.213 137.098 133.568C137.575 132.915 137.813 132.079 137.813 131.06C137.813 130.004 137.571 129.161 137.087 128.53C136.611 127.899 135.899 127.584 134.953 127.584C134.301 127.584 133.765 127.731 133.347 128.024C132.929 128.317 132.618 128.724 132.412 129.245C132.214 129.766 132.115 130.371 132.115 131.06C132.115 132.123 132.354 132.97 132.83 133.601C133.314 134.224 134.022 134.536 134.953 134.536ZM148.482 142.61C147.808 142.61 147.166 142.5 146.557 142.28C145.949 142.067 145.402 141.767 144.918 141.378C144.442 140.997 144.053 140.549 143.752 140.036L146.524 138.694C146.715 139.046 146.986 139.314 147.338 139.497C147.698 139.68 148.086 139.772 148.504 139.772C148.952 139.772 149.373 139.695 149.769 139.541C150.165 139.394 150.481 139.171 150.715 138.87C150.957 138.577 151.071 138.21 151.056 137.77V134.316H151.43V125.12H154.048V137.814C154.048 138.107 154.034 138.382 154.004 138.639C153.982 138.903 153.938 139.163 153.872 139.42C153.682 140.146 153.326 140.744 152.805 141.213C152.292 141.682 151.661 142.031 150.913 142.258C150.165 142.493 149.355 142.61 148.482 142.61ZM148.218 137.33C147.126 137.33 146.169 137.055 145.347 136.505C144.526 135.955 143.884 135.207 143.422 134.261C142.968 133.315 142.74 132.248 142.74 131.06C142.74 129.85 142.971 128.776 143.433 127.837C143.903 126.891 144.559 126.147 145.402 125.604C146.246 125.061 147.236 124.79 148.372 124.79C149.502 124.79 150.451 125.065 151.221 125.615C151.991 126.165 152.574 126.913 152.97 127.859C153.366 128.805 153.564 129.872 153.564 131.06C153.564 132.248 153.363 133.315 152.959 134.261C152.563 135.207 151.969 135.955 151.177 136.505C150.385 137.055 149.399 137.33 148.218 137.33ZM148.702 134.668C149.37 134.668 149.901 134.518 150.297 134.217C150.701 133.916 150.99 133.495 151.166 132.952C151.342 132.409 151.43 131.779 151.43 131.06C151.43 130.341 151.342 129.711 151.166 129.168C150.99 128.625 150.708 128.204 150.319 127.903C149.938 127.602 149.436 127.452 148.812 127.452C148.145 127.452 147.595 127.617 147.162 127.947C146.737 128.27 146.422 128.706 146.216 129.256C146.011 129.799 145.908 130.4 145.908 131.06C145.908 131.727 146.007 132.336 146.205 132.886C146.403 133.429 146.708 133.861 147.118 134.184C147.529 134.507 148.057 134.668 148.702 134.668ZM165.225 137V131.39C165.225 131.119 165.21 130.774 165.181 130.356C165.152 129.931 165.06 129.505 164.906 129.08C164.752 128.655 164.499 128.299 164.147 128.013C163.802 127.727 163.311 127.584 162.673 127.584C162.416 127.584 162.141 127.624 161.848 127.705C161.555 127.786 161.28 127.943 161.023 128.178C160.766 128.405 160.554 128.743 160.385 129.19C160.224 129.637 160.143 130.231 160.143 130.972L158.427 130.158C158.427 129.219 158.618 128.339 158.999 127.518C159.38 126.697 159.952 126.033 160.715 125.527C161.485 125.021 162.453 124.768 163.619 124.768C164.55 124.768 165.309 124.926 165.896 125.241C166.483 125.556 166.937 125.956 167.26 126.44C167.59 126.924 167.825 127.43 167.964 127.958C168.103 128.479 168.188 128.955 168.217 129.388C168.246 129.821 168.261 130.136 168.261 130.334V137H165.225ZM157.107 137V125.12H159.769V129.058H160.143V137H157.107ZM171.335 123.47V120.83H174.327V123.47H171.335ZM171.335 137V125.12H174.327V137H171.335ZM184.753 137C183.932 137.154 183.125 137.22 182.333 137.198C181.548 137.183 180.844 137.048 180.221 136.791C179.605 136.527 179.136 136.105 178.813 135.526C178.52 134.983 178.366 134.433 178.351 133.876C178.336 133.311 178.329 132.673 178.329 131.962V121.82H181.321V131.786C181.321 132.248 181.325 132.666 181.332 133.04C181.347 133.407 181.424 133.7 181.563 133.92C181.827 134.338 182.249 134.565 182.828 134.602C183.407 134.639 184.049 134.609 184.753 134.514V137ZM176.305 127.43V125.12H184.753V127.43H176.305ZM187.62 123.47V120.83H190.612V123.47H187.62ZM187.62 137V125.12H190.612V137H187.62ZM199.256 137.33C198.061 137.33 197.012 137.062 196.11 136.527C195.208 135.992 194.504 135.255 193.998 134.316C193.499 133.37 193.25 132.285 193.25 131.06C193.25 129.821 193.507 128.732 194.02 127.793C194.533 126.847 195.241 126.11 196.143 125.582C197.045 125.054 198.083 124.79 199.256 124.79C200.451 124.79 201.5 125.058 202.402 125.593C203.311 126.128 204.019 126.869 204.525 127.815C205.031 128.754 205.284 129.835 205.284 131.06C205.284 132.292 205.027 133.381 204.514 134.327C204.008 135.266 203.3 136.003 202.391 136.538C201.489 137.066 200.444 137.33 199.256 137.33ZM199.256 134.536C200.217 134.536 200.932 134.213 201.401 133.568C201.878 132.915 202.116 132.079 202.116 131.06C202.116 130.004 201.874 129.161 201.39 128.53C200.913 127.899 200.202 127.584 199.256 127.584C198.603 127.584 198.068 127.731 197.65 128.024C197.232 128.317 196.92 128.724 196.715 129.245C196.517 129.766 196.418 130.371 196.418 131.06C196.418 132.123 196.656 132.97 197.133 133.601C197.617 134.224 198.325 134.536 199.256 134.536ZM215.799 137V131.39C215.799 131.119 215.784 130.774 215.755 130.356C215.726 129.931 215.634 129.505 215.48 129.08C215.326 128.655 215.073 128.299 214.721 128.013C214.376 127.727 213.885 127.584 213.247 127.584C212.99 127.584 212.715 127.624 212.422 127.705C212.129 127.786 211.854 127.943 211.597 128.178C211.34 128.405 211.128 128.743 210.959 129.19C210.798 129.637 210.717 130.231 210.717 130.972L209.001 130.158C209.001 129.219 209.192 128.339 209.573 127.518C209.954 126.697 210.526 126.033 211.289 125.527C212.059 125.021 213.027 124.768 214.193 124.768C215.124 124.768 215.883 124.926 216.47 125.241C217.057 125.556 217.511 125.956 217.834 126.44C218.164 126.924 218.399 127.43 218.538 127.958C218.677 128.479 218.762 128.955 218.791 129.388C218.82 129.821 218.835 130.136 218.835 130.334V137H215.799ZM207.681 137V125.12H210.343V129.058H210.717V137H207.681Z" fill="#1A4555"/>
<path d="M17.1711 183V170.04H18.3861L23.4801 180.939L28.5471 170.04H29.7801V182.991H28.5201V172.992L23.9031 183H23.0481L18.4401 172.992V183H17.1711ZM36.3649 183.27C35.3989 183.27 34.5739 183.051 33.8899 182.613C33.2059 182.175 32.6809 181.569 32.3149 180.795C31.9489 180.021 31.7659 179.133 31.7659 178.131C31.7659 177.111 31.9519 176.217 32.3239 175.449C32.6959 174.681 33.2239 174.084 33.9079 173.658C34.5979 173.226 35.4169 173.01 36.3649 173.01C37.3369 173.01 38.1649 173.229 38.8489 173.667C39.5389 174.099 40.0639 174.702 40.4239 175.476C40.7899 176.244 40.9729 177.129 40.9729 178.131C40.9729 179.151 40.7899 180.048 40.4239 180.822C40.0579 181.59 39.5299 182.19 38.8399 182.622C38.1499 183.054 37.3249 183.27 36.3649 183.27ZM36.3649 182.001C37.4449 182.001 38.2489 181.644 38.7769 180.93C39.3049 180.21 39.5689 179.277 39.5689 178.131C39.5689 176.955 39.3019 176.019 38.7679 175.323C38.2399 174.627 37.4389 174.279 36.3649 174.279C35.6389 174.279 35.0389 174.444 34.5649 174.774C34.0969 175.098 33.7459 175.551 33.5119 176.133C33.2839 176.709 33.1699 177.375 33.1699 178.131C33.1699 179.301 33.4399 180.24 33.9799 180.948C34.5199 181.65 35.3149 182.001 36.3649 182.001ZM46.4974 183.261C45.3574 183.261 44.4184 183.015 43.6804 182.523C42.9484 182.031 42.4984 181.347 42.3304 180.471L43.6804 180.246C43.8244 180.798 44.1514 181.239 44.6614 181.569C45.1774 181.893 45.8134 182.055 46.5694 182.055C47.3074 182.055 47.8894 181.902 48.3154 181.596C48.7414 181.284 48.9544 180.861 48.9544 180.327C48.9544 180.027 48.8854 179.784 48.7474 179.598C48.6154 179.406 48.3424 179.229 47.9284 179.067C47.5144 178.905 46.8964 178.713 46.0744 178.491C45.1924 178.251 44.5024 178.011 44.0044 177.771C43.5064 177.531 43.1524 177.255 42.9424 176.943C42.7324 176.625 42.6274 176.238 42.6274 175.782C42.6274 175.23 42.7834 174.747 43.0954 174.333C43.4074 173.913 43.8394 173.589 44.3914 173.361C44.9434 173.127 45.5854 173.01 46.3174 173.01C47.0494 173.01 47.7034 173.13 48.2794 173.37C48.8614 173.604 49.3294 173.934 49.6834 174.36C50.0374 174.786 50.2474 175.281 50.3134 175.845L48.9634 176.088C48.8734 175.518 48.5884 175.068 48.1084 174.738C47.6344 174.402 47.0314 174.228 46.2994 174.216C45.6094 174.198 45.0484 174.33 44.6164 174.612C44.1844 174.888 43.9684 175.257 43.9684 175.719C43.9684 175.977 44.0464 176.199 44.2024 176.385C44.3584 176.565 44.6404 176.736 45.0484 176.898C45.4624 177.06 46.0504 177.237 46.8124 177.429C47.7064 177.657 48.4084 177.897 48.9184 178.149C49.4284 178.401 49.7914 178.698 50.0074 179.04C50.2234 179.382 50.3314 179.805 50.3314 180.309C50.3314 181.227 49.9894 181.95 49.3054 182.478C48.6274 183 47.6914 183.261 46.4974 183.261ZM57.6194 183C57.0734 183.114 56.5334 183.159 55.9994 183.135C55.4714 183.111 54.9974 182.997 54.5774 182.793C54.1634 182.589 53.8484 182.271 53.6324 181.839C53.4584 181.479 53.3624 181.116 53.3444 180.75C53.3324 180.378 53.3264 179.955 53.3264 179.481V170.58H54.6404V179.427C54.6404 179.835 54.6434 180.177 54.6494 180.453C54.6614 180.723 54.7244 180.963 54.8384 181.173C55.0544 181.575 55.3964 181.815 55.8644 181.893C56.3384 181.971 56.9234 181.953 57.6194 181.839V183ZM51.2474 174.414V173.28H57.6194V174.414H51.2474ZM67.5029 183.27C66.6089 183.27 65.8529 183.045 65.2349 182.595C64.6169 182.139 64.1489 181.524 63.8309 180.75C63.5129 179.97 63.3539 179.097 63.3539 178.131C63.3539 177.147 63.5129 176.271 63.8309 175.503C64.1549 174.729 64.6289 174.12 65.2529 173.676C65.8769 173.232 66.6449 173.01 67.5569 173.01C68.4449 173.01 69.2069 173.235 69.8429 173.685C70.4789 174.135 70.9649 174.747 71.3009 175.521C71.6429 176.295 71.8139 177.165 71.8139 178.131C71.8139 179.103 71.6429 179.976 71.3009 180.75C70.9589 181.524 70.4669 182.139 69.8249 182.595C69.1829 183.045 68.4089 183.27 67.5029 183.27ZM63.1289 187.32V173.28H64.3169V180.597H64.4609V187.32H63.1289ZM67.3679 182.037C68.0459 182.037 68.6099 181.866 69.0599 181.524C69.5099 181.182 69.8459 180.717 70.0679 180.129C70.2959 179.535 70.4099 178.869 70.4099 178.131C70.4099 177.399 70.2989 176.739 70.0769 176.151C69.8549 175.563 69.5159 175.098 69.0599 174.756C68.6099 174.414 68.0369 174.243 67.3409 174.243C66.6629 174.243 66.0989 174.408 65.6489 174.738C65.2049 175.068 64.8719 175.527 64.6499 176.115C64.4279 176.697 64.3169 177.369 64.3169 178.131C64.3169 178.881 64.4279 179.553 64.6499 180.147C64.8719 180.735 65.2079 181.197 65.6579 181.533C66.1079 181.869 66.6779 182.037 67.3679 182.037ZM76.5713 183.27C75.8393 183.27 75.2243 183.138 74.7263 182.874C74.2343 182.61 73.8653 182.259 73.6193 181.821C73.3733 181.383 73.2503 180.906 73.2503 180.39C73.2503 179.862 73.3553 179.412 73.5653 179.04C73.7813 178.662 74.0723 178.353 74.4383 178.113C74.8103 177.873 75.2393 177.69 75.7253 177.564C76.2173 177.444 76.7603 177.339 77.3543 177.249C77.9543 177.153 78.5393 177.072 79.1093 177.006C79.6853 176.934 80.1893 176.865 80.6213 176.799L80.1533 177.087C80.1713 176.127 79.9853 175.416 79.5953 174.954C79.2053 174.492 78.5273 174.261 77.5613 174.261C76.8953 174.261 76.3313 174.411 75.8693 174.711C75.4133 175.011 75.0923 175.485 74.9063 176.133L73.6193 175.755C73.8413 174.885 74.2883 174.21 74.9603 173.73C75.6323 173.25 76.5053 173.01 77.5793 173.01C78.4673 173.01 79.2203 173.178 79.8383 173.514C80.4623 173.844 80.9033 174.324 81.1613 174.954C81.2813 175.236 81.3593 175.551 81.3953 175.899C81.4313 176.247 81.4493 176.601 81.4493 176.961V183H80.2703V180.561L80.6123 180.705C80.2823 181.539 79.7693 182.175 79.0733 182.613C78.3773 183.051 77.5433 183.27 76.5713 183.27ZM76.7243 182.127C77.3423 182.127 77.8823 182.016 78.3443 181.794C78.8063 181.572 79.1783 181.269 79.4603 180.885C79.7423 180.495 79.9253 180.057 80.0093 179.571C80.0813 179.259 80.1203 178.917 80.1263 178.545C80.1323 178.167 80.1353 177.885 80.1353 177.699L80.6393 177.96C80.1893 178.02 79.7003 178.08 79.1723 178.14C78.6503 178.2 78.1343 178.269 77.6243 178.347C77.1203 178.425 76.6643 178.518 76.2563 178.626C75.9803 178.704 75.7133 178.815 75.4553 178.959C75.1973 179.097 74.9843 179.283 74.8163 179.517C74.6543 179.751 74.5733 180.042 74.5733 180.39C74.5733 180.672 74.6423 180.945 74.7803 181.209C74.9243 181.473 75.1523 181.692 75.4643 181.866C75.7823 182.04 76.2023 182.127 76.7243 182.127ZM83.7922 183V173.28H84.9802V175.62L84.7462 175.314C84.8542 175.026 84.9952 174.762 85.1692 174.522C85.3432 174.276 85.5322 174.075 85.7362 173.919C85.9882 173.697 86.2822 173.529 86.6182 173.415C86.9542 173.295 87.2932 173.226 87.6352 173.208C87.9772 173.184 88.2892 173.208 88.5712 173.28V174.522C88.2172 174.432 87.8302 174.411 87.4102 174.459C86.9902 174.507 86.6032 174.675 86.2492 174.963C85.9252 175.215 85.6822 175.518 85.5202 175.872C85.3582 176.22 85.2502 176.592 85.1962 176.988C85.1422 177.378 85.1152 177.765 85.1152 178.149V183H83.7922ZM95.5706 183C95.0246 183.114 94.4846 183.159 93.9506 183.135C93.4226 183.111 92.9486 182.997 92.5286 182.793C92.1146 182.589 91.7996 182.271 91.5836 181.839C91.4096 181.479 91.3136 181.116 91.2956 180.75C91.2836 180.378 91.2776 179.955 91.2776 179.481V170.58H92.5916V179.427C92.5916 179.835 92.5946 180.177 92.6006 180.453C92.6126 180.723 92.6756 180.963 92.7896 181.173C93.0056 181.575 93.3476 181.815 93.8156 181.893C94.2896 181.971 94.8746 181.953 95.5706 181.839V183ZM89.1986 174.414V173.28H95.5706V174.414H89.1986ZM97.6656 171.435V169.95H98.9886V171.435H97.6656ZM97.6656 183V173.28H98.9886V183H97.6656ZM105.719 183.27C104.741 183.27 103.913 183.051 103.235 182.613C102.557 182.175 102.041 181.572 101.687 180.804C101.339 180.03 101.159 179.142 101.147 178.14C101.159 177.12 101.345 176.226 101.705 175.458C102.065 174.684 102.584 174.084 103.262 173.658C103.94 173.226 104.762 173.01 105.728 173.01C106.712 173.01 107.567 173.25 108.293 173.73C109.025 174.21 109.526 174.867 109.796 175.701L108.5 176.115C108.272 175.533 107.909 175.083 107.411 174.765C106.919 174.441 106.355 174.279 105.719 174.279C105.005 174.279 104.414 174.444 103.946 174.774C103.478 175.098 103.13 175.551 102.902 176.133C102.674 176.715 102.557 177.384 102.551 178.14C102.563 179.304 102.833 180.24 103.361 180.948C103.889 181.65 104.675 182.001 105.719 182.001C106.379 182.001 106.94 181.851 107.402 181.551C107.87 181.245 108.224 180.801 108.464 180.219L109.796 180.615C109.436 181.479 108.908 182.139 108.212 182.595C107.516 183.045 106.685 183.27 105.719 183.27ZM111.57 171.435V169.95H112.893V171.435H111.57ZM111.57 183V173.28H112.893V183H111.57ZM119.956 183.27C119.062 183.27 118.306 183.045 117.688 182.595C117.07 182.139 116.602 181.524 116.284 180.75C115.966 179.97 115.807 179.097 115.807 178.131C115.807 177.147 115.966 176.271 116.284 175.503C116.608 174.729 117.082 174.12 117.706 173.676C118.33 173.232 119.098 173.01 120.01 173.01C120.898 173.01 121.66 173.235 122.296 173.685C122.932 174.135 123.418 174.747 123.754 175.521C124.096 176.295 124.267 177.165 124.267 178.131C124.267 179.103 124.096 179.976 123.754 180.75C123.412 181.524 122.92 182.139 122.278 182.595C121.636 183.045 120.862 183.27 119.956 183.27ZM115.582 187.32V173.28H116.77V180.597H116.914V187.32H115.582ZM119.821 182.037C120.499 182.037 121.063 181.866 121.513 181.524C121.963 181.182 122.299 180.717 122.521 180.129C122.749 179.535 122.863 178.869 122.863 178.131C122.863 177.399 122.752 176.739 122.53 176.151C122.308 175.563 121.969 175.098 121.513 174.756C121.063 174.414 120.49 174.243 119.794 174.243C119.116 174.243 118.552 174.408 118.102 174.738C117.658 175.068 117.325 175.527 117.103 176.115C116.881 176.697 116.77 177.369 116.77 178.131C116.77 178.881 116.881 179.553 117.103 180.147C117.325 180.735 117.661 181.197 118.111 181.533C118.561 181.869 119.131 182.037 119.821 182.037ZM129.024 183.27C128.292 183.27 127.677 183.138 127.179 182.874C126.687 182.61 126.318 182.259 126.072 181.821C125.826 181.383 125.703 180.906 125.703 180.39C125.703 179.862 125.808 179.412 126.018 179.04C126.234 178.662 126.525 178.353 126.891 178.113C127.263 177.873 127.692 177.69 128.178 177.564C128.67 177.444 129.213 177.339 129.807 177.249C130.407 177.153 130.992 177.072 131.562 177.006C132.138 176.934 132.642 176.865 133.074 176.799L132.606 177.087C132.624 176.127 132.438 175.416 132.048 174.954C131.658 174.492 130.98 174.261 130.014 174.261C129.348 174.261 128.784 174.411 128.322 174.711C127.866 175.011 127.545 175.485 127.359 176.133L126.072 175.755C126.294 174.885 126.741 174.21 127.413 173.73C128.085 173.25 128.958 173.01 130.032 173.01C130.92 173.01 131.673 173.178 132.291 173.514C132.915 173.844 133.356 174.324 133.614 174.954C133.734 175.236 133.812 175.551 133.848 175.899C133.884 176.247 133.902 176.601 133.902 176.961V183H132.723V180.561L133.065 180.705C132.735 181.539 132.222 182.175 131.526 182.613C130.83 183.051 129.996 183.27 129.024 183.27ZM129.177 182.127C129.795 182.127 130.335 182.016 130.797 181.794C131.259 181.572 131.631 181.269 131.913 180.885C132.195 180.495 132.378 180.057 132.462 179.571C132.534 179.259 132.573 178.917 132.579 178.545C132.585 178.167 132.588 177.885 132.588 177.699L133.092 177.96C132.642 178.02 132.153 178.08 131.625 178.14C131.103 178.2 130.587 178.269 130.077 178.347C129.573 178.425 129.117 178.518 128.709 178.626C128.433 178.704 128.166 178.815 127.908 178.959C127.65 179.097 127.437 179.283 127.269 179.517C127.107 179.751 127.026 180.042 127.026 180.39C127.026 180.672 127.095 180.945 127.233 181.209C127.377 181.473 127.605 181.692 127.917 181.866C128.235 182.04 128.655 182.127 129.177 182.127ZM143.265 183V178.041C143.265 177.501 143.214 177.006 143.112 176.556C143.01 176.1 142.845 175.704 142.617 175.368C142.395 175.026 142.104 174.762 141.744 174.576C141.39 174.39 140.958 174.297 140.448 174.297C139.98 174.297 139.566 174.378 139.206 174.54C138.852 174.702 138.552 174.936 138.306 175.242C138.066 175.542 137.883 175.908 137.757 176.34C137.631 176.772 137.568 177.264 137.568 177.816L136.632 177.609C136.632 176.613 136.806 175.776 137.154 175.098C137.502 174.42 137.982 173.907 138.594 173.559C139.206 173.211 139.908 173.037 140.7 173.037C141.282 173.037 141.789 173.127 142.221 173.307C142.659 173.487 143.028 173.73 143.328 174.036C143.634 174.342 143.88 174.693 144.066 175.089C144.252 175.479 144.387 175.896 144.471 176.34C144.555 176.778 144.597 177.216 144.597 177.654V183H143.265ZM136.236 183V173.28H137.433V175.674H137.568V183H136.236ZM152.225 183C151.679 183.114 151.139 183.159 150.605 183.135C150.077 183.111 149.603 182.997 149.183 182.793C148.769 182.589 148.454 182.271 148.238 181.839C148.064 181.479 147.968 181.116 147.95 180.75C147.938 180.378 147.932 179.955 147.932 179.481V170.58H149.246V179.427C149.246 179.835 149.249 180.177 149.255 180.453C149.267 180.723 149.33 180.963 149.444 181.173C149.66 181.575 150.002 181.815 150.47 181.893C150.944 181.971 151.529 181.953 152.225 181.839V183ZM145.853 174.414V173.28H152.225V174.414H145.853ZM157.767 183.261C156.627 183.261 155.688 183.015 154.95 182.523C154.218 182.031 153.768 181.347 153.6 180.471L154.95 180.246C155.094 180.798 155.421 181.239 155.931 181.569C156.447 181.893 157.083 182.055 157.839 182.055C158.577 182.055 159.159 181.902 159.585 181.596C160.011 181.284 160.224 180.861 160.224 180.327C160.224 180.027 160.155 179.784 160.017 179.598C159.885 179.406 159.612 179.229 159.198 179.067C158.784 178.905 158.166 178.713 157.344 178.491C156.462 178.251 155.772 178.011 155.274 177.771C154.776 177.531 154.422 177.255 154.212 176.943C154.002 176.625 153.897 176.238 153.897 175.782C153.897 175.23 154.053 174.747 154.365 174.333C154.677 173.913 155.109 173.589 155.661 173.361C156.213 173.127 156.855 173.01 157.587 173.01C158.319 173.01 158.973 173.13 159.549 173.37C160.131 173.604 160.599 173.934 160.953 174.36C161.307 174.786 161.517 175.281 161.583 175.845L160.233 176.088C160.143 175.518 159.858 175.068 159.378 174.738C158.904 174.402 158.301 174.228 157.569 174.216C156.879 174.198 156.318 174.33 155.886 174.612C155.454 174.888 155.238 175.257 155.238 175.719C155.238 175.977 155.316 176.199 155.472 176.385C155.628 176.565 155.91 176.736 156.318 176.898C156.732 177.06 157.32 177.237 158.082 177.429C158.976 177.657 159.678 177.897 160.188 178.149C160.698 178.401 161.061 178.698 161.277 179.04C161.493 179.382 161.601 179.805 161.601 180.309C161.601 181.227 161.259 181.95 160.575 182.478C159.897 183 158.961 183.261 157.767 183.261ZM170.971 183.27C170.065 183.27 169.291 183.045 168.649 182.595C168.007 182.139 167.515 181.524 167.173 180.75C166.831 179.976 166.66 179.103 166.66 178.131C166.66 177.165 166.828 176.295 167.164 175.521C167.506 174.747 167.995 174.135 168.631 173.685C169.267 173.235 170.029 173.01 170.917 173.01C171.829 173.01 172.597 173.232 173.221 173.676C173.845 174.12 174.316 174.729 174.634 175.503C174.958 176.271 175.12 177.147 175.12 178.131C175.12 179.097 174.961 179.97 174.643 180.75C174.325 181.524 173.857 182.139 173.239 182.595C172.621 183.045 171.865 183.27 170.971 183.27ZM171.106 182.037C171.796 182.037 172.366 181.869 172.816 181.533C173.266 181.197 173.602 180.735 173.824 180.147C174.046 179.553 174.157 178.881 174.157 178.131C174.157 177.369 174.046 176.697 173.824 176.115C173.602 175.527 173.266 175.068 172.816 174.738C172.372 174.408 171.811 174.243 171.133 174.243C170.437 174.243 169.861 174.414 169.405 174.756C168.949 175.098 168.61 175.563 168.388 176.151C168.172 176.739 168.064 177.399 168.064 178.131C168.064 178.869 168.175 179.535 168.397 180.129C168.625 180.717 168.964 181.182 169.414 181.524C169.864 181.866 170.428 182.037 171.106 182.037ZM174.013 187.32V180.597H174.157V173.28H175.345V187.32H174.013ZM181.587 183.243C181.005 183.243 180.495 183.153 180.057 182.973C179.625 182.793 179.256 182.55 178.95 182.244C178.65 181.938 178.407 181.59 178.221 181.2C178.035 180.804 177.9 180.387 177.816 179.949C177.732 179.505 177.69 179.064 177.69 178.626V173.28H179.022V178.239C179.022 178.773 179.073 179.268 179.175 179.724C179.277 180.18 179.439 180.579 179.661 180.921C179.889 181.257 180.18 181.518 180.534 181.704C180.894 181.89 181.329 181.983 181.839 181.983C182.307 181.983 182.718 181.902 183.072 181.74C183.432 181.578 183.732 181.347 183.972 181.047C184.218 180.741 184.404 180.372 184.53 179.94C184.656 179.502 184.719 179.01 184.719 178.464L185.655 178.671C185.655 179.667 185.481 180.504 185.133 181.182C184.785 181.86 184.305 182.373 183.693 182.721C183.081 183.069 182.379 183.243 181.587 183.243ZM184.854 183V180.606H184.719V173.28H186.042V183H184.854ZM188.738 171.435V169.95H190.061V171.435H188.738ZM188.738 183V173.28H190.061V183H188.738ZM196.791 183.27C195.813 183.27 194.985 183.051 194.307 182.613C193.629 182.175 193.113 181.572 192.759 180.804C192.411 180.03 192.231 179.142 192.219 178.14C192.231 177.12 192.417 176.226 192.777 175.458C193.137 174.684 193.656 174.084 194.334 173.658C195.012 173.226 195.834 173.01 196.8 173.01C197.784 173.01 198.639 173.25 199.365 173.73C200.097 174.21 200.598 174.867 200.868 175.701L199.572 176.115C199.344 175.533 198.981 175.083 198.483 174.765C197.991 174.441 197.427 174.279 196.791 174.279C196.077 174.279 195.486 174.444 195.018 174.774C194.55 175.098 194.202 175.551 193.974 176.133C193.746 176.715 193.629 177.384 193.623 178.14C193.635 179.304 193.905 180.24 194.433 180.948C194.961 181.65 195.747 182.001 196.791 182.001C197.451 182.001 198.012 181.851 198.474 181.551C198.942 181.245 199.296 180.801 199.536 180.219L200.868 180.615C200.508 181.479 199.98 182.139 199.284 182.595C198.588 183.045 197.757 183.27 196.791 183.27ZM202.717 183L202.726 170.04H204.058V177.96L208.396 173.28H210.16L205.606 178.14L210.754 183H208.828L204.058 178.32V183H202.717ZM211.836 183V169.77H213.159V183H211.836ZM217.243 187.32L219.124 182.217L219.151 183.729L214.894 173.28H216.298L219.79 182.019H219.214L222.436 173.28H223.786L218.566 187.32H217.243ZM11.1243 207V197.28H12.3123V199.62L12.0783 199.314C12.1863 199.026 12.3273 198.762 12.5013 198.522C12.6753 198.276 12.8643 198.075 13.0683 197.919C13.3203 197.697 13.6143 197.529 13.9503 197.415C14.2863 197.295 14.6253 197.226 14.9673 197.208C15.3093 197.184 15.6213 197.208 15.9033 197.28V198.522C15.5493 198.432 15.1623 198.411 14.7423 198.459C14.3223 198.507 13.9353 198.675 13.5813 198.963C13.2573 199.215 13.0143 199.518 12.8523 199.872C12.6903 200.22 12.5823 200.592 12.5283 200.988C12.4743 201.378 12.4473 201.765 12.4473 202.149V207H11.1243ZM21.5478 207.27C20.5998 207.27 19.7778 207.06 19.0818 206.64C18.3918 206.22 17.8548 205.629 17.4708 204.867C17.0868 204.105 16.8948 203.211 16.8948 202.185C16.8948 201.123 17.0838 200.205 17.4618 199.431C17.8398 198.657 18.3708 198.06 19.0548 197.64C19.7448 197.22 20.5578 197.01 21.4938 197.01C22.4538 197.01 23.2728 197.232 23.9508 197.676C24.6288 198.114 25.1418 198.744 25.4898 199.566C25.8378 200.388 25.9968 201.369 25.9668 202.509H24.6168V202.041C24.5928 200.781 24.3198 199.83 23.7978 199.188C23.2818 198.546 22.5258 198.225 21.5298 198.225C20.4858 198.225 19.6848 198.564 19.1268 199.242C18.5748 199.92 18.2988 200.886 18.2988 202.14C18.2988 203.364 18.5748 204.315 19.1268 204.993C19.6848 205.665 20.4738 206.001 21.4938 206.001C22.1898 206.001 22.7958 205.842 23.3118 205.524C23.8338 205.2 24.2448 204.735 24.5448 204.129L25.7778 204.606C25.3938 205.452 24.8268 206.109 24.0768 206.577C23.3328 207.039 22.4898 207.27 21.5478 207.27ZM17.8308 202.509V201.402H25.2558V202.509H17.8308ZM31.9961 207.27C31.0181 207.27 30.1901 207.051 29.5121 206.613C28.8341 206.175 28.3181 205.572 27.9641 204.804C27.6161 204.03 27.4361 203.142 27.4241 202.14C27.4361 201.12 27.6221 200.226 27.9821 199.458C28.3421 198.684 28.8611 198.084 29.5391 197.658C30.2171 197.226 31.0391 197.01 32.0051 197.01C32.9891 197.01 33.8441 197.25 34.5701 197.73C35.3021 198.21 35.8031 198.867 36.0731 199.701L34.7771 200.115C34.5491 199.533 34.1861 199.083 33.6881 198.765C33.1961 198.441 32.6321 198.279 31.9961 198.279C31.2821 198.279 30.6911 198.444 30.2231 198.774C29.7551 199.098 29.4071 199.551 29.1791 200.133C28.9511 200.715 28.8341 201.384 28.8281 202.14C28.8401 203.304 29.1101 204.24 29.6381 204.948C30.1661 205.65 30.9521 206.001 31.9961 206.001C32.6561 206.001 33.2171 205.851 33.6791 205.551C34.1471 205.245 34.5011 204.801 34.7411 204.219L36.0731 204.615C35.7131 205.479 35.1851 206.139 34.4891 206.595C33.7931 207.045 32.9621 207.27 31.9961 207.27ZM41.7262 207.27C40.7602 207.27 39.9352 207.051 39.2512 206.613C38.5672 206.175 38.0422 205.569 37.6762 204.795C37.3102 204.021 37.1272 203.133 37.1272 202.131C37.1272 201.111 37.3132 200.217 37.6852 199.449C38.0572 198.681 38.5852 198.084 39.2692 197.658C39.9592 197.226 40.7782 197.01 41.7262 197.01C42.6982 197.01 43.5262 197.229 44.2102 197.667C44.9002 198.099 45.4252 198.702 45.7852 199.476C46.1512 200.244 46.3342 201.129 46.3342 202.131C46.3342 203.151 46.1512 204.048 45.7852 204.822C45.4192 205.59 44.8912 206.19 44.2012 206.622C43.5112 207.054 42.6862 207.27 41.7262 207.27ZM41.7262 206.001C42.8062 206.001 43.6102 205.644 44.1382 204.93C44.6662 204.21 44.9302 203.277 44.9302 202.131C44.9302 200.955 44.6632 200.019 44.1292 199.323C43.6012 198.627 42.8002 198.279 41.7262 198.279C41.0002 198.279 40.4002 198.444 39.9262 198.774C39.4582 199.098 39.1072 199.551 38.8732 200.133C38.6452 200.709 38.5312 201.375 38.5312 202.131C38.5312 203.301 38.8012 204.24 39.3412 204.948C39.8812 205.65 40.6762 206.001 41.7262 206.001ZM52.1806 211.59C51.6826 211.59 51.1906 211.515 50.7046 211.365C50.2246 211.221 49.7806 210.99 49.3726 210.672C48.9646 210.36 48.6226 209.952 48.3466 209.448L49.5436 208.782C49.8136 209.322 50.1916 209.709 50.6776 209.943C51.1696 210.183 51.6706 210.303 52.1806 210.303C52.8826 210.303 53.4496 210.171 53.8816 209.907C54.3196 209.649 54.6376 209.265 54.8356 208.755C55.0336 208.245 55.1296 207.609 55.1236 206.847V204.255H55.2766V197.28H56.4556V206.865C56.4556 207.141 56.4466 207.405 56.4286 207.657C56.4166 207.915 56.3896 208.167 56.3476 208.413C56.2336 209.139 55.9966 209.736 55.6366 210.204C55.2826 210.672 54.8146 211.02 54.2326 211.248C53.6566 211.476 52.9726 211.59 52.1806 211.59ZM52.0906 207.27C51.1846 207.27 50.4106 207.045 49.7686 206.595C49.1266 206.139 48.6346 205.524 48.2926 204.75C47.9506 203.976 47.7796 203.103 47.7796 202.131C47.7796 201.165 47.9476 200.295 48.2836 199.521C48.6256 198.747 49.1146 198.135 49.7506 197.685C50.3866 197.235 51.1486 197.01 52.0366 197.01C52.9486 197.01 53.7166 197.232 54.3406 197.676C54.9646 198.12 55.4356 198.729 55.7536 199.503C56.0776 200.271 56.2396 201.147 56.2396 202.131C56.2396 203.097 56.0806 203.97 55.7626 204.75C55.4446 205.524 54.9766 206.139 54.3586 206.595C53.7406 207.045 52.9846 207.27 52.0906 207.27ZM52.2256 206.037C52.9156 206.037 53.4856 205.869 53.9356 205.533C54.3856 205.197 54.7216 204.735 54.9436 204.147C55.1656 203.553 55.2766 202.881 55.2766 202.131C55.2766 201.369 55.1656 200.697 54.9436 200.115C54.7216 199.527 54.3856 199.068 53.9356 198.738C53.4916 198.408 52.9306 198.243 52.2526 198.243C51.5566 198.243 50.9806 198.414 50.5246 198.756C50.0686 199.098 49.7296 199.563 49.5076 200.151C49.2916 200.739 49.1836 201.399 49.1836 202.131C49.1836 202.869 49.2946 203.535 49.5166 204.129C49.7446 204.717 50.0836 205.182 50.5336 205.524C50.9836 205.866 51.5476 206.037 52.2256 206.037ZM65.9919 207V202.041C65.9919 201.501 65.9409 201.006 65.8389 200.556C65.7369 200.1 65.5719 199.704 65.3439 199.368C65.1219 199.026 64.8309 198.762 64.4709 198.576C64.1169 198.39 63.6849 198.297 63.1749 198.297C62.7069 198.297 62.2929 198.378 61.9329 198.54C61.5789 198.702 61.2789 198.936 61.0329 199.242C60.7929 199.542 60.6099 199.908 60.4839 200.34C60.3579 200.772 60.2949 201.264 60.2949 201.816L59.3589 201.609C59.3589 200.613 59.5329 199.776 59.8809 199.098C60.2289 198.42 60.7089 197.907 61.3209 197.559C61.9329 197.211 62.6349 197.037 63.4269 197.037C64.0089 197.037 64.5159 197.127 64.9479 197.307C65.3859 197.487 65.7549 197.73 66.0549 198.036C66.3609 198.342 66.6069 198.693 66.7929 199.089C66.9789 199.479 67.1139 199.896 67.1979 200.34C67.2819 200.778 67.3239 201.216 67.3239 201.654V207H65.9919ZM58.9629 207V197.28H60.1599V199.674H60.2949V207H58.9629ZM69.8394 195.435V193.95H71.1624V195.435H69.8394ZM69.8394 207V197.28H71.1624V207H69.8394ZM72.9606 207V206.721L79.2336 198.513H73.4286V197.28H81.4116V197.586L75.1476 205.767H81.0696V207H72.9606ZM86.7802 207.27C85.8322 207.27 85.0102 207.06 84.3142 206.64C83.6242 206.22 83.0872 205.629 82.7032 204.867C82.3192 204.105 82.1272 203.211 82.1272 202.185C82.1272 201.123 82.3162 200.205 82.6942 199.431C83.0722 198.657 83.6032 198.06 84.2872 197.64C84.9772 197.22 85.7902 197.01 86.7262 197.01C87.6862 197.01 88.5052 197.232 89.1832 197.676C89.8612 198.114 90.3742 198.744 90.7222 199.566C91.0702 200.388 91.2292 201.369 91.1992 202.509H89.8492V202.041C89.8252 200.781 89.5522 199.83 89.0302 199.188C88.5142 198.546 87.7582 198.225 86.7622 198.225C85.7182 198.225 84.9172 198.564 84.3592 199.242C83.8072 199.92 83.5312 200.886 83.5312 202.14C83.5312 203.364 83.8072 204.315 84.3592 204.993C84.9172 205.665 85.7062 206.001 86.7262 206.001C87.4222 206.001 88.0282 205.842 88.5442 205.524C89.0662 205.2 89.4772 204.735 89.7772 204.129L91.0102 204.606C90.6262 205.452 90.0592 206.109 89.3092 206.577C88.5652 207.039 87.7222 207.27 86.7802 207.27ZM83.0632 202.509V201.402H90.4882V202.509H83.0632ZM96.9675 207.27C96.0615 207.27 95.2875 207.045 94.6455 206.595C94.0035 206.139 93.5115 205.524 93.1695 204.75C92.8275 203.976 92.6565 203.103 92.6565 202.131C92.6565 201.165 92.8245 200.295 93.1605 199.521C93.5025 198.747 93.9915 198.135 94.6275 197.685C95.2635 197.235 96.0255 197.01 96.9135 197.01C97.8255 197.01 98.5935 197.232 99.2175 197.676C99.8415 198.12 100.313 198.729 100.631 199.503C100.955 200.271 101.117 201.147 101.117 202.131C101.117 203.097 100.958 203.97 100.64 204.75C100.322 205.524 99.8535 206.139 99.2355 206.595C98.6175 207.045 97.8615 207.27 96.9675 207.27ZM97.1025 206.037C97.7925 206.037 98.3625 205.869 98.8125 205.533C99.2625 205.197 99.5985 204.735 99.8205 204.147C100.043 203.553 100.154 202.881 100.154 202.131C100.154 201.369 100.043 200.697 99.8205 200.115C99.5985 199.527 99.2625 199.068 98.8125 198.738C98.3685 198.408 97.8075 198.243 97.1295 198.243C96.4335 198.243 95.8575 198.414 95.4015 198.756C94.9455 199.098 94.6065 199.563 94.3845 200.151C94.1685 200.739 94.0605 201.399 94.0605 202.131C94.0605 202.869 94.1715 203.535 94.3935 204.129C94.6215 204.717 94.9605 205.182 95.4105 205.524C95.8605 205.866 96.4245 206.037 97.1025 206.037ZM100.154 207V199.683H100.01V194.04H101.342V207H100.154ZM112.762 207C112.216 207.114 111.676 207.159 111.142 207.135C110.614 207.111 110.14 206.997 109.72 206.793C109.306 206.589 108.991 206.271 108.775 205.839C108.601 205.479 108.505 205.116 108.487 204.75C108.475 204.378 108.469 203.955 108.469 203.481V194.58H109.783V203.427C109.783 203.835 109.786 204.177 109.792 204.453C109.804 204.723 109.867 204.963 109.981 205.173C110.197 205.575 110.539 205.815 111.007 205.893C111.481 205.971 112.066 205.953 112.762 205.839V207ZM106.39 198.414V197.28H112.762V198.414H106.39ZM121.697 207V202.041C121.697 201.501 121.646 201.006 121.544 200.556C121.442 200.1 121.277 199.704 121.049 199.368C120.827 199.026 120.536 198.762 120.176 198.576C119.822 198.39 119.39 198.297 118.88 198.297C118.412 198.297 117.998 198.378 117.638 198.54C117.284 198.702 116.984 198.936 116.738 199.242C116.498 199.542 116.315 199.908 116.189 200.34C116.063 200.772 116 201.264 116 201.816L115.064 201.609C115.064 200.613 115.238 199.776 115.586 199.098C115.934 198.42 116.414 197.907 117.026 197.559C117.638 197.211 118.34 197.037 119.132 197.037C119.714 197.037 120.221 197.127 120.653 197.307C121.091 197.487 121.46 197.73 121.76 198.036C122.066 198.342 122.312 198.693 122.498 199.089C122.684 199.479 122.819 199.896 122.903 200.34C122.987 200.778 123.029 201.216 123.029 201.654V207H121.697ZM114.668 207V194.04H115.865V201.357H116V207H114.668ZM129.477 207.27C128.529 207.27 127.707 207.06 127.011 206.64C126.321 206.22 125.784 205.629 125.4 204.867C125.016 204.105 124.824 203.211 124.824 202.185C124.824 201.123 125.013 200.205 125.391 199.431C125.769 198.657 126.3 198.06 126.984 197.64C127.674 197.22 128.487 197.01 129.423 197.01C130.383 197.01 131.202 197.232 131.88 197.676C132.558 198.114 133.071 198.744 133.419 199.566C133.767 200.388 133.926 201.369 133.896 202.509H132.546V202.041C132.522 200.781 132.249 199.83 131.727 199.188C131.211 198.546 130.455 198.225 129.459 198.225C128.415 198.225 127.614 198.564 127.056 199.242C126.504 199.92 126.228 200.886 126.228 202.14C126.228 203.364 126.504 204.315 127.056 204.993C127.614 205.665 128.403 206.001 129.423 206.001C130.119 206.001 130.725 205.842 131.241 205.524C131.763 205.2 132.174 204.735 132.474 204.129L133.707 204.606C133.323 205.452 132.756 206.109 132.006 206.577C131.262 207.039 130.419 207.27 129.477 207.27ZM125.76 202.509V201.402H133.185V202.509H125.76ZM144.744 207.27C143.454 207.27 142.365 206.985 141.477 206.415C140.589 205.839 139.917 205.044 139.461 204.03C139.005 203.016 138.777 201.846 138.777 200.52C138.777 199.194 139.005 198.024 139.461 197.01C139.917 195.996 140.589 195.204 141.477 194.634C142.365 194.058 143.454 193.77 144.744 193.77C146.25 193.77 147.48 194.157 148.434 194.931C149.388 195.699 150.042 196.731 150.396 198.027L149.046 198.378C148.77 197.352 148.275 196.539 147.561 195.939C146.847 195.339 145.908 195.039 144.744 195.039C143.73 195.039 142.887 195.27 142.215 195.732C141.543 196.194 141.036 196.839 140.694 197.667C140.358 198.489 140.184 199.44 140.172 200.52C140.166 201.6 140.331 202.551 140.667 203.373C141.009 204.195 141.519 204.84 142.197 205.308C142.881 205.77 143.73 206.001 144.744 206.001C145.908 206.001 146.847 205.701 147.561 205.101C148.275 204.495 148.77 203.682 149.046 202.662L150.396 203.013C150.042 204.309 149.388 205.344 148.434 206.118C147.48 206.886 146.25 207.27 144.744 207.27ZM152.382 207V194.04H157.386C157.512 194.04 157.653 194.046 157.809 194.058C157.971 194.064 158.133 194.082 158.295 194.112C158.973 194.214 159.546 194.451 160.014 194.823C160.488 195.189 160.845 195.651 161.085 196.209C161.331 196.767 161.454 197.385 161.454 198.063C161.454 199.041 161.196 199.89 160.68 200.61C160.164 201.33 159.426 201.783 158.466 201.969L158.007 202.077H153.705V207H152.382ZM160.23 207L157.674 201.726L158.943 201.24L161.751 207H160.23ZM153.705 200.817H157.35C157.458 200.817 157.584 200.811 157.728 200.799C157.872 200.787 158.013 200.766 158.151 200.736C158.595 200.64 158.958 200.457 159.24 200.187C159.528 199.917 159.741 199.596 159.879 199.224C160.023 198.852 160.095 198.465 160.095 198.063C160.095 197.661 160.023 197.274 159.879 196.902C159.741 196.524 159.528 196.2 159.24 195.93C158.958 195.66 158.595 195.477 158.151 195.381C158.013 195.351 157.872 195.333 157.728 195.327C157.584 195.315 157.458 195.309 157.35 195.309H153.705V200.817ZM162.838 207L167.302 194.04H169.057L173.521 207H172.144L167.905 194.778H168.427L164.215 207H162.838ZM164.827 203.859V202.617H171.523V203.859H164.827ZM183.114 207.27C182.22 207.27 181.464 207.045 180.846 206.595C180.228 206.139 179.76 205.524 179.442 204.75C179.124 203.97 178.965 203.097 178.965 202.131C178.965 201.147 179.124 200.271 179.442 199.503C179.766 198.729 180.24 198.12 180.864 197.676C181.488 197.232 182.256 197.01 183.168 197.01C184.056 197.01 184.818 197.235 185.454 197.685C186.09 198.135 186.576 198.747 186.912 199.521C187.254 200.295 187.425 201.165 187.425 202.131C187.425 203.103 187.254 203.976 186.912 204.75C186.57 205.524 186.078 206.139 185.436 206.595C184.794 207.045 184.02 207.27 183.114 207.27ZM178.74 207V194.04H180.072V199.683H179.928V207H178.74ZM182.979 206.037C183.657 206.037 184.221 205.866 184.671 205.524C185.121 205.182 185.457 204.717 185.679 204.129C185.907 203.535 186.021 202.869 186.021 202.131C186.021 201.399 185.91 200.739 185.688 200.151C185.466 199.563 185.127 199.098 184.671 198.756C184.221 198.414 183.648 198.243 182.952 198.243C182.274 198.243 181.71 198.408 181.26 198.738C180.816 199.068 180.483 199.527 180.261 200.115C180.039 200.697 179.928 201.369 179.928 202.131C179.928 202.881 180.039 203.553 180.261 204.147C180.483 204.735 180.819 205.197 181.269 205.533C181.719 205.869 182.289 206.037 182.979 206.037ZM189.402 207V197.28H190.59V199.62L190.356 199.314C190.464 199.026 190.605 198.762 190.779 198.522C190.953 198.276 191.142 198.075 191.346 197.919C191.598 197.697 191.892 197.529 192.228 197.415C192.564 197.295 192.903 197.226 193.245 197.208C193.587 197.184 193.899 197.208 194.181 197.28V198.522C193.827 198.432 193.44 198.411 193.02 198.459C192.6 198.507 192.213 198.675 191.859 198.963C191.535 199.215 191.292 199.518 191.13 199.872C190.968 200.22 190.86 200.592 190.806 200.988C190.752 201.378 190.725 201.765 190.725 202.149V207H189.402ZM198.3 207.27C197.568 207.27 196.953 207.138 196.455 206.874C195.963 206.61 195.594 206.259 195.348 205.821C195.102 205.383 194.979 204.906 194.979 204.39C194.979 203.862 195.084 203.412 195.294 203.04C195.51 202.662 195.801 202.353 196.167 202.113C196.539 201.873 196.968 201.69 197.454 201.564C197.946 201.444 198.489 201.339 199.083 201.249C199.683 201.153 200.268 201.072 200.838 201.006C201.414 200.934 201.918 200.865 202.35 200.799L201.882 201.087C201.9 200.127 201.714 199.416 201.324 198.954C200.934 198.492 200.256 198.261 199.29 198.261C198.624 198.261 198.06 198.411 197.598 198.711C197.142 199.011 196.821 199.485 196.635 200.133L195.348 199.755C195.57 198.885 196.017 198.21 196.689 197.73C197.361 197.25 198.234 197.01 199.308 197.01C200.196 197.01 200.949 197.178 201.567 197.514C202.191 197.844 202.632 198.324 202.89 198.954C203.01 199.236 203.088 199.551 203.124 199.899C203.16 200.247 203.178 200.601 203.178 200.961V207H201.999V204.561L202.341 204.705C202.011 205.539 201.498 206.175 200.802 206.613C200.106 207.051 199.272 207.27 198.3 207.27ZM198.453 206.127C199.071 206.127 199.611 206.016 200.073 205.794C200.535 205.572 200.907 205.269 201.189 204.885C201.471 204.495 201.654 204.057 201.738 203.571C201.81 203.259 201.849 202.917 201.855 202.545C201.861 202.167 201.864 201.885 201.864 201.699L202.368 201.96C201.918 202.02 201.429 202.08 200.901 202.14C200.379 202.2 199.863 202.269 199.353 202.347C198.849 202.425 198.393 202.518 197.985 202.626C197.709 202.704 197.442 202.815 197.184 202.959C196.926 203.097 196.713 203.283 196.545 203.517C196.383 203.751 196.302 204.042 196.302 204.39C196.302 204.672 196.371 204.945 196.509 205.209C196.653 205.473 196.881 205.692 197.193 205.866C197.511 206.04 197.931 206.127 198.453 206.127ZM212.541 207V202.041C212.541 201.501 212.49 201.006 212.388 200.556C212.286 200.1 212.121 199.704 211.893 199.368C211.671 199.026 211.38 198.762 211.02 198.576C210.666 198.39 210.234 198.297 209.724 198.297C209.256 198.297 208.842 198.378 208.482 198.54C208.128 198.702 207.828 198.936 207.582 199.242C207.342 199.542 207.159 199.908 207.033 200.34C206.907 200.772 206.844 201.264 206.844 201.816L205.908 201.609C205.908 200.613 206.082 199.776 206.43 199.098C206.778 198.42 207.258 197.907 207.87 197.559C208.482 197.211 209.184 197.037 209.976 197.037C210.558 197.037 211.065 197.127 211.497 197.307C211.935 197.487 212.304 197.73 212.604 198.036C212.91 198.342 213.156 198.693 213.342 199.089C213.528 199.479 213.663 199.896 213.747 200.34C213.831 200.778 213.873 201.216 213.873 201.654V207H212.541ZM205.512 207V197.28H206.709V199.674H206.844V207H205.512ZM219.927 207.27C219.021 207.27 218.247 207.045 217.605 206.595C216.963 206.139 216.471 205.524 216.129 204.75C215.787 203.976 215.616 203.103 215.616 202.131C215.616 201.165 215.784 200.295 216.12 199.521C216.462 198.747 216.951 198.135 217.587 197.685C218.223 197.235 218.985 197.01 219.873 197.01C220.785 197.01 221.553 197.232 222.177 197.676C222.801 198.12 223.272 198.729 223.59 199.503C223.914 200.271 224.076 201.147 224.076 202.131C224.076 203.097 223.917 203.97 223.599 204.75C223.281 205.524 222.813 206.139 222.195 206.595C221.577 207.045 220.821 207.27 219.927 207.27ZM220.062 206.037C220.752 206.037 221.322 205.869 221.772 205.533C222.222 205.197 222.558 204.735 222.78 204.147C223.002 203.553 223.113 202.881 223.113 202.131C223.113 201.369 223.002 200.697 222.78 200.115C222.558 199.527 222.222 199.068 221.772 198.738C221.328 198.408 220.767 198.243 220.089 198.243C219.393 198.243 218.817 198.414 218.361 198.756C217.905 199.098 217.566 199.563 217.344 200.151C217.128 200.739 217.02 201.399 217.02 202.131C217.02 202.869 217.131 203.535 217.353 204.129C217.581 204.717 217.92 205.182 218.37 205.524C218.82 205.866 219.384 206.037 220.062 206.037ZM223.113 207V199.683H222.969V194.04H224.301V207H223.113ZM227.077 207V205.461H228.616V207H227.077Z" fill="#1A4555"/>
<defs>
<filter id="filter0_d_49_45" x="75" y="0" width="90" height="90" filterUnits="userSpaceOnUse" color-interpolation-filters="sRGB">
<feFlood flood-opacity="0" result="BackgroundImageFix"/>
<feColorMatrix in="SourceAlpha" type="matrix" values="0 0 0 0 0 0 0 0 0 0 0 0 0 0 0 0 0 0 127 0" result="hardAlpha"/>
<feOffset dy="1"/>
<feGaussianBlur stdDeviation="2.5"/>
<feComposite in2="hardAlpha" operator="out"/>
<feColorMatrix type="matrix" values="0 0 0 0 0.956863 0 0 0 0 0.470588 0 0 0 0 0.317647 0 0 0 0.5 0"/>
<feBlend mode="normal" in2="BackgroundImageFix" result="effect1_dropShadow_49_45"/>
<feBlend mode="normal" in="SourceGraphic" in2="effect1_dropShadow_49_45" result="shape"/>
</filter>
<linearGradient id="paint0_linear_49_45" x1="80" y1="4" x2="160" y2="84" gradientUnits="userSpaceOnUse">
<stop stop-color="#F47851"/>
<stop offset="1" stop-color="#F6B472"/>
</linearGradient>
<linearGradient id="paint1_linear_49_45" x1="80" y1="4" x2="160" y2="84" gradientUnits="userSpaceOnUse">
<stop stop-color="#F47851"/>
<stop offset="1" stop-color="#F6B472"/>
</linearGradient>
</defs>
</svg>
