<svg width="240" height="280" viewBox="0 0 240 280" fill="none" xmlns="http://www.w3.org/2000/svg">
<g filter="url(#filter0_d_49_93)">
<path d="M123.334 16.6667C130.7 16.6667 136.667 22.6334 136.667 30.0001C136.667 35.0001 134 39.2334 130 41.5334V37.4667C132.034 35.6334 133.334 32.9667 133.334 30.0001C133.334 24.4667 128.867 20.0001 123.334 20.0001C117.8 20.0001 113.334 24.4667 113.334 30.0001C113.334 32.9667 114.634 35.6334 116.667 37.4667V41.5334C112.667 39.2334 110 35.0001 110 30.0001C110 22.6334 115.967 16.6667 123.334 16.6667ZM146.667 68.3334C146.567 71.0667 144.4 73.2334 141.667 73.3334H123.334C122.067 73.3334 120.867 72.8334 120 71.9001L106.667 57.9001L109.134 55.3334C109.767 54.6334 110.667 54.2668 111.667 54.2668H112.334L120 60.0001V30.0001C120 28.1667 121.5 26.6667 123.334 26.6667C125.167 26.6667 126.667 28.1667 126.667 30.0001V44.9001L130.7 45.3334L143.834 52.6334C145.6 53.4334 146.667 55.2001 146.667 57.1334V68.3334ZM146.667 6.66675H93.3337C89.667 6.66675 86.667 9.66675 86.667 13.3334V40.0001C86.667 41.7682 87.3694 43.4639 88.6196 44.7141C89.8699 45.9644 91.5655 46.6667 93.3337 46.6667H106.667V40.0001H93.3337V13.3334H146.667V40.0001H140V46.6667H146.667V46.5334L146.8 46.6667C150.434 46.6667 153.334 43.6334 153.334 40.0001V13.3334C153.334 11.5653 152.631 9.86961 151.381 8.61937C150.131 7.36913 148.435 6.66675 146.667 6.66675Z" fill="url(#paint0_linear_49_93)"/>
</g>
<path d="M50.7687 133.33C49.1847 133.33 47.817 132.985 46.6657 132.296C45.5217 131.607 44.638 130.642 44.0147 129.403C43.3987 128.164 43.0907 126.723 43.0907 125.08C43.0907 123.437 43.3987 121.996 44.0147 120.757C44.638 119.518 45.5217 118.553 46.6657 117.864C47.817 117.175 49.1847 116.83 50.7687 116.83C52.5873 116.83 54.1127 117.281 55.3447 118.183C56.584 119.085 57.4567 120.306 57.9627 121.846L54.9487 122.682C54.6553 121.721 54.1603 120.977 53.4637 120.449C52.767 119.914 51.8687 119.646 50.7687 119.646C49.764 119.646 48.9243 119.87 48.2497 120.317C47.5823 120.764 47.08 121.395 46.7427 122.209C46.4053 123.023 46.2367 123.98 46.2367 125.08C46.2367 126.18 46.4053 127.137 46.7427 127.951C47.08 128.765 47.5823 129.396 48.2497 129.843C48.9243 130.29 49.764 130.514 50.7687 130.514C51.8687 130.514 52.767 130.246 53.4637 129.711C54.1603 129.176 54.6553 128.431 54.9487 127.478L57.9627 128.314C57.4567 129.854 56.584 131.075 55.3447 131.977C54.1127 132.879 52.5873 133.33 50.7687 133.33ZM63.6847 133.33C62.8341 133.33 62.1117 133.169 61.5177 132.846C60.9311 132.516 60.4837 132.08 60.1757 131.537C59.8751 130.987 59.7247 130.382 59.7247 129.722C59.7247 129.172 59.8091 128.67 59.9777 128.215C60.1464 127.76 60.4177 127.361 60.7917 127.016C61.1731 126.664 61.6827 126.371 62.3207 126.136C62.7607 125.975 63.2851 125.832 63.8937 125.707C64.5024 125.582 65.1917 125.465 65.9617 125.355C66.7317 125.238 67.5787 125.109 68.5027 124.97L67.4247 125.564C67.4247 124.86 67.2561 124.343 66.9187 124.013C66.5814 123.683 66.0167 123.518 65.2247 123.518C64.7847 123.518 64.3264 123.624 63.8497 123.837C63.3731 124.05 63.0394 124.427 62.8487 124.97L60.1427 124.112C60.4434 123.129 61.0081 122.33 61.8367 121.714C62.6654 121.098 63.7947 120.79 65.2247 120.79C66.2734 120.79 67.2047 120.951 68.0187 121.274C68.8327 121.597 69.4487 122.154 69.8667 122.946C70.1014 123.386 70.2407 123.826 70.2847 124.266C70.3287 124.706 70.3507 125.197 70.3507 125.74V133H67.7327V130.558L68.1067 131.064C67.5274 131.863 66.9004 132.443 66.2257 132.802C65.5584 133.154 64.7114 133.33 63.6847 133.33ZM64.3227 130.976C64.8727 130.976 65.3347 130.881 65.7087 130.69C66.0901 130.492 66.3907 130.268 66.6107 130.019C66.8381 129.77 66.9921 129.561 67.0727 129.392C67.2267 129.069 67.3147 128.695 67.3367 128.27C67.3661 127.837 67.3807 127.478 67.3807 127.192L68.2607 127.412C67.3734 127.559 66.6547 127.683 66.1047 127.786C65.5547 127.881 65.1111 127.969 64.7737 128.05C64.4364 128.131 64.1394 128.219 63.8827 128.314C63.5894 128.431 63.3511 128.56 63.1677 128.699C62.9917 128.831 62.8597 128.978 62.7717 129.139C62.6911 129.3 62.6507 129.48 62.6507 129.678C62.6507 129.949 62.7167 130.184 62.8487 130.382C62.9881 130.573 63.1824 130.719 63.4317 130.822C63.6811 130.925 63.9781 130.976 64.3227 130.976ZM73.4309 133V116.83H76.4229V133H73.4309ZM79.9407 133V116.83H82.9327V133H79.9407ZM86.0104 127.214V124.904H92.6104V127.214H86.0104ZM102.597 133C101.775 133.154 100.969 133.22 100.177 133.198C99.392 133.183 98.688 133.048 98.0647 132.791C97.4487 132.527 96.9794 132.105 96.6567 131.526C96.3634 130.983 96.2094 130.433 96.1947 129.876C96.18 129.311 96.1727 128.673 96.1727 127.962V117.82H99.1647V127.786C99.1647 128.248 99.1684 128.666 99.1757 129.04C99.1904 129.407 99.2674 129.7 99.4067 129.92C99.6707 130.338 100.092 130.565 100.672 130.602C101.251 130.639 101.893 130.609 102.597 130.514V133ZM94.1487 123.43V121.12H102.597V123.43H94.1487ZM109.946 133.33C108.75 133.33 107.702 133.062 106.8 132.527C105.898 131.992 105.194 131.255 104.688 130.316C104.189 129.37 103.94 128.285 103.94 127.06C103.94 125.821 104.196 124.732 104.71 123.793C105.223 122.847 105.931 122.11 106.833 121.582C107.735 121.054 108.772 120.79 109.946 120.79C111.141 120.79 112.19 121.058 113.092 121.593C114.001 122.128 114.709 122.869 115.215 123.815C115.721 124.754 115.974 125.835 115.974 127.06C115.974 128.292 115.717 129.381 115.204 130.327C114.698 131.266 113.99 132.003 113.081 132.538C112.179 133.066 111.134 133.33 109.946 133.33ZM109.946 130.536C110.906 130.536 111.621 130.213 112.091 129.568C112.567 128.915 112.806 128.079 112.806 127.06C112.806 126.004 112.564 125.161 112.08 124.53C111.603 123.899 110.892 123.584 109.946 123.584C109.293 123.584 108.758 123.731 108.34 124.024C107.922 124.317 107.61 124.724 107.405 125.245C107.207 125.766 107.108 126.371 107.108 127.06C107.108 128.123 107.346 128.97 107.823 129.601C108.307 130.224 109.014 130.536 109.946 130.536ZM118.173 127.214V124.904H124.773V127.214H118.173ZM126.101 133L130.941 117.16H135.407L140.247 133H137.167L132.855 119.03H133.427L129.181 133H126.101ZM129.005 129.7V126.906H137.365V129.7H129.005ZM147.455 133.33C146.223 133.33 145.167 133.055 144.287 132.505C143.407 131.955 142.732 131.207 142.263 130.261C141.793 129.315 141.559 128.248 141.559 127.06C141.559 125.857 141.801 124.783 142.285 123.837C142.776 122.891 143.465 122.147 144.353 121.604C145.24 121.061 146.289 120.79 147.499 120.79C148.899 120.79 150.073 121.146 151.019 121.857C151.972 122.561 152.581 123.525 152.845 124.75L149.853 125.542C149.677 124.926 149.369 124.446 148.929 124.101C148.496 123.756 148.005 123.584 147.455 123.584C146.824 123.584 146.307 123.738 145.904 124.046C145.5 124.347 145.203 124.761 145.013 125.289C144.822 125.81 144.727 126.4 144.727 127.06C144.727 128.094 144.954 128.934 145.409 129.579C145.871 130.217 146.553 130.536 147.455 130.536C148.129 130.536 148.643 130.382 148.995 130.074C149.347 129.766 149.611 129.326 149.787 128.754L152.845 129.392C152.507 130.653 151.869 131.625 150.931 132.307C149.992 132.989 148.833 133.33 147.455 133.33ZM162.173 133C161.352 133.154 160.545 133.22 159.753 133.198C158.968 133.183 158.264 133.048 157.641 132.791C157.025 132.527 156.556 132.105 156.233 131.526C155.94 130.983 155.786 130.433 155.771 129.876C155.756 129.311 155.749 128.673 155.749 127.962V117.82H158.741V127.786C158.741 128.248 158.745 128.666 158.752 129.04C158.767 129.407 158.844 129.7 158.983 129.92C159.247 130.338 159.669 130.565 160.248 130.602C160.827 130.639 161.469 130.609 162.173 130.514V133ZM153.725 123.43V121.12H162.173V123.43H153.725ZM165.04 119.47V116.83H168.032V119.47H165.04ZM165.04 133V121.12H168.032V133H165.04ZM176.676 133.33C175.481 133.33 174.432 133.062 173.53 132.527C172.628 131.992 171.924 131.255 171.418 130.316C170.919 129.37 170.67 128.285 170.67 127.06C170.67 125.821 170.927 124.732 171.44 123.793C171.953 122.847 172.661 122.11 173.563 121.582C174.465 121.054 175.503 120.79 176.676 120.79C177.871 120.79 178.92 121.058 179.822 121.593C180.731 122.128 181.439 122.869 181.945 123.815C182.451 124.754 182.704 125.835 182.704 127.06C182.704 128.292 182.447 129.381 181.934 130.327C181.428 131.266 180.72 132.003 179.811 132.538C178.909 133.066 177.864 133.33 176.676 133.33ZM176.676 130.536C177.637 130.536 178.352 130.213 178.821 129.568C179.298 128.915 179.536 128.079 179.536 127.06C179.536 126.004 179.294 125.161 178.81 124.53C178.333 123.899 177.622 123.584 176.676 123.584C176.023 123.584 175.488 123.731 175.07 124.024C174.652 124.317 174.34 124.724 174.135 125.245C173.937 125.766 173.838 126.371 173.838 127.06C173.838 128.123 174.076 128.97 174.553 129.601C175.037 130.224 175.745 130.536 176.676 130.536ZM193.219 133V127.39C193.219 127.119 193.204 126.774 193.175 126.356C193.146 125.931 193.054 125.505 192.9 125.08C192.746 124.655 192.493 124.299 192.141 124.013C191.796 123.727 191.305 123.584 190.667 123.584C190.41 123.584 190.135 123.624 189.842 123.705C189.549 123.786 189.274 123.943 189.017 124.178C188.76 124.405 188.548 124.743 188.379 125.19C188.218 125.637 188.137 126.231 188.137 126.972L186.421 126.158C186.421 125.219 186.612 124.339 186.993 123.518C187.374 122.697 187.946 122.033 188.709 121.527C189.479 121.021 190.447 120.768 191.613 120.768C192.544 120.768 193.303 120.926 193.89 121.241C194.477 121.556 194.931 121.956 195.254 122.44C195.584 122.924 195.819 123.43 195.958 123.958C196.097 124.479 196.182 124.955 196.211 125.388C196.24 125.821 196.255 126.136 196.255 126.334V133H193.219ZM185.101 133V121.12H187.763V125.058H188.137V133H185.101Z" fill="#1A4555"/>
<path d="M24.705 179V167.309H20.178V166.04H30.555V167.309H26.028V179H24.705ZM39.0183 179V174.041C39.0183 173.501 38.9673 173.006 38.8653 172.556C38.7633 172.1 38.5983 171.704 38.3703 171.368C38.1483 171.026 37.8573 170.762 37.4973 170.576C37.1433 170.39 36.7113 170.297 36.2013 170.297C35.7333 170.297 35.3193 170.378 34.9593 170.54C34.6053 170.702 34.3053 170.936 34.0593 171.242C33.8193 171.542 33.6363 171.908 33.5103 172.34C33.3843 172.772 33.3213 173.264 33.3213 173.816L32.3853 173.609C32.3853 172.613 32.5593 171.776 32.9073 171.098C33.2553 170.42 33.7353 169.907 34.3473 169.559C34.9593 169.211 35.6613 169.037 36.4533 169.037C37.0353 169.037 37.5423 169.127 37.9743 169.307C38.4123 169.487 38.7813 169.73 39.0813 170.036C39.3873 170.342 39.6333 170.693 39.8193 171.089C40.0053 171.479 40.1403 171.896 40.2243 172.34C40.3083 172.778 40.3503 173.216 40.3503 173.654V179H39.0183ZM31.9893 179V166.04H33.1863V173.357H33.3213V179H31.9893ZM46.7988 179.27C45.8508 179.27 45.0288 179.06 44.3328 178.64C43.6428 178.22 43.1058 177.629 42.7218 176.867C42.3378 176.105 42.1458 175.211 42.1458 174.185C42.1458 173.123 42.3348 172.205 42.7128 171.431C43.0908 170.657 43.6218 170.06 44.3058 169.64C44.9958 169.22 45.8088 169.01 46.7448 169.01C47.7048 169.01 48.5238 169.232 49.2018 169.676C49.8798 170.114 50.3928 170.744 50.7408 171.566C51.0888 172.388 51.2478 173.369 51.2178 174.509H49.8678V174.041C49.8438 172.781 49.5708 171.83 49.0488 171.188C48.5328 170.546 47.7768 170.225 46.7808 170.225C45.7368 170.225 44.9358 170.564 44.3778 171.242C43.8258 171.92 43.5498 172.886 43.5498 174.14C43.5498 175.364 43.8258 176.315 44.3778 176.993C44.9358 177.665 45.7248 178.001 46.7448 178.001C47.4408 178.001 48.0468 177.842 48.5628 177.524C49.0848 177.2 49.4958 176.735 49.7958 176.129L51.0288 176.606C50.6448 177.452 50.0778 178.109 49.3278 178.577C48.5838 179.039 47.7408 179.27 46.7988 179.27ZM43.0818 174.509V173.402H50.5068V174.509H43.0818ZM56.9986 167.435V165.95H58.3216V167.435H56.9986ZM56.9986 179V169.28H58.3216V179H56.9986ZM68.0398 179V174.041C68.0398 173.501 67.9888 173.006 67.8868 172.556C67.7848 172.1 67.6198 171.704 67.3918 171.368C67.1698 171.026 66.8788 170.762 66.5188 170.576C66.1648 170.39 65.7328 170.297 65.2228 170.297C64.7548 170.297 64.3408 170.378 63.9808 170.54C63.6268 170.702 63.3268 170.936 63.0808 171.242C62.8408 171.542 62.6578 171.908 62.5318 172.34C62.4058 172.772 62.3428 173.264 62.3428 173.816L61.4068 173.609C61.4068 172.613 61.5808 171.776 61.9288 171.098C62.2768 170.42 62.7568 169.907 63.3688 169.559C63.9808 169.211 64.6828 169.037 65.4748 169.037C66.0568 169.037 66.5638 169.127 66.9958 169.307C67.4338 169.487 67.8028 169.73 68.1028 170.036C68.4088 170.342 68.6548 170.693 68.8408 171.089C69.0268 171.479 69.1618 171.896 69.2458 172.34C69.3298 172.778 69.3718 173.216 69.3718 173.654V179H68.0398ZM61.0108 179V169.28H62.2078V171.674H62.3428V179H61.0108ZM76.9993 179C76.4533 179.114 75.9133 179.159 75.3793 179.135C74.8513 179.111 74.3773 178.997 73.9573 178.793C73.5433 178.589 73.2283 178.271 73.0123 177.839C72.8383 177.479 72.7423 177.116 72.7243 176.75C72.7123 176.378 72.7063 175.955 72.7063 175.481V166.58H74.0203V175.427C74.0203 175.835 74.0233 176.177 74.0293 176.453C74.0413 176.723 74.1043 176.963 74.2183 177.173C74.4343 177.575 74.7763 177.815 75.2443 177.893C75.7183 177.971 76.3033 177.953 76.9993 177.839V179ZM70.6273 170.414V169.28H76.9993V170.414H70.6273ZM82.6757 179.27C81.7277 179.27 80.9057 179.06 80.2097 178.64C79.5197 178.22 78.9827 177.629 78.5987 176.867C78.2147 176.105 78.0227 175.211 78.0227 174.185C78.0227 173.123 78.2117 172.205 78.5897 171.431C78.9677 170.657 79.4987 170.06 80.1827 169.64C80.8727 169.22 81.6857 169.01 82.6217 169.01C83.5817 169.01 84.4007 169.232 85.0787 169.676C85.7567 170.114 86.2697 170.744 86.6177 171.566C86.9657 172.388 87.1247 173.369 87.0947 174.509H85.7447V174.041C85.7207 172.781 85.4477 171.83 84.9257 171.188C84.4097 170.546 83.6537 170.225 82.6577 170.225C81.6137 170.225 80.8127 170.564 80.2547 171.242C79.7027 171.92 79.4267 172.886 79.4267 174.14C79.4267 175.364 79.7027 176.315 80.2547 176.993C80.8127 177.665 81.6017 178.001 82.6217 178.001C83.3177 178.001 83.9237 177.842 84.4397 177.524C84.9617 177.2 85.3727 176.735 85.6727 176.129L86.9057 176.606C86.5217 177.452 85.9547 178.109 85.2047 178.577C84.4607 179.039 83.6177 179.27 82.6757 179.27ZM78.9587 174.509V173.402H86.3837V174.509H78.9587ZM95.8484 179V174.041C95.8484 173.501 95.7974 173.006 95.6954 172.556C95.5934 172.1 95.4284 171.704 95.2004 171.368C94.9784 171.026 94.6874 170.762 94.3274 170.576C93.9734 170.39 93.5414 170.297 93.0314 170.297C92.5634 170.297 92.1494 170.378 91.7894 170.54C91.4354 170.702 91.1354 170.936 90.8894 171.242C90.6494 171.542 90.4664 171.908 90.3404 172.34C90.2144 172.772 90.1514 173.264 90.1514 173.816L89.2154 173.609C89.2154 172.613 89.3894 171.776 89.7374 171.098C90.0854 170.42 90.5654 169.907 91.1774 169.559C91.7894 169.211 92.4914 169.037 93.2834 169.037C93.8654 169.037 94.3724 169.127 94.8044 169.307C95.2424 169.487 95.6114 169.73 95.9114 170.036C96.2174 170.342 96.4634 170.693 96.6494 171.089C96.8354 171.479 96.9704 171.896 97.0544 172.34C97.1384 172.778 97.1804 173.216 97.1804 173.654V179H95.8484ZM88.8194 179V169.28H90.0164V171.674H90.1514V179H88.8194ZM104.808 179C104.262 179.114 103.722 179.159 103.188 179.135C102.66 179.111 102.186 178.997 101.766 178.793C101.352 178.589 101.037 178.271 100.821 177.839C100.647 177.479 100.551 177.116 100.533 176.75C100.521 176.378 100.515 175.955 100.515 175.481V166.58H101.829V175.427C101.829 175.835 101.832 176.177 101.838 176.453C101.85 176.723 101.913 176.963 102.027 177.173C102.243 177.575 102.585 177.815 103.053 177.893C103.527 177.971 104.112 177.953 104.808 177.839V179ZM98.4359 170.414V169.28H104.808V170.414H98.4359ZM115.618 179C115.072 179.114 114.532 179.159 113.998 179.135C113.47 179.111 112.996 178.997 112.576 178.793C112.162 178.589 111.847 178.271 111.631 177.839C111.457 177.479 111.361 177.116 111.343 176.75C111.331 176.378 111.325 175.955 111.325 175.481V166.58H112.639V175.427C112.639 175.835 112.642 176.177 112.648 176.453C112.66 176.723 112.723 176.963 112.837 177.173C113.053 177.575 113.395 177.815 113.863 177.893C114.337 177.971 114.922 177.953 115.618 177.839V179ZM109.246 170.414V169.28H115.618V170.414H109.246ZM121.241 179.27C120.275 179.27 119.45 179.051 118.766 178.613C118.082 178.175 117.557 177.569 117.191 176.795C116.825 176.021 116.642 175.133 116.642 174.131C116.642 173.111 116.828 172.217 117.2 171.449C117.572 170.681 118.1 170.084 118.784 169.658C119.474 169.226 120.293 169.01 121.241 169.01C122.213 169.01 123.041 169.229 123.725 169.667C124.415 170.099 124.94 170.702 125.3 171.476C125.666 172.244 125.849 173.129 125.849 174.131C125.849 175.151 125.666 176.048 125.3 176.822C124.934 177.59 124.406 178.19 123.716 178.622C123.026 179.054 122.201 179.27 121.241 179.27ZM121.241 178.001C122.321 178.001 123.125 177.644 123.653 176.93C124.181 176.21 124.445 175.277 124.445 174.131C124.445 172.955 124.178 172.019 123.644 171.323C123.116 170.627 122.315 170.279 121.241 170.279C120.515 170.279 119.915 170.444 119.441 170.774C118.973 171.098 118.622 171.551 118.388 172.133C118.16 172.709 118.046 173.375 118.046 174.131C118.046 175.301 118.316 176.24 118.856 176.948C119.396 177.65 120.191 178.001 121.241 178.001ZM135.065 179.261C133.925 179.261 132.986 179.015 132.248 178.523C131.516 178.031 131.066 177.347 130.898 176.471L132.248 176.246C132.392 176.798 132.719 177.239 133.229 177.569C133.745 177.893 134.381 178.055 135.137 178.055C135.875 178.055 136.457 177.902 136.883 177.596C137.309 177.284 137.522 176.861 137.522 176.327C137.522 176.027 137.453 175.784 137.315 175.598C137.183 175.406 136.91 175.229 136.496 175.067C136.082 174.905 135.464 174.713 134.642 174.491C133.76 174.251 133.07 174.011 132.572 173.771C132.074 173.531 131.72 173.255 131.51 172.943C131.3 172.625 131.195 172.238 131.195 171.782C131.195 171.23 131.351 170.747 131.663 170.333C131.975 169.913 132.407 169.589 132.959 169.361C133.511 169.127 134.153 169.01 134.885 169.01C135.617 169.01 136.271 169.13 136.847 169.37C137.429 169.604 137.897 169.934 138.251 170.36C138.605 170.786 138.815 171.281 138.881 171.845L137.531 172.088C137.441 171.518 137.156 171.068 136.676 170.738C136.202 170.402 135.599 170.228 134.867 170.216C134.177 170.198 133.616 170.33 133.184 170.612C132.752 170.888 132.536 171.257 132.536 171.719C132.536 171.977 132.614 172.199 132.77 172.385C132.926 172.565 133.208 172.736 133.616 172.898C134.03 173.06 134.618 173.237 135.38 173.429C136.274 173.657 136.976 173.897 137.486 174.149C137.996 174.401 138.359 174.698 138.575 175.04C138.791 175.382 138.899 175.805 138.899 176.309C138.899 177.227 138.557 177.95 137.873 178.478C137.195 179 136.259 179.261 135.065 179.261ZM141.075 167.435V165.95H142.398V167.435H141.075ZM141.075 179V169.28H142.398V179H141.075ZM148.957 183.59C148.459 183.59 147.967 183.515 147.481 183.365C147.001 183.221 146.557 182.99 146.149 182.672C145.741 182.36 145.399 181.952 145.123 181.448L146.32 180.782C146.59 181.322 146.968 181.709 147.454 181.943C147.946 182.183 148.447 182.303 148.957 182.303C149.659 182.303 150.226 182.171 150.658 181.907C151.096 181.649 151.414 181.265 151.612 180.755C151.81 180.245 151.906 179.609 151.9 178.847V176.255H152.053V169.28H153.232V178.865C153.232 179.141 153.223 179.405 153.205 179.657C153.193 179.915 153.166 180.167 153.124 180.413C153.01 181.139 152.773 181.736 152.413 182.204C152.059 182.672 151.591 183.02 151.009 183.248C150.433 183.476 149.749 183.59 148.957 183.59ZM148.867 179.27C147.961 179.27 147.187 179.045 146.545 178.595C145.903 178.139 145.411 177.524 145.069 176.75C144.727 175.976 144.556 175.103 144.556 174.131C144.556 173.165 144.724 172.295 145.06 171.521C145.402 170.747 145.891 170.135 146.527 169.685C147.163 169.235 147.925 169.01 148.813 169.01C149.725 169.01 150.493 169.232 151.117 169.676C151.741 170.12 152.212 170.729 152.53 171.503C152.854 172.271 153.016 173.147 153.016 174.131C153.016 175.097 152.857 175.97 152.539 176.75C152.221 177.524 151.753 178.139 151.135 178.595C150.517 179.045 149.761 179.27 148.867 179.27ZM149.002 178.037C149.692 178.037 150.262 177.869 150.712 177.533C151.162 177.197 151.498 176.735 151.72 176.147C151.942 175.553 152.053 174.881 152.053 174.131C152.053 173.369 151.942 172.697 151.72 172.115C151.498 171.527 151.162 171.068 150.712 170.738C150.268 170.408 149.707 170.243 149.029 170.243C148.333 170.243 147.757 170.414 147.301 170.756C146.845 171.098 146.506 171.563 146.284 172.151C146.068 172.739 145.96 173.399 145.96 174.131C145.96 174.869 146.071 175.535 146.293 176.129C146.521 176.717 146.86 177.182 147.31 177.524C147.76 177.866 148.324 178.037 149.002 178.037ZM162.768 179V174.041C162.768 173.501 162.717 173.006 162.615 172.556C162.513 172.1 162.348 171.704 162.12 171.368C161.898 171.026 161.607 170.762 161.247 170.576C160.893 170.39 160.461 170.297 159.951 170.297C159.483 170.297 159.069 170.378 158.709 170.54C158.355 170.702 158.055 170.936 157.809 171.242C157.569 171.542 157.386 171.908 157.26 172.34C157.134 172.772 157.071 173.264 157.071 173.816L156.135 173.609C156.135 172.613 156.309 171.776 156.657 171.098C157.005 170.42 157.485 169.907 158.097 169.559C158.709 169.211 159.411 169.037 160.203 169.037C160.785 169.037 161.292 169.127 161.724 169.307C162.162 169.487 162.531 169.73 162.831 170.036C163.137 170.342 163.383 170.693 163.569 171.089C163.755 171.479 163.89 171.896 163.974 172.34C164.058 172.778 164.1 173.216 164.1 173.654V179H162.768ZM155.739 179V169.28H156.936V171.674H157.071V179H155.739ZM170.219 167.435V165.95H171.542V167.435H170.219ZM170.219 179V169.28H171.542V179H170.219ZM181.26 179V174.041C181.26 173.501 181.209 173.006 181.107 172.556C181.005 172.1 180.84 171.704 180.612 171.368C180.39 171.026 180.099 170.762 179.739 170.576C179.385 170.39 178.953 170.297 178.443 170.297C177.975 170.297 177.561 170.378 177.201 170.54C176.847 170.702 176.547 170.936 176.301 171.242C176.061 171.542 175.878 171.908 175.752 172.34C175.626 172.772 175.563 173.264 175.563 173.816L174.627 173.609C174.627 172.613 174.801 171.776 175.149 171.098C175.497 170.42 175.977 169.907 176.589 169.559C177.201 169.211 177.903 169.037 178.695 169.037C179.277 169.037 179.784 169.127 180.216 169.307C180.654 169.487 181.023 169.73 181.323 170.036C181.629 170.342 181.875 170.693 182.061 171.089C182.247 171.479 182.382 171.896 182.466 172.34C182.55 172.778 182.592 173.216 182.592 173.654V179H181.26ZM174.231 179V169.28H175.428V171.674H175.563V179H174.231ZM190.601 179L187.631 169.271L188.954 169.28L191.258 176.831L193.571 169.28H194.777L197.09 176.831L199.412 169.28H200.726L197.756 179H196.604L194.174 171.26L191.753 179H190.601ZM204.584 179.27C203.852 179.27 203.237 179.138 202.739 178.874C202.247 178.61 201.878 178.259 201.632 177.821C201.386 177.383 201.263 176.906 201.263 176.39C201.263 175.862 201.368 175.412 201.578 175.04C201.794 174.662 202.085 174.353 202.451 174.113C202.823 173.873 203.252 173.69 203.738 173.564C204.23 173.444 204.773 173.339 205.367 173.249C205.967 173.153 206.552 173.072 207.122 173.006C207.698 172.934 208.202 172.865 208.634 172.799L208.166 173.087C208.184 172.127 207.998 171.416 207.608 170.954C207.218 170.492 206.54 170.261 205.574 170.261C204.908 170.261 204.344 170.411 203.882 170.711C203.426 171.011 203.105 171.485 202.919 172.133L201.632 171.755C201.854 170.885 202.301 170.21 202.973 169.73C203.645 169.25 204.518 169.01 205.592 169.01C206.48 169.01 207.233 169.178 207.851 169.514C208.475 169.844 208.916 170.324 209.174 170.954C209.294 171.236 209.372 171.551 209.408 171.899C209.444 172.247 209.462 172.601 209.462 172.961V179H208.283V176.561L208.625 176.705C208.295 177.539 207.782 178.175 207.086 178.613C206.39 179.051 205.556 179.27 204.584 179.27ZM204.737 178.127C205.355 178.127 205.895 178.016 206.357 177.794C206.819 177.572 207.191 177.269 207.473 176.885C207.755 176.495 207.938 176.057 208.022 175.571C208.094 175.259 208.133 174.917 208.139 174.545C208.145 174.167 208.148 173.885 208.148 173.699L208.652 173.96C208.202 174.02 207.713 174.08 207.185 174.14C206.663 174.2 206.147 174.269 205.637 174.347C205.133 174.425 204.677 174.518 204.269 174.626C203.993 174.704 203.726 174.815 203.468 174.959C203.21 175.097 202.997 175.283 202.829 175.517C202.667 175.751 202.586 176.042 202.586 176.39C202.586 176.672 202.655 176.945 202.793 177.209C202.937 177.473 203.165 177.692 203.477 177.866C203.795 178.04 204.215 178.127 204.737 178.127ZM215.432 179.261C214.292 179.261 213.353 179.015 212.615 178.523C211.883 178.031 211.433 177.347 211.265 176.471L212.615 176.246C212.759 176.798 213.086 177.239 213.596 177.569C214.112 177.893 214.748 178.055 215.504 178.055C216.242 178.055 216.824 177.902 217.25 177.596C217.676 177.284 217.889 176.861 217.889 176.327C217.889 176.027 217.82 175.784 217.682 175.598C217.55 175.406 217.277 175.229 216.863 175.067C216.449 174.905 215.831 174.713 215.009 174.491C214.127 174.251 213.437 174.011 212.939 173.771C212.441 173.531 212.087 173.255 211.877 172.943C211.667 172.625 211.562 172.238 211.562 171.782C211.562 171.23 211.718 170.747 212.03 170.333C212.342 169.913 212.774 169.589 213.326 169.361C213.878 169.127 214.52 169.01 215.252 169.01C215.984 169.01 216.638 169.13 217.214 169.37C217.796 169.604 218.264 169.934 218.618 170.36C218.972 170.786 219.182 171.281 219.248 171.845L217.898 172.088C217.808 171.518 217.523 171.068 217.043 170.738C216.569 170.402 215.966 170.228 215.234 170.216C214.544 170.198 213.983 170.33 213.551 170.612C213.119 170.888 212.903 171.257 212.903 171.719C212.903 171.977 212.981 172.199 213.137 172.385C213.293 172.565 213.575 172.736 213.983 172.898C214.397 173.06 214.985 173.237 215.747 173.429C216.641 173.657 217.343 173.897 217.853 174.149C218.363 174.401 218.726 174.698 218.942 175.04C219.158 175.382 219.266 175.805 219.266 176.309C219.266 177.227 218.924 177.95 218.24 178.478C217.562 179 216.626 179.261 215.432 179.261ZM11.2539 203.27C10.2759 203.27 9.44791 203.051 8.76991 202.613C8.09191 202.175 7.57591 201.572 7.22191 200.804C6.87391 200.03 6.69391 199.142 6.68191 198.14C6.69391 197.12 6.87991 196.226 7.23991 195.458C7.59991 194.684 8.11891 194.084 8.79691 193.658C9.47491 193.226 10.2969 193.01 11.2629 193.01C12.2469 193.01 13.1019 193.25 13.8279 193.73C14.5599 194.21 15.0609 194.867 15.3309 195.701L14.0349 196.115C13.8069 195.533 13.4439 195.083 12.9459 194.765C12.4539 194.441 11.8899 194.279 11.2539 194.279C10.5399 194.279 9.94891 194.444 9.48091 194.774C9.01291 195.098 8.66491 195.551 8.43691 196.133C8.20891 196.715 8.09191 197.384 8.08591 198.14C8.09791 199.304 8.36791 200.24 8.89591 200.948C9.42391 201.65 10.2099 202.001 11.2539 202.001C11.9139 202.001 12.4749 201.851 12.9369 201.551C13.4049 201.245 13.7589 200.801 13.9989 200.219L15.3309 200.615C14.9709 201.479 14.4429 202.139 13.7469 202.595C13.0509 203.045 12.2199 203.27 11.2539 203.27ZM17.105 203V189.77H18.428V203H17.105ZM25.2392 203.27C24.2912 203.27 23.4692 203.06 22.7732 202.64C22.0832 202.22 21.5462 201.629 21.1622 200.867C20.7782 200.105 20.5862 199.211 20.5862 198.185C20.5862 197.123 20.7752 196.205 21.1532 195.431C21.5312 194.657 22.0622 194.06 22.7462 193.64C23.4362 193.22 24.2492 193.01 25.1852 193.01C26.1452 193.01 26.9642 193.232 27.6422 193.676C28.3202 194.114 28.8332 194.744 29.1812 195.566C29.5292 196.388 29.6882 197.369 29.6582 198.509H28.3082V198.041C28.2842 196.781 28.0112 195.83 27.4892 195.188C26.9732 194.546 26.2172 194.225 25.2212 194.225C24.1772 194.225 23.3762 194.564 22.8182 195.242C22.2662 195.92 21.9902 196.886 21.9902 198.14C21.9902 199.364 22.2662 200.315 22.8182 200.993C23.3762 201.665 24.1652 202.001 25.1852 202.001C25.8812 202.001 26.4872 201.842 27.0032 201.524C27.5252 201.2 27.9362 200.735 28.2362 200.129L29.4692 200.606C29.0852 201.452 28.5182 202.109 27.7682 202.577C27.0242 203.039 26.1812 203.27 25.2392 203.27ZM21.5222 198.509V197.402H28.9472V198.509H21.5222ZM34.2607 203.27C33.5287 203.27 32.9137 203.138 32.4157 202.874C31.9237 202.61 31.5547 202.259 31.3087 201.821C31.0627 201.383 30.9397 200.906 30.9397 200.39C30.9397 199.862 31.0447 199.412 31.2547 199.04C31.4707 198.662 31.7617 198.353 32.1277 198.113C32.4997 197.873 32.9287 197.69 33.4147 197.564C33.9067 197.444 34.4497 197.339 35.0437 197.249C35.6437 197.153 36.2287 197.072 36.7987 197.006C37.3747 196.934 37.8787 196.865 38.3107 196.799L37.8427 197.087C37.8607 196.127 37.6747 195.416 37.2847 194.954C36.8947 194.492 36.2167 194.261 35.2507 194.261C34.5847 194.261 34.0207 194.411 33.5587 194.711C33.1027 195.011 32.7817 195.485 32.5957 196.133L31.3087 195.755C31.5307 194.885 31.9777 194.21 32.6497 193.73C33.3217 193.25 34.1947 193.01 35.2687 193.01C36.1567 193.01 36.9097 193.178 37.5277 193.514C38.1517 193.844 38.5927 194.324 38.8507 194.954C38.9707 195.236 39.0487 195.551 39.0847 195.899C39.1207 196.247 39.1387 196.601 39.1387 196.961V203H37.9597V200.561L38.3017 200.705C37.9717 201.539 37.4587 202.175 36.7627 202.613C36.0667 203.051 35.2327 203.27 34.2607 203.27ZM34.4137 202.127C35.0317 202.127 35.5717 202.016 36.0337 201.794C36.4957 201.572 36.8677 201.269 37.1497 200.885C37.4317 200.495 37.6147 200.057 37.6987 199.571C37.7707 199.259 37.8097 198.917 37.8157 198.545C37.8217 198.167 37.8247 197.885 37.8247 197.699L38.3287 197.96C37.8787 198.02 37.3897 198.08 36.8617 198.14C36.3397 198.2 35.8237 198.269 35.3137 198.347C34.8097 198.425 34.3537 198.518 33.9457 198.626C33.6697 198.704 33.4027 198.815 33.1447 198.959C32.8867 199.097 32.6737 199.283 32.5057 199.517C32.3437 199.751 32.2627 200.042 32.2627 200.39C32.2627 200.672 32.3317 200.945 32.4697 201.209C32.6137 201.473 32.8417 201.692 33.1537 201.866C33.4717 202.04 33.8917 202.127 34.4137 202.127ZM41.4817 203V193.28H42.6697V195.62L42.4357 195.314C42.5437 195.026 42.6847 194.762 42.8587 194.522C43.0327 194.276 43.2217 194.075 43.4257 193.919C43.6777 193.697 43.9717 193.529 44.3077 193.415C44.6437 193.295 44.9827 193.226 45.3247 193.208C45.6667 193.184 45.9787 193.208 46.2607 193.28V194.522C45.9067 194.432 45.5197 194.411 45.0997 194.459C44.6797 194.507 44.2927 194.675 43.9387 194.963C43.6147 195.215 43.3717 195.518 43.2097 195.872C43.0477 196.22 42.9397 196.592 42.8857 196.988C42.8317 197.378 42.8047 197.765 42.8047 198.149V203H41.4817ZM46.3466 204.881L46.4276 204.224C46.6676 204.242 46.8416 204.194 46.9496 204.08C47.0576 203.966 47.1236 203.813 47.1476 203.621C47.1716 203.429 47.1776 203.222 47.1656 203H46.3466V201.101H47.8856V203.36C47.8856 203.912 47.7446 204.326 47.4626 204.602C47.1866 204.878 46.8146 204.971 46.3466 204.881ZM56.2974 207.32L58.1784 202.217L58.2054 203.729L53.9484 193.28H55.3524L58.8444 202.019H58.2684L61.4904 193.28H62.8404L57.6204 207.32H56.2974ZM68.165 203.27C67.217 203.27 66.395 203.06 65.699 202.64C65.009 202.22 64.472 201.629 64.088 200.867C63.704 200.105 63.512 199.211 63.512 198.185C63.512 197.123 63.701 196.205 64.079 195.431C64.457 194.657 64.988 194.06 65.672 193.64C66.362 193.22 67.175 193.01 68.111 193.01C69.071 193.01 69.89 193.232 70.568 193.676C71.246 194.114 71.759 194.744 72.107 195.566C72.455 196.388 72.614 197.369 72.584 198.509H71.234V198.041C71.21 196.781 70.937 195.83 70.415 195.188C69.899 194.546 69.143 194.225 68.147 194.225C67.103 194.225 66.302 194.564 65.744 195.242C65.192 195.92 64.916 196.886 64.916 198.14C64.916 199.364 65.192 200.315 65.744 200.993C66.302 201.665 67.091 202.001 68.111 202.001C68.807 202.001 69.413 201.842 69.929 201.524C70.451 201.2 70.862 200.735 71.162 200.129L72.395 200.606C72.011 201.452 71.444 202.109 70.694 202.577C69.95 203.039 69.107 203.27 68.165 203.27ZM64.448 198.509V197.402H71.873V198.509H64.448ZM79.8733 203C79.3273 203.114 78.7873 203.159 78.2533 203.135C77.7253 203.111 77.2513 202.997 76.8313 202.793C76.4173 202.589 76.1023 202.271 75.8863 201.839C75.7123 201.479 75.6163 201.116 75.5983 200.75C75.5863 200.378 75.5803 199.955 75.5803 199.481V190.58H76.8943V199.427C76.8943 199.835 76.8973 200.177 76.9033 200.453C76.9153 200.723 76.9783 200.963 77.0923 201.173C77.3083 201.575 77.6503 201.815 78.1183 201.893C78.5923 201.971 79.1773 201.953 79.8733 201.839V203ZM73.5013 194.414V193.28H79.8733V194.414H73.5013ZM89.0188 203.261C87.8788 203.261 86.9398 203.015 86.2018 202.523C85.4698 202.031 85.0198 201.347 84.8518 200.471L86.2018 200.246C86.3458 200.798 86.6728 201.239 87.1828 201.569C87.6988 201.893 88.3348 202.055 89.0908 202.055C89.8288 202.055 90.4108 201.902 90.8368 201.596C91.2628 201.284 91.4758 200.861 91.4758 200.327C91.4758 200.027 91.4068 199.784 91.2688 199.598C91.1368 199.406 90.8638 199.229 90.4498 199.067C90.0358 198.905 89.4178 198.713 88.5958 198.491C87.7138 198.251 87.0238 198.011 86.5258 197.771C86.0278 197.531 85.6738 197.255 85.4638 196.943C85.2538 196.625 85.1488 196.238 85.1488 195.782C85.1488 195.23 85.3048 194.747 85.6168 194.333C85.9288 193.913 86.3608 193.589 86.9128 193.361C87.4648 193.127 88.1068 193.01 88.8388 193.01C89.5708 193.01 90.2248 193.13 90.8008 193.37C91.3828 193.604 91.8508 193.934 92.2048 194.36C92.5588 194.786 92.7688 195.281 92.8348 195.845L91.4848 196.088C91.3948 195.518 91.1098 195.068 90.6298 194.738C90.1558 194.402 89.5528 194.228 88.8208 194.216C88.1308 194.198 87.5698 194.33 87.1378 194.612C86.7058 194.888 86.4898 195.257 86.4898 195.719C86.4898 195.977 86.5678 196.199 86.7238 196.385C86.8798 196.565 87.1618 196.736 87.5698 196.898C87.9838 197.06 88.5718 197.237 89.3338 197.429C90.2278 197.657 90.9298 197.897 91.4398 198.149C91.9498 198.401 92.3128 198.698 92.5288 199.04C92.7448 199.382 92.8528 199.805 92.8528 200.309C92.8528 201.227 92.5108 201.95 91.8268 202.478C91.1488 203 90.2128 203.261 89.0188 203.261ZM98.9079 203.27C97.9419 203.27 97.1169 203.051 96.4329 202.613C95.7489 202.175 95.2239 201.569 94.8579 200.795C94.4919 200.021 94.3089 199.133 94.3089 198.131C94.3089 197.111 94.4949 196.217 94.8669 195.449C95.2389 194.681 95.7669 194.084 96.4509 193.658C97.1409 193.226 97.9599 193.01 98.9079 193.01C99.8799 193.01 100.708 193.229 101.392 193.667C102.082 194.099 102.607 194.702 102.967 195.476C103.333 196.244 103.516 197.129 103.516 198.131C103.516 199.151 103.333 200.048 102.967 200.822C102.601 201.59 102.073 202.19 101.383 202.622C100.693 203.054 99.8679 203.27 98.9079 203.27ZM98.9079 202.001C99.9879 202.001 100.792 201.644 101.32 200.93C101.848 200.21 102.112 199.277 102.112 198.131C102.112 196.955 101.845 196.019 101.311 195.323C100.783 194.627 99.9819 194.279 98.9079 194.279C98.1819 194.279 97.5819 194.444 97.1079 194.774C96.6399 195.098 96.2889 195.551 96.0549 196.133C95.8269 196.709 95.7129 197.375 95.7129 198.131C95.7129 199.301 95.9829 200.24 96.5229 200.948C97.0629 201.65 97.8579 202.001 98.9079 202.001ZM117.093 203L117.102 196.619C117.102 195.869 116.892 195.281 116.472 194.855C116.058 194.423 115.53 194.207 114.888 194.207C114.522 194.207 114.165 194.291 113.817 194.459C113.469 194.627 113.181 194.897 112.953 195.269C112.731 195.641 112.62 196.127 112.62 196.727L111.837 196.502C111.819 195.806 111.954 195.197 112.242 194.675C112.536 194.153 112.938 193.748 113.448 193.46C113.964 193.166 114.546 193.019 115.194 193.019C116.172 193.019 116.955 193.322 117.543 193.928C118.131 194.528 118.425 195.341 118.425 196.367L118.416 203H117.093ZM105.492 203V193.28H106.68V195.674H106.824V203H105.492ZM111.306 203L111.315 196.709C111.315 195.935 111.108 195.326 110.694 194.882C110.286 194.432 109.746 194.207 109.074 194.207C108.402 194.207 107.859 194.438 107.445 194.9C107.031 195.356 106.824 195.965 106.824 196.727L106.032 196.295C106.032 195.671 106.179 195.113 106.473 194.621C106.767 194.123 107.169 193.733 107.679 193.451C108.189 193.163 108.768 193.019 109.416 193.019C110.034 193.019 110.583 193.151 111.063 193.415C111.549 193.679 111.93 194.063 112.206 194.567C112.482 195.071 112.62 195.683 112.62 196.403L112.611 203H111.306ZM124.819 203.27C123.871 203.27 123.049 203.06 122.353 202.64C121.663 202.22 121.126 201.629 120.742 200.867C120.358 200.105 120.166 199.211 120.166 198.185C120.166 197.123 120.355 196.205 120.733 195.431C121.111 194.657 121.642 194.06 122.326 193.64C123.016 193.22 123.829 193.01 124.765 193.01C125.725 193.01 126.544 193.232 127.222 193.676C127.9 194.114 128.413 194.744 128.761 195.566C129.109 196.388 129.268 197.369 129.238 198.509H127.888V198.041C127.864 196.781 127.591 195.83 127.069 195.188C126.553 194.546 125.797 194.225 124.801 194.225C123.757 194.225 122.956 194.564 122.398 195.242C121.846 195.92 121.57 196.886 121.57 198.14C121.57 199.364 121.846 200.315 122.398 200.993C122.956 201.665 123.745 202.001 124.765 202.001C125.461 202.001 126.067 201.842 126.583 201.524C127.105 201.2 127.516 200.735 127.816 200.129L129.049 200.606C128.665 201.452 128.098 202.109 127.348 202.577C126.604 203.039 125.761 203.27 124.819 203.27ZM121.102 198.509V197.402H128.527V198.509H121.102ZM139.204 203.27C138.31 203.27 137.554 203.045 136.936 202.595C136.318 202.139 135.85 201.524 135.532 200.75C135.214 199.97 135.055 199.097 135.055 198.131C135.055 197.147 135.214 196.271 135.532 195.503C135.856 194.729 136.33 194.12 136.954 193.676C137.578 193.232 138.346 193.01 139.258 193.01C140.146 193.01 140.908 193.235 141.544 193.685C142.18 194.135 142.666 194.747 143.002 195.521C143.344 196.295 143.515 197.165 143.515 198.131C143.515 199.103 143.344 199.976 143.002 200.75C142.66 201.524 142.168 202.139 141.526 202.595C140.884 203.045 140.11 203.27 139.204 203.27ZM134.83 207.32V193.28H136.018V200.597H136.162V207.32H134.83ZM139.069 202.037C139.747 202.037 140.311 201.866 140.761 201.524C141.211 201.182 141.547 200.717 141.769 200.129C141.997 199.535 142.111 198.869 142.111 198.131C142.111 197.399 142 196.739 141.778 196.151C141.556 195.563 141.217 195.098 140.761 194.756C140.311 194.414 139.738 194.243 139.042 194.243C138.364 194.243 137.8 194.408 137.35 194.738C136.906 195.068 136.573 195.527 136.351 196.115C136.129 196.697 136.018 197.369 136.018 198.131C136.018 198.881 136.129 199.553 136.351 200.147C136.573 200.735 136.909 201.197 137.359 201.533C137.809 201.869 138.379 202.037 139.069 202.037ZM148.272 203.27C147.54 203.27 146.925 203.138 146.427 202.874C145.935 202.61 145.566 202.259 145.32 201.821C145.074 201.383 144.951 200.906 144.951 200.39C144.951 199.862 145.056 199.412 145.266 199.04C145.482 198.662 145.773 198.353 146.139 198.113C146.511 197.873 146.94 197.69 147.426 197.564C147.918 197.444 148.461 197.339 149.055 197.249C149.655 197.153 150.24 197.072 150.81 197.006C151.386 196.934 151.89 196.865 152.322 196.799L151.854 197.087C151.872 196.127 151.686 195.416 151.296 194.954C150.906 194.492 150.228 194.261 149.262 194.261C148.596 194.261 148.032 194.411 147.57 194.711C147.114 195.011 146.793 195.485 146.607 196.133L145.32 195.755C145.542 194.885 145.989 194.21 146.661 193.73C147.333 193.25 148.206 193.01 149.28 193.01C150.168 193.01 150.921 193.178 151.539 193.514C152.163 193.844 152.604 194.324 152.862 194.954C152.982 195.236 153.06 195.551 153.096 195.899C153.132 196.247 153.15 196.601 153.15 196.961V203H151.971V200.561L152.313 200.705C151.983 201.539 151.47 202.175 150.774 202.613C150.078 203.051 149.244 203.27 148.272 203.27ZM148.425 202.127C149.043 202.127 149.583 202.016 150.045 201.794C150.507 201.572 150.879 201.269 151.161 200.885C151.443 200.495 151.626 200.057 151.71 199.571C151.782 199.259 151.821 198.917 151.827 198.545C151.833 198.167 151.836 197.885 151.836 197.699L152.34 197.96C151.89 198.02 151.401 198.08 150.873 198.14C150.351 198.2 149.835 198.269 149.325 198.347C148.821 198.425 148.365 198.518 147.957 198.626C147.681 198.704 147.414 198.815 147.156 198.959C146.898 199.097 146.685 199.283 146.517 199.517C146.355 199.751 146.274 200.042 146.274 200.39C146.274 200.672 146.343 200.945 146.481 201.209C146.625 201.473 146.853 201.692 147.165 201.866C147.483 202.04 147.903 202.127 148.425 202.127ZM155.493 203V193.28H156.681V195.62L156.447 195.314C156.555 195.026 156.696 194.762 156.87 194.522C157.044 194.276 157.233 194.075 157.437 193.919C157.689 193.697 157.983 193.529 158.319 193.415C158.655 193.295 158.994 193.226 159.336 193.208C159.678 193.184 159.99 193.208 160.272 193.28V194.522C159.918 194.432 159.531 194.411 159.111 194.459C158.691 194.507 158.304 194.675 157.95 194.963C157.626 195.215 157.383 195.518 157.221 195.872C157.059 196.22 156.951 196.592 156.897 196.988C156.843 197.378 156.816 197.765 156.816 198.149V203H155.493ZM167.272 203C166.726 203.114 166.186 203.159 165.652 203.135C165.124 203.111 164.65 202.997 164.23 202.793C163.816 202.589 163.501 202.271 163.285 201.839C163.111 201.479 163.015 201.116 162.997 200.75C162.985 200.378 162.979 199.955 162.979 199.481V190.58H164.293V199.427C164.293 199.835 164.296 200.177 164.302 200.453C164.314 200.723 164.377 200.963 164.491 201.173C164.707 201.575 165.049 201.815 165.517 201.893C165.991 201.971 166.576 201.953 167.272 201.839V203ZM160.9 194.414V193.28H167.272V194.414H160.9ZM169.367 191.435V189.95H170.69V191.435H169.367ZM169.367 203V193.28H170.69V203H169.367ZM177.42 203.27C176.442 203.27 175.614 203.051 174.936 202.613C174.258 202.175 173.742 201.572 173.388 200.804C173.04 200.03 172.86 199.142 172.848 198.14C172.86 197.12 173.046 196.226 173.406 195.458C173.766 194.684 174.285 194.084 174.963 193.658C175.641 193.226 176.463 193.01 177.429 193.01C178.413 193.01 179.268 193.25 179.994 193.73C180.726 194.21 181.227 194.867 181.497 195.701L180.201 196.115C179.973 195.533 179.61 195.083 179.112 194.765C178.62 194.441 178.056 194.279 177.42 194.279C176.706 194.279 176.115 194.444 175.647 194.774C175.179 195.098 174.831 195.551 174.603 196.133C174.375 196.715 174.258 197.384 174.252 198.14C174.264 199.304 174.534 200.24 175.062 200.948C175.59 201.65 176.376 202.001 177.42 202.001C178.08 202.001 178.641 201.851 179.103 201.551C179.571 201.245 179.925 200.801 180.165 200.219L181.497 200.615C181.137 201.479 180.609 202.139 179.913 202.595C179.217 203.045 178.386 203.27 177.42 203.27ZM183.271 191.435V189.95H184.594V191.435H183.271ZM183.271 203V193.28H184.594V203H183.271ZM191.657 203.27C190.763 203.27 190.007 203.045 189.389 202.595C188.771 202.139 188.303 201.524 187.985 200.75C187.667 199.97 187.508 199.097 187.508 198.131C187.508 197.147 187.667 196.271 187.985 195.503C188.309 194.729 188.783 194.12 189.407 193.676C190.031 193.232 190.799 193.01 191.711 193.01C192.599 193.01 193.361 193.235 193.997 193.685C194.633 194.135 195.119 194.747 195.455 195.521C195.797 196.295 195.968 197.165 195.968 198.131C195.968 199.103 195.797 199.976 195.455 200.75C195.113 201.524 194.621 202.139 193.979 202.595C193.337 203.045 192.563 203.27 191.657 203.27ZM187.283 207.32V193.28H188.471V200.597H188.615V207.32H187.283ZM191.522 202.037C192.2 202.037 192.764 201.866 193.214 201.524C193.664 201.182 194 200.717 194.222 200.129C194.45 199.535 194.564 198.869 194.564 198.131C194.564 197.399 194.453 196.739 194.231 196.151C194.009 195.563 193.67 195.098 193.214 194.756C192.764 194.414 192.191 194.243 191.495 194.243C190.817 194.243 190.253 194.408 189.803 194.738C189.359 195.068 189.026 195.527 188.804 196.115C188.582 196.697 188.471 197.369 188.471 198.131C188.471 198.881 188.582 199.553 188.804 200.147C189.026 200.735 189.362 201.197 189.812 201.533C190.262 201.869 190.832 202.037 191.522 202.037ZM200.726 203.27C199.994 203.27 199.379 203.138 198.881 202.874C198.389 202.61 198.02 202.259 197.774 201.821C197.528 201.383 197.405 200.906 197.405 200.39C197.405 199.862 197.51 199.412 197.72 199.04C197.936 198.662 198.227 198.353 198.593 198.113C198.965 197.873 199.394 197.69 199.88 197.564C200.372 197.444 200.915 197.339 201.509 197.249C202.109 197.153 202.694 197.072 203.264 197.006C203.84 196.934 204.344 196.865 204.776 196.799L204.308 197.087C204.326 196.127 204.14 195.416 203.75 194.954C203.36 194.492 202.682 194.261 201.716 194.261C201.05 194.261 200.486 194.411 200.024 194.711C199.568 195.011 199.247 195.485 199.061 196.133L197.774 195.755C197.996 194.885 198.443 194.21 199.115 193.73C199.787 193.25 200.66 193.01 201.734 193.01C202.622 193.01 203.375 193.178 203.993 193.514C204.617 193.844 205.058 194.324 205.316 194.954C205.436 195.236 205.514 195.551 205.55 195.899C205.586 196.247 205.604 196.601 205.604 196.961V203H204.425V200.561L204.767 200.705C204.437 201.539 203.924 202.175 203.228 202.613C202.532 203.051 201.698 203.27 200.726 203.27ZM200.879 202.127C201.497 202.127 202.037 202.016 202.499 201.794C202.961 201.572 203.333 201.269 203.615 200.885C203.897 200.495 204.08 200.057 204.164 199.571C204.236 199.259 204.275 198.917 204.281 198.545C204.287 198.167 204.29 197.885 204.29 197.699L204.794 197.96C204.344 198.02 203.855 198.08 203.327 198.14C202.805 198.2 202.289 198.269 201.779 198.347C201.275 198.425 200.819 198.518 200.411 198.626C200.135 198.704 199.868 198.815 199.61 198.959C199.352 199.097 199.139 199.283 198.971 199.517C198.809 199.751 198.728 200.042 198.728 200.39C198.728 200.672 198.797 200.945 198.935 201.209C199.079 201.473 199.307 201.692 199.619 201.866C199.937 202.04 200.357 202.127 200.879 202.127ZM214.967 203V198.041C214.967 197.501 214.916 197.006 214.814 196.556C214.712 196.1 214.547 195.704 214.319 195.368C214.097 195.026 213.806 194.762 213.446 194.576C213.092 194.39 212.66 194.297 212.15 194.297C211.682 194.297 211.268 194.378 210.908 194.54C210.554 194.702 210.254 194.936 210.008 195.242C209.768 195.542 209.585 195.908 209.459 196.34C209.333 196.772 209.27 197.264 209.27 197.816L208.334 197.609C208.334 196.613 208.508 195.776 208.856 195.098C209.204 194.42 209.684 193.907 210.296 193.559C210.908 193.211 211.61 193.037 212.402 193.037C212.984 193.037 213.491 193.127 213.923 193.307C214.361 193.487 214.73 193.73 215.03 194.036C215.336 194.342 215.582 194.693 215.768 195.089C215.954 195.479 216.089 195.896 216.173 196.34C216.257 196.778 216.299 197.216 216.299 197.654V203H214.967ZM207.938 203V193.28H209.135V195.674H209.27V203H207.938ZM223.926 203C223.38 203.114 222.84 203.159 222.306 203.135C221.778 203.111 221.304 202.997 220.884 202.793C220.47 202.589 220.155 202.271 219.939 201.839C219.765 201.479 219.669 201.116 219.651 200.75C219.639 200.378 219.633 199.955 219.633 199.481V190.58H220.947V199.427C220.947 199.835 220.95 200.177 220.956 200.453C220.968 200.723 221.031 200.963 221.145 201.173C221.361 201.575 221.703 201.815 222.171 201.893C222.645 201.971 223.23 201.953 223.926 201.839V203ZM217.554 194.414V193.28H223.926V194.414H217.554ZM229.468 203.261C228.328 203.261 227.389 203.015 226.651 202.523C225.919 202.031 225.469 201.347 225.301 200.471L226.651 200.246C226.795 200.798 227.122 201.239 227.632 201.569C228.148 201.893 228.784 202.055 229.54 202.055C230.278 202.055 230.86 201.902 231.286 201.596C231.712 201.284 231.925 200.861 231.925 200.327C231.925 200.027 231.856 199.784 231.718 199.598C231.586 199.406 231.313 199.229 230.899 199.067C230.485 198.905 229.867 198.713 229.045 198.491C228.163 198.251 227.473 198.011 226.975 197.771C226.477 197.531 226.123 197.255 225.913 196.943C225.703 196.625 225.598 196.238 225.598 195.782C225.598 195.23 225.754 194.747 226.066 194.333C226.378 193.913 226.81 193.589 227.362 193.361C227.914 193.127 228.556 193.01 229.288 193.01C230.02 193.01 230.674 193.13 231.25 193.37C231.832 193.604 232.3 193.934 232.654 194.36C233.008 194.786 233.218 195.281 233.284 195.845L231.934 196.088C231.844 195.518 231.559 195.068 231.079 194.738C230.605 194.402 230.002 194.228 229.27 194.216C228.58 194.198 228.019 194.33 227.587 194.612C227.155 194.888 226.939 195.257 226.939 195.719C226.939 195.977 227.017 196.199 227.173 196.385C227.329 196.565 227.611 196.736 228.019 196.898C228.433 197.06 229.021 197.237 229.783 197.429C230.677 197.657 231.379 197.897 231.889 198.149C232.399 198.401 232.762 198.698 232.978 199.04C233.194 199.382 233.302 199.805 233.302 200.309C233.302 201.227 232.96 201.95 232.276 202.478C231.598 203 230.662 203.261 229.468 203.261ZM18.6094 227.27C17.7154 227.27 16.9594 227.045 16.3414 226.595C15.7234 226.139 15.2554 225.524 14.9374 224.75C14.6194 223.97 14.4604 223.097 14.4604 222.131C14.4604 221.147 14.6194 220.271 14.9374 219.503C15.2614 218.729 15.7354 218.12 16.3594 217.676C16.9834 217.232 17.7514 217.01 18.6634 217.01C19.5514 217.01 20.3134 217.235 20.9494 217.685C21.5854 218.135 22.0714 218.747 22.4074 219.521C22.7494 220.295 22.9204 221.165 22.9204 222.131C22.9204 223.103 22.7494 223.976 22.4074 224.75C22.0654 225.524 21.5734 226.139 20.9314 226.595C20.2894 227.045 19.5154 227.27 18.6094 227.27ZM14.2354 227V214.04H15.5674V219.683H15.4234V227H14.2354ZM18.4744 226.037C19.1524 226.037 19.7164 225.866 20.1664 225.524C20.6164 225.182 20.9524 224.717 21.1744 224.129C21.4024 223.535 21.5164 222.869 21.5164 222.131C21.5164 221.399 21.4054 220.739 21.1834 220.151C20.9614 219.563 20.6224 219.098 20.1664 218.756C19.7164 218.414 19.1434 218.243 18.4474 218.243C17.7694 218.243 17.2054 218.408 16.7554 218.738C16.3114 219.068 15.9784 219.527 15.7564 220.115C15.5344 220.697 15.4234 221.369 15.4234 222.131C15.4234 222.881 15.5344 223.553 15.7564 224.147C15.9784 224.735 16.3144 225.197 16.7644 225.533C17.2144 225.869 17.7844 226.037 18.4744 226.037ZM29.0097 227.27C28.0617 227.27 27.2397 227.06 26.5437 226.64C25.8537 226.22 25.3167 225.629 24.9327 224.867C24.5487 224.105 24.3567 223.211 24.3567 222.185C24.3567 221.123 24.5457 220.205 24.9237 219.431C25.3017 218.657 25.8327 218.06 26.5167 217.64C27.2067 217.22 28.0197 217.01 28.9557 217.01C29.9157 217.01 30.7347 217.232 31.4127 217.676C32.0907 218.114 32.6037 218.744 32.9517 219.566C33.2997 220.388 33.4587 221.369 33.4287 222.509H32.0787V222.041C32.0547 220.781 31.7817 219.83 31.2597 219.188C30.7437 218.546 29.9877 218.225 28.9917 218.225C27.9477 218.225 27.1467 218.564 26.5887 219.242C26.0367 219.92 25.7607 220.886 25.7607 222.14C25.7607 223.364 26.0367 224.315 26.5887 224.993C27.1467 225.665 27.9357 226.001 28.9557 226.001C29.6517 226.001 30.2577 225.842 30.7737 225.524C31.2957 225.2 31.7067 224.735 32.0067 224.129L33.2397 224.606C32.8557 225.452 32.2887 226.109 31.5387 226.577C30.7947 227.039 29.9517 227.27 29.0097 227.27ZM25.2927 222.509V221.402H32.7177V222.509H25.2927ZM35.606 227V213.77H36.929V227H35.606ZM39.8072 215.435V213.95H41.1302V215.435H39.8072ZM39.8072 227V217.28H41.1302V227H39.8072ZM47.9414 227.27C46.9934 227.27 46.1714 227.06 45.4754 226.64C44.7854 226.22 44.2484 225.629 43.8644 224.867C43.4804 224.105 43.2884 223.211 43.2884 222.185C43.2884 221.123 43.4774 220.205 43.8554 219.431C44.2334 218.657 44.7644 218.06 45.4484 217.64C46.1384 217.22 46.9514 217.01 47.8874 217.01C48.8474 217.01 49.6664 217.232 50.3444 217.676C51.0224 218.114 51.5354 218.744 51.8834 219.566C52.2314 220.388 52.3904 221.369 52.3604 222.509H51.0104V222.041C50.9864 220.781 50.7134 219.83 50.1914 219.188C49.6754 218.546 48.9194 218.225 47.9234 218.225C46.8794 218.225 46.0784 218.564 45.5204 219.242C44.9684 219.92 44.6924 220.886 44.6924 222.14C44.6924 223.364 44.9684 224.315 45.5204 224.993C46.0784 225.665 46.8674 226.001 47.8874 226.001C48.5834 226.001 49.1894 225.842 49.7054 225.524C50.2274 225.2 50.6384 224.735 50.9384 224.129L52.1714 224.606C51.7874 225.452 51.2204 226.109 50.4704 226.577C49.7264 227.039 48.8834 227.27 47.9414 227.27ZM44.2244 222.509V221.402H51.6494V222.509H44.2244ZM56.6341 227L53.1061 217.28H54.4471L57.3181 225.272L60.1711 217.28H61.5301L58.0021 227H56.6341ZM66.9082 227.27C65.9602 227.27 65.1382 227.06 64.4422 226.64C63.7522 226.22 63.2152 225.629 62.8312 224.867C62.4472 224.105 62.2552 223.211 62.2552 222.185C62.2552 221.123 62.4442 220.205 62.8222 219.431C63.2002 218.657 63.7312 218.06 64.4152 217.64C65.1052 217.22 65.9182 217.01 66.8542 217.01C67.8142 217.01 68.6332 217.232 69.3112 217.676C69.9892 218.114 70.5022 218.744 70.8502 219.566C71.1982 220.388 71.3572 221.369 71.3272 222.509H69.9772V222.041C69.9532 220.781 69.6802 219.83 69.1582 219.188C68.6422 218.546 67.8862 218.225 66.8902 218.225C65.8462 218.225 65.0452 218.564 64.4872 219.242C63.9352 219.92 63.6592 220.886 63.6592 222.14C63.6592 223.364 63.9352 224.315 64.4872 224.993C65.0452 225.665 65.8342 226.001 66.8542 226.001C67.5502 226.001 68.1562 225.842 68.6722 225.524C69.1942 225.2 69.6052 224.735 69.9052 224.129L71.1382 224.606C70.7542 225.452 70.1872 226.109 69.4372 226.577C68.6932 227.039 67.8502 227.27 66.9082 227.27ZM63.1912 222.509V221.402H70.6162V222.509H63.1912ZM77.0955 227.27C76.1895 227.27 75.4155 227.045 74.7735 226.595C74.1315 226.139 73.6395 225.524 73.2975 224.75C72.9555 223.976 72.7845 223.103 72.7845 222.131C72.7845 221.165 72.9525 220.295 73.2885 219.521C73.6305 218.747 74.1195 218.135 74.7555 217.685C75.3915 217.235 76.1535 217.01 77.0415 217.01C77.9535 217.01 78.7215 217.232 79.3455 217.676C79.9695 218.12 80.4405 218.729 80.7585 219.503C81.0825 220.271 81.2445 221.147 81.2445 222.131C81.2445 223.097 81.0855 223.97 80.7675 224.75C80.4495 225.524 79.9815 226.139 79.3635 226.595C78.7455 227.045 77.9895 227.27 77.0955 227.27ZM77.2305 226.037C77.9205 226.037 78.4905 225.869 78.9405 225.533C79.3905 225.197 79.7265 224.735 79.9485 224.147C80.1705 223.553 80.2815 222.881 80.2815 222.131C80.2815 221.369 80.1705 220.697 79.9485 220.115C79.7265 219.527 79.3905 219.068 78.9405 218.738C78.4965 218.408 77.9355 218.243 77.2575 218.243C76.5615 218.243 75.9855 218.414 75.5295 218.756C75.0735 219.098 74.7345 219.563 74.5125 220.151C74.2965 220.739 74.1885 221.399 74.1885 222.131C74.1885 222.869 74.2995 223.535 74.5215 224.129C74.7495 224.717 75.0885 225.182 75.5385 225.524C75.9885 225.866 76.5525 226.037 77.2305 226.037ZM80.2815 227V219.683H80.1375V214.04H81.4695V227H80.2815ZM87.7779 215.435V213.95H89.1009V215.435H87.7779ZM87.7779 227V217.28H89.1009V227H87.7779ZM97.0911 227C96.5451 227.114 96.0051 227.159 95.4711 227.135C94.9431 227.111 94.4691 226.997 94.0491 226.793C93.6351 226.589 93.3201 226.271 93.1041 225.839C92.9301 225.479 92.8341 225.116 92.8161 224.75C92.8041 224.378 92.7981 223.955 92.7981 223.481V214.58H94.1121V223.427C94.1121 223.835 94.1151 224.177 94.1211 224.453C94.1331 224.723 94.1961 224.963 94.3101 225.173C94.5261 225.575 94.8681 225.815 95.3361 225.893C95.8101 225.971 96.3951 225.953 97.0911 225.839V227ZM90.7191 218.414V217.28H97.0911V218.414H90.7191ZM102.633 227.261C101.493 227.261 100.554 227.015 99.8161 226.523C99.0841 226.031 98.6341 225.347 98.4661 224.471L99.8161 224.246C99.9601 224.798 100.287 225.239 100.797 225.569C101.313 225.893 101.949 226.055 102.705 226.055C103.443 226.055 104.025 225.902 104.451 225.596C104.877 225.284 105.09 224.861 105.09 224.327C105.09 224.027 105.021 223.784 104.883 223.598C104.751 223.406 104.478 223.229 104.064 223.067C103.65 222.905 103.032 222.713 102.21 222.491C101.328 222.251 100.638 222.011 100.14 221.771C99.6421 221.531 99.2881 221.255 99.0781 220.943C98.8681 220.625 98.7631 220.238 98.7631 219.782C98.7631 219.23 98.9191 218.747 99.2311 218.333C99.5431 217.913 99.9751 217.589 100.527 217.361C101.079 217.127 101.721 217.01 102.453 217.01C103.185 217.01 103.839 217.13 104.415 217.37C104.997 217.604 105.465 217.934 105.819 218.36C106.173 218.786 106.383 219.281 106.449 219.845L105.099 220.088C105.009 219.518 104.724 219.068 104.244 218.738C103.77 218.402 103.167 218.228 102.435 218.216C101.745 218.198 101.184 218.33 100.752 218.612C100.32 218.888 100.104 219.257 100.104 219.719C100.104 219.977 100.182 220.199 100.338 220.385C100.494 220.565 100.776 220.736 101.184 220.898C101.598 221.06 102.186 221.237 102.948 221.429C103.842 221.657 104.544 221.897 105.054 222.149C105.564 222.401 105.927 222.698 106.143 223.04C106.359 223.382 106.467 223.805 106.467 224.309C106.467 225.227 106.125 225.95 105.441 226.478C104.763 227 103.827 227.261 102.633 227.261ZM114.695 227L111.167 217.28H112.508L115.379 225.272L118.232 217.28H119.591L116.063 227H114.695ZM121.387 215.435V213.95H122.71V215.435H121.387ZM121.387 227V217.28H122.71V227H121.387ZM129.035 227.261C127.895 227.261 126.956 227.015 126.218 226.523C125.486 226.031 125.036 225.347 124.868 224.471L126.218 224.246C126.362 224.798 126.689 225.239 127.199 225.569C127.715 225.893 128.351 226.055 129.107 226.055C129.845 226.055 130.427 225.902 130.853 225.596C131.279 225.284 131.492 224.861 131.492 224.327C131.492 224.027 131.423 223.784 131.285 223.598C131.153 223.406 130.88 223.229 130.466 223.067C130.052 222.905 129.434 222.713 128.612 222.491C127.73 222.251 127.04 222.011 126.542 221.771C126.044 221.531 125.69 221.255 125.48 220.943C125.27 220.625 125.165 220.238 125.165 219.782C125.165 219.23 125.321 218.747 125.633 218.333C125.945 217.913 126.377 217.589 126.929 217.361C127.481 217.127 128.123 217.01 128.855 217.01C129.587 217.01 130.241 217.13 130.817 217.37C131.399 217.604 131.867 217.934 132.221 218.36C132.575 218.786 132.785 219.281 132.851 219.845L131.501 220.088C131.411 219.518 131.126 219.068 130.646 218.738C130.172 218.402 129.569 218.228 128.837 218.216C128.147 218.198 127.586 218.33 127.154 218.612C126.722 218.888 126.506 219.257 126.506 219.719C126.506 219.977 126.584 220.199 126.74 220.385C126.896 220.565 127.178 220.736 127.586 220.898C128 221.06 128.588 221.237 129.35 221.429C130.244 221.657 130.946 221.897 131.456 222.149C131.966 222.401 132.329 222.698 132.545 223.04C132.761 223.382 132.869 223.805 132.869 224.309C132.869 225.227 132.527 225.95 131.843 226.478C131.165 227 130.229 227.261 129.035 227.261ZM135.045 215.435V213.95H136.368V215.435H135.045ZM135.045 227V217.28H136.368V227H135.045ZM143.432 227.27C142.538 227.27 141.782 227.045 141.164 226.595C140.546 226.139 140.078 225.524 139.76 224.75C139.442 223.97 139.283 223.097 139.283 222.131C139.283 221.147 139.442 220.271 139.76 219.503C140.084 218.729 140.558 218.12 141.182 217.676C141.806 217.232 142.574 217.01 143.486 217.01C144.374 217.01 145.136 217.235 145.772 217.685C146.408 218.135 146.894 218.747 147.23 219.521C147.572 220.295 147.743 221.165 147.743 222.131C147.743 223.103 147.572 223.976 147.23 224.75C146.888 225.524 146.396 226.139 145.754 226.595C145.112 227.045 144.338 227.27 143.432 227.27ZM139.058 227V214.04H140.39V219.683H140.246V227H139.058ZM143.297 226.037C143.975 226.037 144.539 225.866 144.989 225.524C145.439 225.182 145.775 224.717 145.997 224.129C146.225 223.535 146.339 222.869 146.339 222.131C146.339 221.399 146.228 220.739 146.006 220.151C145.784 219.563 145.445 219.098 144.989 218.756C144.539 218.414 143.966 218.243 143.27 218.243C142.592 218.243 142.028 218.408 141.578 218.738C141.134 219.068 140.801 219.527 140.579 220.115C140.357 220.697 140.246 221.369 140.246 222.131C140.246 222.881 140.357 223.553 140.579 224.147C140.801 224.735 141.137 225.197 141.587 225.533C142.037 225.869 142.607 226.037 143.297 226.037ZM149.899 215.435V213.95H151.222V215.435H149.899ZM149.899 227V217.28H151.222V227H149.899ZM154.1 227V213.77H155.423V227H154.1ZM158.301 215.435V213.95H159.624V215.435H158.301ZM158.301 227V217.28H159.624V227H158.301ZM167.615 227C167.069 227.114 166.529 227.159 165.995 227.135C165.467 227.111 164.993 226.997 164.573 226.793C164.159 226.589 163.844 226.271 163.628 225.839C163.454 225.479 163.358 225.116 163.34 224.75C163.328 224.378 163.322 223.955 163.322 223.481V214.58H164.636V223.427C164.636 223.835 164.639 224.177 164.645 224.453C164.657 224.723 164.72 224.963 164.834 225.173C165.05 225.575 165.392 225.815 165.86 225.893C166.334 225.971 166.919 225.953 167.615 225.839V227ZM161.243 218.414V217.28H167.615V218.414H161.243ZM170.652 231.32L172.533 226.217L172.56 227.729L168.303 217.28H169.707L173.199 226.019H172.623L175.845 217.28H177.195L171.975 231.32H170.652ZM186.394 227.27C185.416 227.27 184.588 227.051 183.91 226.613C183.232 226.175 182.716 225.572 182.362 224.804C182.014 224.03 181.834 223.142 181.822 222.14C181.834 221.12 182.02 220.226 182.38 219.458C182.74 218.684 183.259 218.084 183.937 217.658C184.615 217.226 185.437 217.01 186.403 217.01C187.387 217.01 188.242 217.25 188.968 217.73C189.7 218.21 190.201 218.867 190.471 219.701L189.175 220.115C188.947 219.533 188.584 219.083 188.086 218.765C187.594 218.441 187.03 218.279 186.394 218.279C185.68 218.279 185.089 218.444 184.621 218.774C184.153 219.098 183.805 219.551 183.577 220.133C183.349 220.715 183.232 221.384 183.226 222.14C183.238 223.304 183.508 224.24 184.036 224.948C184.564 225.65 185.35 226.001 186.394 226.001C187.054 226.001 187.615 225.851 188.077 225.551C188.545 225.245 188.899 224.801 189.139 224.219L190.471 224.615C190.111 225.479 189.583 226.139 188.887 226.595C188.191 227.045 187.36 227.27 186.394 227.27ZM196.124 227.27C195.158 227.27 194.333 227.051 193.649 226.613C192.965 226.175 192.44 225.569 192.074 224.795C191.708 224.021 191.525 223.133 191.525 222.131C191.525 221.111 191.711 220.217 192.083 219.449C192.455 218.681 192.983 218.084 193.667 217.658C194.357 217.226 195.176 217.01 196.124 217.01C197.096 217.01 197.924 217.229 198.608 217.667C199.298 218.099 199.823 218.702 200.183 219.476C200.549 220.244 200.732 221.129 200.732 222.131C200.732 223.151 200.549 224.048 200.183 224.822C199.817 225.59 199.289 226.19 198.599 226.622C197.909 227.054 197.084 227.27 196.124 227.27ZM196.124 226.001C197.204 226.001 198.008 225.644 198.536 224.93C199.064 224.21 199.328 223.277 199.328 222.131C199.328 220.955 199.061 220.019 198.527 219.323C197.999 218.627 197.198 218.279 196.124 218.279C195.398 218.279 194.798 218.444 194.324 218.774C193.856 219.098 193.505 219.551 193.271 220.133C193.043 220.709 192.929 221.375 192.929 222.131C192.929 223.301 193.199 224.24 193.739 224.948C194.279 225.65 195.074 226.001 196.124 226.001ZM206.434 227.243C205.852 227.243 205.342 227.153 204.904 226.973C204.472 226.793 204.103 226.55 203.797 226.244C203.497 225.938 203.254 225.59 203.068 225.2C202.882 224.804 202.747 224.387 202.663 223.949C202.579 223.505 202.537 223.064 202.537 222.626V217.28H203.869V222.239C203.869 222.773 203.92 223.268 204.022 223.724C204.124 224.18 204.286 224.579 204.508 224.921C204.736 225.257 205.027 225.518 205.381 225.704C205.741 225.89 206.176 225.983 206.686 225.983C207.154 225.983 207.565 225.902 207.919 225.74C208.279 225.578 208.579 225.347 208.819 225.047C209.065 224.741 209.251 224.372 209.377 223.94C209.503 223.502 209.566 223.01 209.566 222.464L210.502 222.671C210.502 223.667 210.328 224.504 209.98 225.182C209.632 225.86 209.152 226.373 208.54 226.721C207.928 227.069 207.226 227.243 206.434 227.243ZM209.701 227V224.606H209.566V217.28H210.889V227H209.701ZM213.585 227V213.77H214.908V227H213.585ZM221.377 227.27C220.471 227.27 219.697 227.045 219.055 226.595C218.413 226.139 217.921 225.524 217.579 224.75C217.237 223.976 217.066 223.103 217.066 222.131C217.066 221.165 217.234 220.295 217.57 219.521C217.912 218.747 218.401 218.135 219.037 217.685C219.673 217.235 220.435 217.01 221.323 217.01C222.235 217.01 223.003 217.232 223.627 217.676C224.251 218.12 224.722 218.729 225.04 219.503C225.364 220.271 225.526 221.147 225.526 222.131C225.526 223.097 225.367 223.97 225.049 224.75C224.731 225.524 224.263 226.139 223.645 226.595C223.027 227.045 222.271 227.27 221.377 227.27ZM221.512 226.037C222.202 226.037 222.772 225.869 223.222 225.533C223.672 225.197 224.008 224.735 224.23 224.147C224.452 223.553 224.563 222.881 224.563 222.131C224.563 221.369 224.452 220.697 224.23 220.115C224.008 219.527 223.672 219.068 223.222 218.738C222.778 218.408 222.217 218.243 221.539 218.243C220.843 218.243 220.267 218.414 219.811 218.756C219.355 219.098 219.016 219.563 218.794 220.151C218.578 220.739 218.47 221.399 218.47 222.131C218.47 222.869 218.581 223.535 218.803 224.129C219.031 224.717 219.37 225.182 219.82 225.524C220.27 225.866 220.834 226.037 221.512 226.037ZM224.563 227V219.683H224.419V214.04H225.751V227H224.563ZM49.4502 251.27C48.5562 251.27 47.8002 251.045 47.1822 250.595C46.5642 250.139 46.0962 249.524 45.7782 248.75C45.4602 247.97 45.3012 247.097 45.3012 246.131C45.3012 245.147 45.4602 244.271 45.7782 243.503C46.1022 242.729 46.5762 242.12 47.2002 241.676C47.8242 241.232 48.5922 241.01 49.5042 241.01C50.3922 241.01 51.1542 241.235 51.7902 241.685C52.4262 242.135 52.9122 242.747 53.2482 243.521C53.5902 244.295 53.7612 245.165 53.7612 246.131C53.7612 247.103 53.5902 247.976 53.2482 248.75C52.9062 249.524 52.4142 250.139 51.7722 250.595C51.1302 251.045 50.3562 251.27 49.4502 251.27ZM45.0762 251V238.04H46.4082V243.683H46.2642V251H45.0762ZM49.3152 250.037C49.9932 250.037 50.5572 249.866 51.0072 249.524C51.4572 249.182 51.7932 248.717 52.0152 248.129C52.2432 247.535 52.3572 246.869 52.3572 246.131C52.3572 245.399 52.2462 244.739 52.0242 244.151C51.8022 243.563 51.4632 243.098 51.0072 242.756C50.5572 242.414 49.9842 242.243 49.2882 242.243C48.6102 242.243 48.0462 242.408 47.5962 242.738C47.1522 243.068 46.8192 243.527 46.5972 244.115C46.3752 244.697 46.2642 245.369 46.2642 246.131C46.2642 246.881 46.3752 247.553 46.5972 248.147C46.8192 248.735 47.1552 249.197 47.6052 249.533C48.0552 249.869 48.6252 250.037 49.3152 250.037ZM59.8505 251.27C58.9025 251.27 58.0805 251.06 57.3845 250.64C56.6945 250.22 56.1575 249.629 55.7735 248.867C55.3895 248.105 55.1975 247.211 55.1975 246.185C55.1975 245.123 55.3865 244.205 55.7645 243.431C56.1425 242.657 56.6735 242.06 57.3575 241.64C58.0475 241.22 58.8605 241.01 59.7965 241.01C60.7565 241.01 61.5755 241.232 62.2535 241.676C62.9315 242.114 63.4445 242.744 63.7925 243.566C64.1405 244.388 64.2995 245.369 64.2695 246.509H62.9195V246.041C62.8955 244.781 62.6225 243.83 62.1005 243.188C61.5845 242.546 60.8285 242.225 59.8325 242.225C58.7885 242.225 57.9875 242.564 57.4295 243.242C56.8775 243.92 56.6015 244.886 56.6015 246.14C56.6015 247.364 56.8775 248.315 57.4295 248.993C57.9875 249.665 58.7765 250.001 59.7965 250.001C60.4925 250.001 61.0985 249.842 61.6145 249.524C62.1365 249.2 62.5475 248.735 62.8475 248.129L64.0805 248.606C63.6965 249.452 63.1295 250.109 62.3795 250.577C61.6355 251.039 60.7925 251.27 59.8505 251.27ZM56.1335 246.509V245.402H63.5585V246.509H56.1335ZM73.0232 251V246.041C73.0232 245.501 72.9722 245.006 72.8702 244.556C72.7682 244.1 72.6032 243.704 72.3752 243.368C72.1532 243.026 71.8622 242.762 71.5022 242.576C71.1482 242.39 70.7162 242.297 70.2062 242.297C69.7382 242.297 69.3242 242.378 68.9642 242.54C68.6102 242.702 68.3102 242.936 68.0642 243.242C67.8242 243.542 67.6412 243.908 67.5152 244.34C67.3892 244.772 67.3262 245.264 67.3262 245.816L66.3902 245.609C66.3902 244.613 66.5642 243.776 66.9122 243.098C67.2602 242.42 67.7402 241.907 68.3522 241.559C68.9642 241.211 69.6662 241.037 70.4582 241.037C71.0402 241.037 71.5472 241.127 71.9792 241.307C72.4172 241.487 72.7862 241.73 73.0862 242.036C73.3922 242.342 73.6382 242.693 73.8242 243.089C74.0102 243.479 74.1452 243.896 74.2292 244.34C74.3132 244.778 74.3552 245.216 74.3552 245.654V251H73.0232ZM65.9942 251V241.28H67.1912V243.674H67.3262V251H65.9942ZM80.7509 251.27C79.8029 251.27 78.9809 251.06 78.2849 250.64C77.5949 250.22 77.0579 249.629 76.6739 248.867C76.2899 248.105 76.0979 247.211 76.0979 246.185C76.0979 245.123 76.2869 244.205 76.6649 243.431C77.0429 242.657 77.5739 242.06 78.2579 241.64C78.9479 241.22 79.7609 241.01 80.6969 241.01C81.6569 241.01 82.4759 241.232 83.1539 241.676C83.8319 242.114 84.3449 242.744 84.6929 243.566C85.0409 244.388 85.1999 245.369 85.1699 246.509H83.8199V246.041C83.7959 244.781 83.5229 243.83 83.0009 243.188C82.4849 242.546 81.7289 242.225 80.7329 242.225C79.6889 242.225 78.8879 242.564 78.3299 243.242C77.7779 243.92 77.5019 244.886 77.5019 246.14C77.5019 247.364 77.7779 248.315 78.3299 248.993C78.8879 249.665 79.6769 250.001 80.6969 250.001C81.3929 250.001 81.9989 249.842 82.5149 249.524C83.0369 249.2 83.4479 248.735 83.7479 248.129L84.9809 248.606C84.5969 249.452 84.0299 250.109 83.2799 250.577C82.5359 251.039 81.6929 251.27 80.7509 251.27ZM77.0339 246.509V245.402H84.4589V246.509H77.0339ZM88.1302 251V240.56C88.1302 240.308 88.1422 240.059 88.1662 239.813C88.1962 239.567 88.2532 239.333 88.3372 239.111C88.4212 238.883 88.5532 238.673 88.7332 238.481C88.9312 238.265 89.1472 238.109 89.3812 238.013C89.6152 237.911 89.8582 237.845 90.1102 237.815C90.3682 237.785 90.6202 237.77 90.8662 237.77H92.1082V238.886H90.9562C90.4522 238.886 90.0742 239.009 89.8222 239.255C89.5762 239.501 89.4532 239.888 89.4532 240.416V251H88.1302ZM86.4472 242.414V241.28H92.1082V242.414H86.4472ZM93.9982 239.435V237.95H95.3212V239.435H93.9982ZM93.9982 251V241.28H95.3212V251H93.9982ZM103.305 251C102.759 251.114 102.219 251.159 101.685 251.135C101.157 251.111 100.683 250.997 100.263 250.793C99.8489 250.589 99.5339 250.271 99.3179 249.839C99.1439 249.479 99.0479 249.116 99.0299 248.75C99.0179 248.378 99.0119 247.955 99.0119 247.481V238.58H100.326V247.427C100.326 247.835 100.329 248.177 100.335 248.453C100.347 248.723 100.41 248.963 100.524 249.173C100.74 249.575 101.082 249.815 101.55 249.893C102.024 249.971 102.609 249.953 103.305 249.839V251ZM96.9329 242.414V241.28H103.305V242.414H96.9329ZM109.786 251V240.56C109.786 240.308 109.798 240.059 109.822 239.813C109.852 239.567 109.909 239.333 109.993 239.111C110.077 238.883 110.209 238.673 110.389 238.481C110.587 238.265 110.803 238.109 111.037 238.013C111.271 237.911 111.514 237.845 111.766 237.815C112.024 237.785 112.276 237.77 112.522 237.77H113.764V238.886H112.612C112.108 238.886 111.73 239.009 111.478 239.255C111.232 239.501 111.109 239.888 111.109 240.416V251H109.786ZM108.103 242.414V241.28H113.764V242.414H108.103ZM115.204 251V241.28H116.392V243.62L116.158 243.314C116.266 243.026 116.407 242.762 116.581 242.522C116.755 242.276 116.944 242.075 117.148 241.919C117.4 241.697 117.694 241.529 118.03 241.415C118.366 241.295 118.705 241.226 119.047 241.208C119.389 241.184 119.701 241.208 119.983 241.28V242.522C119.629 242.432 119.242 242.411 118.822 242.459C118.402 242.507 118.015 242.675 117.661 242.963C117.337 243.215 117.094 243.518 116.932 243.872C116.77 244.22 116.662 244.592 116.608 244.988C116.554 245.378 116.527 245.765 116.527 246.149V251H115.204ZM125.574 251.27C124.608 251.27 123.783 251.051 123.099 250.613C122.415 250.175 121.89 249.569 121.524 248.795C121.158 248.021 120.975 247.133 120.975 246.131C120.975 245.111 121.161 244.217 121.533 243.449C121.905 242.681 122.433 242.084 123.117 241.658C123.807 241.226 124.626 241.01 125.574 241.01C126.546 241.01 127.374 241.229 128.058 241.667C128.748 242.099 129.273 242.702 129.633 243.476C129.999 244.244 130.182 245.129 130.182 246.131C130.182 247.151 129.999 248.048 129.633 248.822C129.267 249.59 128.739 250.19 128.049 250.622C127.359 251.054 126.534 251.27 125.574 251.27ZM125.574 250.001C126.654 250.001 127.458 249.644 127.986 248.93C128.514 248.21 128.778 247.277 128.778 246.131C128.778 244.955 128.511 244.019 127.977 243.323C127.449 242.627 126.648 242.279 125.574 242.279C124.848 242.279 124.248 242.444 123.774 242.774C123.306 243.098 122.955 243.551 122.721 244.133C122.493 244.709 122.379 245.375 122.379 246.131C122.379 247.301 122.649 248.24 123.189 248.948C123.729 249.65 124.524 250.001 125.574 250.001ZM143.759 251L143.768 244.619C143.768 243.869 143.558 243.281 143.138 242.855C142.724 242.423 142.196 242.207 141.554 242.207C141.188 242.207 140.831 242.291 140.483 242.459C140.135 242.627 139.847 242.897 139.619 243.269C139.397 243.641 139.286 244.127 139.286 244.727L138.503 244.502C138.485 243.806 138.62 243.197 138.908 242.675C139.202 242.153 139.604 241.748 140.114 241.46C140.63 241.166 141.212 241.019 141.86 241.019C142.838 241.019 143.621 241.322 144.209 241.928C144.797 242.528 145.091 243.341 145.091 244.367L145.082 251H143.759ZM132.158 251V241.28H133.346V243.674H133.49V251H132.158ZM137.972 251L137.981 244.709C137.981 243.935 137.774 243.326 137.36 242.882C136.952 242.432 136.412 242.207 135.74 242.207C135.068 242.207 134.525 242.438 134.111 242.9C133.697 243.356 133.49 243.965 133.49 244.727L132.698 244.295C132.698 243.671 132.845 243.113 133.139 242.621C133.433 242.123 133.835 241.733 134.345 241.451C134.855 241.163 135.434 241.019 136.082 241.019C136.7 241.019 137.249 241.151 137.729 241.415C138.215 241.679 138.596 242.063 138.872 242.567C139.148 243.071 139.286 243.683 139.286 244.403L139.277 251H137.972ZM154.656 251.261C153.516 251.261 152.577 251.015 151.839 250.523C151.107 250.031 150.657 249.347 150.489 248.471L151.839 248.246C151.983 248.798 152.31 249.239 152.82 249.569C153.336 249.893 153.972 250.055 154.728 250.055C155.466 250.055 156.048 249.902 156.474 249.596C156.9 249.284 157.113 248.861 157.113 248.327C157.113 248.027 157.044 247.784 156.906 247.598C156.774 247.406 156.501 247.229 156.087 247.067C155.673 246.905 155.055 246.713 154.233 246.491C153.351 246.251 152.661 246.011 152.163 245.771C151.665 245.531 151.311 245.255 151.101 244.943C150.891 244.625 150.786 244.238 150.786 243.782C150.786 243.23 150.942 242.747 151.254 242.333C151.566 241.913 151.998 241.589 152.55 241.361C153.102 241.127 153.744 241.01 154.476 241.01C155.208 241.01 155.862 241.13 156.438 241.37C157.02 241.604 157.488 241.934 157.842 242.36C158.196 242.786 158.406 243.281 158.472 243.845L157.122 244.088C157.032 243.518 156.747 243.068 156.267 242.738C155.793 242.402 155.19 242.228 154.458 242.216C153.768 242.198 153.207 242.33 152.775 242.612C152.343 242.888 152.127 243.257 152.127 243.719C152.127 243.977 152.205 244.199 152.361 244.385C152.517 244.565 152.799 244.736 153.207 244.898C153.621 245.06 154.209 245.237 154.971 245.429C155.865 245.657 156.567 245.897 157.077 246.149C157.587 246.401 157.95 246.698 158.166 247.04C158.382 247.382 158.49 247.805 158.49 248.309C158.49 249.227 158.148 249.95 157.464 250.478C156.786 251 155.85 251.261 154.656 251.261ZM160.666 251V237.77H161.989V251H160.666ZM164.867 239.435V237.95H166.19V239.435H164.867ZM164.867 251V241.28H166.19V251H164.867ZM172.749 255.59C172.251 255.59 171.759 255.515 171.273 255.365C170.793 255.221 170.349 254.99 169.941 254.672C169.533 254.36 169.191 253.952 168.915 253.448L170.112 252.782C170.382 253.322 170.76 253.709 171.246 253.943C171.738 254.183 172.239 254.303 172.749 254.303C173.451 254.303 174.018 254.171 174.45 253.907C174.888 253.649 175.206 253.265 175.404 252.755C175.602 252.245 175.698 251.609 175.692 250.847V248.255H175.845V241.28H177.024V250.865C177.024 251.141 177.015 251.405 176.997 251.657C176.985 251.915 176.958 252.167 176.916 252.413C176.802 253.139 176.565 253.736 176.205 254.204C175.851 254.672 175.383 255.02 174.801 255.248C174.225 255.476 173.541 255.59 172.749 255.59ZM172.659 251.27C171.753 251.27 170.979 251.045 170.337 250.595C169.695 250.139 169.203 249.524 168.861 248.75C168.519 247.976 168.348 247.103 168.348 246.131C168.348 245.165 168.516 244.295 168.852 243.521C169.194 242.747 169.683 242.135 170.319 241.685C170.955 241.235 171.717 241.01 172.605 241.01C173.517 241.01 174.285 241.232 174.909 241.676C175.533 242.12 176.004 242.729 176.322 243.503C176.646 244.271 176.808 245.147 176.808 246.131C176.808 247.097 176.649 247.97 176.331 248.75C176.013 249.524 175.545 250.139 174.927 250.595C174.309 251.045 173.553 251.27 172.659 251.27ZM172.794 250.037C173.484 250.037 174.054 249.869 174.504 249.533C174.954 249.197 175.29 248.735 175.512 248.147C175.734 247.553 175.845 246.881 175.845 246.131C175.845 245.369 175.734 244.697 175.512 244.115C175.29 243.527 174.954 243.068 174.504 242.738C174.06 242.408 173.499 242.243 172.821 242.243C172.125 242.243 171.549 242.414 171.093 242.756C170.637 243.098 170.298 243.563 170.076 244.151C169.86 244.739 169.752 245.399 169.752 246.131C169.752 246.869 169.863 247.535 170.085 248.129C170.313 248.717 170.652 249.182 171.102 249.524C171.552 249.866 172.116 250.037 172.794 250.037ZM186.56 251V246.041C186.56 245.501 186.509 245.006 186.407 244.556C186.305 244.1 186.14 243.704 185.912 243.368C185.69 243.026 185.399 242.762 185.039 242.576C184.685 242.39 184.253 242.297 183.743 242.297C183.275 242.297 182.861 242.378 182.501 242.54C182.147 242.702 181.847 242.936 181.601 243.242C181.361 243.542 181.178 243.908 181.052 244.34C180.926 244.772 180.863 245.264 180.863 245.816L179.927 245.609C179.927 244.613 180.101 243.776 180.449 243.098C180.797 242.42 181.277 241.907 181.889 241.559C182.501 241.211 183.203 241.037 183.995 241.037C184.577 241.037 185.084 241.127 185.516 241.307C185.954 241.487 186.323 241.73 186.623 242.036C186.929 242.342 187.175 242.693 187.361 243.089C187.547 243.479 187.682 243.896 187.766 244.34C187.85 244.778 187.892 245.216 187.892 245.654V251H186.56ZM179.531 251V238.04H180.728V245.357H180.863V251H179.531ZM195.52 251C194.974 251.114 194.434 251.159 193.9 251.135C193.372 251.111 192.898 250.997 192.478 250.793C192.064 250.589 191.749 250.271 191.533 249.839C191.359 249.479 191.263 249.116 191.245 248.75C191.233 248.378 191.227 247.955 191.227 247.481V238.58H192.541V247.427C192.541 247.835 192.544 248.177 192.55 248.453C192.562 248.723 192.625 248.963 192.739 249.173C192.955 249.575 193.297 249.815 193.765 249.893C194.239 249.971 194.824 249.953 195.52 249.839V251ZM189.148 242.414V241.28H195.52V242.414H189.148ZM60.5537 275.27C59.6057 275.27 58.7837 275.06 58.0877 274.64C57.3977 274.22 56.8607 273.629 56.4767 272.867C56.0927 272.105 55.9007 271.211 55.9007 270.185C55.9007 269.123 56.0897 268.205 56.4677 267.431C56.8457 266.657 57.3767 266.06 58.0607 265.64C58.7507 265.22 59.5637 265.01 60.4997 265.01C61.4597 265.01 62.2787 265.232 62.9567 265.676C63.6347 266.114 64.1477 266.744 64.4957 267.566C64.8437 268.388 65.0027 269.369 64.9727 270.509H63.6227V270.041C63.5987 268.781 63.3257 267.83 62.8037 267.188C62.2877 266.546 61.5317 266.225 60.5357 266.225C59.4917 266.225 58.6907 266.564 58.1327 267.242C57.5807 267.92 57.3047 268.886 57.3047 270.14C57.3047 271.364 57.5807 272.315 58.1327 272.993C58.6907 273.665 59.4797 274.001 60.4997 274.001C61.1957 274.001 61.8017 273.842 62.3177 273.524C62.8397 273.2 63.2507 272.735 63.5507 272.129L64.7837 272.606C64.3997 273.452 63.8327 274.109 63.0827 274.577C62.3387 275.039 61.4957 275.27 60.5537 275.27ZM56.8367 270.509V269.402H64.2617V270.509H56.8367ZM73.7263 275V270.041C73.7263 269.501 73.6753 269.006 73.5733 268.556C73.4713 268.1 73.3063 267.704 73.0783 267.368C72.8563 267.026 72.5653 266.762 72.2053 266.576C71.8513 266.39 71.4193 266.297 70.9093 266.297C70.4413 266.297 70.0273 266.378 69.6673 266.54C69.3133 266.702 69.0133 266.936 68.7673 267.242C68.5273 267.542 68.3443 267.908 68.2183 268.34C68.0923 268.772 68.0293 269.264 68.0293 269.816L67.0933 269.609C67.0933 268.613 67.2673 267.776 67.6153 267.098C67.9633 266.42 68.4433 265.907 69.0553 265.559C69.6673 265.211 70.3693 265.037 71.1613 265.037C71.7433 265.037 72.2503 265.127 72.6823 265.307C73.1203 265.487 73.4893 265.73 73.7893 266.036C74.0953 266.342 74.3413 266.693 74.5273 267.089C74.7133 267.479 74.8483 267.896 74.9323 268.34C75.0163 268.778 75.0583 269.216 75.0583 269.654V275H73.7263ZM66.6973 275V265.28H67.8943V267.674H68.0293V275H66.6973ZM84.4138 275V270.041C84.4138 269.501 84.3628 269.006 84.2608 268.556C84.1588 268.1 83.9938 267.704 83.7658 267.368C83.5438 267.026 83.2528 266.762 82.8928 266.576C82.5388 266.39 82.1068 266.297 81.5968 266.297C81.1288 266.297 80.7148 266.378 80.3548 266.54C80.0008 266.702 79.7008 266.936 79.4548 267.242C79.2148 267.542 79.0318 267.908 78.9058 268.34C78.7798 268.772 78.7168 269.264 78.7168 269.816L77.7808 269.609C77.7808 268.613 77.9548 267.776 78.3028 267.098C78.6508 266.42 79.1308 265.907 79.7428 265.559C80.3548 265.211 81.0568 265.037 81.8488 265.037C82.4308 265.037 82.9378 265.127 83.3698 265.307C83.8078 265.487 84.1768 265.73 84.4768 266.036C84.7828 266.342 85.0288 266.693 85.2148 267.089C85.4008 267.479 85.5358 267.896 85.6198 268.34C85.7038 268.778 85.7458 269.216 85.7458 269.654V275H84.4138ZM77.3848 275V262.04H78.5818V269.357H78.7168V275H77.3848ZM90.8623 275.27C90.1303 275.27 89.5153 275.138 89.0173 274.874C88.5253 274.61 88.1563 274.259 87.9103 273.821C87.6643 273.383 87.5413 272.906 87.5413 272.39C87.5413 271.862 87.6463 271.412 87.8563 271.04C88.0723 270.662 88.3633 270.353 88.7293 270.113C89.1013 269.873 89.5303 269.69 90.0163 269.564C90.5083 269.444 91.0513 269.339 91.6453 269.249C92.2453 269.153 92.8303 269.072 93.4003 269.006C93.9763 268.934 94.4803 268.865 94.9123 268.799L94.4443 269.087C94.4623 268.127 94.2763 267.416 93.8863 266.954C93.4963 266.492 92.8183 266.261 91.8523 266.261C91.1863 266.261 90.6223 266.411 90.1603 266.711C89.7043 267.011 89.3833 267.485 89.1973 268.133L87.9103 267.755C88.1323 266.885 88.5793 266.21 89.2513 265.73C89.9233 265.25 90.7963 265.01 91.8703 265.01C92.7583 265.01 93.5113 265.178 94.1293 265.514C94.7533 265.844 95.1943 266.324 95.4523 266.954C95.5723 267.236 95.6503 267.551 95.6863 267.899C95.7223 268.247 95.7403 268.601 95.7403 268.961V275H94.5613V272.561L94.9033 272.705C94.5733 273.539 94.0603 274.175 93.3643 274.613C92.6683 275.051 91.8343 275.27 90.8623 275.27ZM91.0153 274.127C91.6333 274.127 92.1733 274.016 92.6353 273.794C93.0973 273.572 93.4693 273.269 93.7513 272.885C94.0333 272.495 94.2163 272.057 94.3003 271.571C94.3723 271.259 94.4113 270.917 94.4173 270.545C94.4233 270.167 94.4263 269.885 94.4263 269.699L94.9303 269.96C94.4803 270.02 93.9913 270.08 93.4633 270.14C92.9413 270.2 92.4253 270.269 91.9153 270.347C91.4113 270.425 90.9553 270.518 90.5473 270.626C90.2713 270.704 90.0043 270.815 89.7463 270.959C89.4883 271.097 89.2753 271.283 89.1073 271.517C88.9453 271.751 88.8643 272.042 88.8643 272.39C88.8643 272.672 88.9333 272.945 89.0713 273.209C89.2153 273.473 89.4433 273.692 89.7553 273.866C90.0733 274.04 90.4933 274.127 91.0153 274.127ZM105.103 275V270.041C105.103 269.501 105.052 269.006 104.95 268.556C104.848 268.1 104.683 267.704 104.455 267.368C104.233 267.026 103.942 266.762 103.582 266.576C103.228 266.39 102.796 266.297 102.286 266.297C101.818 266.297 101.404 266.378 101.044 266.54C100.69 266.702 100.39 266.936 100.144 267.242C99.9042 267.542 99.7212 267.908 99.5952 268.34C99.4692 268.772 99.4062 269.264 99.4062 269.816L98.4702 269.609C98.4702 268.613 98.6442 267.776 98.9922 267.098C99.3402 266.42 99.8202 265.907 100.432 265.559C101.044 265.211 101.746 265.037 102.538 265.037C103.12 265.037 103.627 265.127 104.059 265.307C104.497 265.487 104.866 265.73 105.166 266.036C105.472 266.342 105.718 266.693 105.904 267.089C106.09 267.479 106.225 267.896 106.309 268.34C106.393 268.778 106.435 269.216 106.435 269.654V275H105.103ZM98.0742 275V265.28H99.2712V267.674H99.4062V275H98.0742ZM112.75 275.27C111.772 275.27 110.944 275.051 110.266 274.613C109.588 274.175 109.072 273.572 108.718 272.804C108.37 272.03 108.19 271.142 108.178 270.14C108.19 269.12 108.376 268.226 108.736 267.458C109.096 266.684 109.615 266.084 110.293 265.658C110.971 265.226 111.793 265.01 112.759 265.01C113.743 265.01 114.598 265.25 115.324 265.73C116.056 266.21 116.557 266.867 116.827 267.701L115.531 268.115C115.303 267.533 114.94 267.083 114.442 266.765C113.95 266.441 113.386 266.279 112.75 266.279C112.036 266.279 111.445 266.444 110.977 266.774C110.509 267.098 110.161 267.551 109.933 268.133C109.705 268.715 109.588 269.384 109.582 270.14C109.594 271.304 109.864 272.24 110.392 272.948C110.92 273.65 111.706 274.001 112.75 274.001C113.41 274.001 113.971 273.851 114.433 273.551C114.901 273.245 115.255 272.801 115.495 272.219L116.827 272.615C116.467 273.479 115.939 274.139 115.243 274.595C114.547 275.045 113.716 275.27 112.75 275.27ZM122.534 275.27C121.586 275.27 120.764 275.06 120.068 274.64C119.378 274.22 118.841 273.629 118.457 272.867C118.073 272.105 117.881 271.211 117.881 270.185C117.881 269.123 118.07 268.205 118.448 267.431C118.826 266.657 119.357 266.06 120.041 265.64C120.731 265.22 121.544 265.01 122.48 265.01C123.44 265.01 124.259 265.232 124.937 265.676C125.615 266.114 126.128 266.744 126.476 267.566C126.824 268.388 126.983 269.369 126.953 270.509H125.603V270.041C125.579 268.781 125.306 267.83 124.784 267.188C124.268 266.546 123.512 266.225 122.516 266.225C121.472 266.225 120.671 266.564 120.113 267.242C119.561 267.92 119.285 268.886 119.285 270.14C119.285 271.364 119.561 272.315 120.113 272.993C120.671 273.665 121.46 274.001 122.48 274.001C123.176 274.001 123.782 273.842 124.298 273.524C124.82 273.2 125.231 272.735 125.531 272.129L126.764 272.606C126.38 273.452 125.813 274.109 125.063 274.577C124.319 275.039 123.476 275.27 122.534 275.27ZM118.817 270.509V269.402H126.242V270.509H118.817ZM140.279 275L140.288 268.619C140.288 267.869 140.078 267.281 139.658 266.855C139.244 266.423 138.716 266.207 138.074 266.207C137.708 266.207 137.351 266.291 137.003 266.459C136.655 266.627 136.367 266.897 136.139 267.269C135.917 267.641 135.806 268.127 135.806 268.727L135.023 268.502C135.005 267.806 135.14 267.197 135.428 266.675C135.722 266.153 136.124 265.748 136.634 265.46C137.15 265.166 137.732 265.019 138.38 265.019C139.358 265.019 140.141 265.322 140.729 265.928C141.317 266.528 141.611 267.341 141.611 268.367L141.602 275H140.279ZM128.678 275V265.28H129.866V267.674H130.01V275H128.678ZM134.492 275L134.501 268.709C134.501 267.935 134.294 267.326 133.88 266.882C133.472 266.432 132.932 266.207 132.26 266.207C131.588 266.207 131.045 266.438 130.631 266.9C130.217 267.356 130.01 267.965 130.01 268.727L129.218 268.295C129.218 267.671 129.365 267.113 129.659 266.621C129.953 266.123 130.355 265.733 130.865 265.451C131.375 265.163 131.954 265.019 132.602 265.019C133.22 265.019 133.769 265.151 134.249 265.415C134.735 265.679 135.116 266.063 135.392 266.567C135.668 267.071 135.806 267.683 135.806 268.403L135.797 275H134.492ZM148.005 275.27C147.057 275.27 146.235 275.06 145.539 274.64C144.849 274.22 144.312 273.629 143.928 272.867C143.544 272.105 143.352 271.211 143.352 270.185C143.352 269.123 143.541 268.205 143.919 267.431C144.297 266.657 144.828 266.06 145.512 265.64C146.202 265.22 147.015 265.01 147.951 265.01C148.911 265.01 149.73 265.232 150.408 265.676C151.086 266.114 151.599 266.744 151.947 267.566C152.295 268.388 152.454 269.369 152.424 270.509H151.074V270.041C151.05 268.781 150.777 267.83 150.255 267.188C149.739 266.546 148.983 266.225 147.987 266.225C146.943 266.225 146.142 266.564 145.584 267.242C145.032 267.92 144.756 268.886 144.756 270.14C144.756 271.364 145.032 272.315 145.584 272.993C146.142 273.665 146.931 274.001 147.951 274.001C148.647 274.001 149.253 273.842 149.769 273.524C150.291 273.2 150.702 272.735 151.002 272.129L152.235 272.606C151.851 273.452 151.284 274.109 150.534 274.577C149.79 275.039 148.947 275.27 148.005 275.27ZM144.288 270.509V269.402H151.713V270.509H144.288ZM161.177 275V270.041C161.177 269.501 161.126 269.006 161.024 268.556C160.922 268.1 160.757 267.704 160.529 267.368C160.307 267.026 160.016 266.762 159.656 266.576C159.302 266.39 158.87 266.297 158.36 266.297C157.892 266.297 157.478 266.378 157.118 266.54C156.764 266.702 156.464 266.936 156.218 267.242C155.978 267.542 155.795 267.908 155.669 268.34C155.543 268.772 155.48 269.264 155.48 269.816L154.544 269.609C154.544 268.613 154.718 267.776 155.066 267.098C155.414 266.42 155.894 265.907 156.506 265.559C157.118 265.211 157.82 265.037 158.612 265.037C159.194 265.037 159.701 265.127 160.133 265.307C160.571 265.487 160.94 265.73 161.24 266.036C161.546 266.342 161.792 266.693 161.978 267.089C162.164 267.479 162.299 267.896 162.383 268.34C162.467 268.778 162.509 269.216 162.509 269.654V275H161.177ZM154.148 275V265.28H155.345V267.674H155.48V275H154.148ZM170.137 275C169.591 275.114 169.051 275.159 168.517 275.135C167.989 275.111 167.515 274.997 167.095 274.793C166.681 274.589 166.366 274.271 166.15 273.839C165.976 273.479 165.88 273.116 165.862 272.75C165.85 272.378 165.844 271.955 165.844 271.481V262.58H167.158V271.427C167.158 271.835 167.161 272.177 167.167 272.453C167.179 272.723 167.242 272.963 167.356 273.173C167.572 273.575 167.914 273.815 168.382 273.893C168.856 273.971 169.441 273.953 170.137 273.839V275ZM163.765 266.414V265.28H170.137V266.414H163.765ZM175.679 275.261C174.539 275.261 173.6 275.015 172.862 274.523C172.13 274.031 171.68 273.347 171.512 272.471L172.862 272.246C173.006 272.798 173.333 273.239 173.843 273.569C174.359 273.893 174.995 274.055 175.751 274.055C176.489 274.055 177.071 273.902 177.497 273.596C177.923 273.284 178.136 272.861 178.136 272.327C178.136 272.027 178.067 271.784 177.929 271.598C177.797 271.406 177.524 271.229 177.11 271.067C176.696 270.905 176.078 270.713 175.256 270.491C174.374 270.251 173.684 270.011 173.186 269.771C172.688 269.531 172.334 269.255 172.124 268.943C171.914 268.625 171.809 268.238 171.809 267.782C171.809 267.23 171.965 266.747 172.277 266.333C172.589 265.913 173.021 265.589 173.573 265.361C174.125 265.127 174.767 265.01 175.499 265.01C176.231 265.01 176.885 265.13 177.461 265.37C178.043 265.604 178.511 265.934 178.865 266.36C179.219 266.786 179.429 267.281 179.495 267.845L178.145 268.088C178.055 267.518 177.77 267.068 177.29 266.738C176.816 266.402 176.213 266.228 175.481 266.216C174.791 266.198 174.23 266.33 173.798 266.612C173.366 266.888 173.15 267.257 173.15 267.719C173.15 267.977 173.228 268.199 173.384 268.385C173.54 268.565 173.822 268.736 174.23 268.898C174.644 269.06 175.232 269.237 175.994 269.429C176.888 269.657 177.59 269.897 178.1 270.149C178.61 270.401 178.973 270.698 179.189 271.04C179.405 271.382 179.513 271.805 179.513 272.309C179.513 273.227 179.171 273.95 178.487 274.478C177.809 275 176.873 275.261 175.679 275.261ZM181.761 275V273.461H183.3V275H181.761Z" fill="#1A4555"/>
<defs>
<filter id="filter0_d_49_93" x="81.667" y="2.66675" width="76.667" height="76.6667" filterUnits="userSpaceOnUse" color-interpolation-filters="sRGB">
<feFlood flood-opacity="0" result="BackgroundImageFix"/>
<feColorMatrix in="SourceAlpha" type="matrix" values="0 0 0 0 0 0 0 0 0 0 0 0 0 0 0 0 0 0 127 0" result="hardAlpha"/>
<feOffset dy="1"/>
<feGaussianBlur stdDeviation="2.5"/>
<feComposite in2="hardAlpha" operator="out"/>
<feColorMatrix type="matrix" values="0 0 0 0 0.956863 0 0 0 0 0.470588 0 0 0 0 0.317647 0 0 0 0.5 0"/>
<feBlend mode="normal" in2="BackgroundImageFix" result="effect1_dropShadow_49_93"/>
<feBlend mode="normal" in="SourceGraphic" in2="effect1_dropShadow_49_93" result="shape"/>
</filter>
<linearGradient id="paint0_linear_49_93" x1="87" y1="7" x2="153" y2="75.5" gradientUnits="userSpaceOnUse">
<stop stop-color="#F47851"/>
<stop offset="1" stop-color="#F6B472"/>
</linearGradient>
</defs>
</svg>
