<svg width="240" height="280" viewBox="0 0 240 280" fill="none" xmlns="http://www.w3.org/2000/svg">
<g clip-path="url(#clip0_49_81)">
<g filter="url(#filter0_d_49_81)">
<path fill-rule="evenodd" clip-rule="evenodd" d="M115.5 8.42488C116.326 7.00531 117.631 5.92686 119.181 5.38338C120.73 4.8399 122.423 4.86704 123.955 5.45991C125.486 6.05278 126.756 7.1725 127.536 8.61781C128.316 10.0631 128.555 11.7392 128.21 13.3449L124.65 29.9999H144.35C145.891 30 147.412 30.3564 148.793 31.0413C150.174 31.7262 151.377 32.7211 152.31 33.9482C153.243 35.1754 153.88 36.6015 154.17 38.1154C154.461 39.6292 154.397 41.1896 153.985 42.6749L149.59 58.4849C148.313 63.0854 145.433 67.0774 141.47 69.7395C137.506 72.4016 132.721 73.5581 127.98 72.9999L102.5 69.9999L99.9998 34.9999L115.5 8.42488ZM93.7448 37.2349C93.7187 36.7374 93.5937 36.25 93.3771 35.8014C93.1605 35.3527 92.8566 34.9517 92.4833 34.6218C92.11 34.2918 91.6747 34.0396 91.2028 33.8798C90.7309 33.72 90.2319 33.6558 89.735 33.6911C89.238 33.7263 88.753 33.8602 88.3084 34.0849C87.8637 34.3096 87.4683 34.6207 87.1453 35C86.8222 35.3793 86.578 35.8191 86.4268 36.2938C86.2756 36.7686 86.2206 37.2686 86.2648 37.7649L88.7648 72.7649C88.8522 73.7437 89.3202 74.6492 90.0683 75.2864C90.8164 75.9236 91.7848 76.2418 92.765 76.1723C93.7453 76.1028 94.6591 75.6514 95.3099 74.915C95.9607 74.1786 96.2964 73.2162 96.2448 72.2349L93.7448 37.2349Z" fill="url(#paint0_linear_49_81)"/>
</g>
</g>
<path d="M10.7451 133V117.16H21.0851V119.954H13.7371V123.342H19.7651V126.136H13.7371V130.206H21.0851V133H10.7451ZM38.0216 133V125.982C38.0216 125.197 37.8346 124.589 37.4606 124.156C37.094 123.716 36.5843 123.496 35.9316 123.496C35.5136 123.496 35.1506 123.595 34.8426 123.793C34.5346 123.984 34.2926 124.255 34.1166 124.607C33.948 124.952 33.8636 125.351 33.8636 125.806L32.6096 124.97C32.6096 124.156 32.8003 123.437 33.1816 122.814C33.5703 122.191 34.0873 121.707 34.7326 121.362C35.3853 121.01 36.1076 120.834 36.8996 120.834C38.2563 120.834 39.2793 121.237 39.9686 122.044C40.6653 122.843 41.0136 123.892 41.0136 125.19V133H38.0216ZM23.6996 133V121.12H26.3396V125.058H26.7136V133H23.6996ZM30.8716 133V125.982C30.8716 125.197 30.6846 124.589 30.3106 124.156C29.944 123.716 29.4343 123.496 28.7816 123.496C28.1583 123.496 27.656 123.712 27.2746 124.145C26.9006 124.57 26.7136 125.124 26.7136 125.806L25.4596 124.926C25.4596 124.149 25.654 123.452 26.0426 122.836C26.4313 122.22 26.952 121.732 27.6046 121.373C28.2646 121.014 29.0016 120.834 29.8156 120.834C30.747 120.834 31.5096 121.032 32.1036 121.428C32.705 121.824 33.1486 122.352 33.4346 123.012C33.7206 123.672 33.8636 124.398 33.8636 125.19V133H30.8716ZM49.0051 133.33C47.8098 133.33 46.7611 133.062 45.8591 132.527C44.9571 131.992 44.2531 131.255 43.7471 130.316C43.2485 129.37 42.9991 128.285 42.9991 127.06C42.9991 125.821 43.2558 124.732 43.7691 123.793C44.2825 122.847 44.9901 122.11 45.8921 121.582C46.7941 121.054 47.8318 120.79 49.0051 120.79C50.2005 120.79 51.2491 121.058 52.1511 121.593C53.0605 122.128 53.7681 122.869 54.2741 123.815C54.7801 124.754 55.0331 125.835 55.0331 127.06C55.0331 128.292 54.7765 129.381 54.2631 130.327C53.7571 131.266 53.0495 132.003 52.1401 132.538C51.2381 133.066 50.1931 133.33 49.0051 133.33ZM49.0051 130.536C49.9658 130.536 50.6808 130.213 51.1501 129.568C51.6268 128.915 51.8651 128.079 51.8651 127.06C51.8651 126.004 51.6231 125.161 51.1391 124.53C50.6625 123.899 49.9511 123.584 49.0051 123.584C48.3525 123.584 47.8171 123.731 47.3991 124.024C46.9811 124.317 46.6695 124.724 46.4641 125.245C46.2661 125.766 46.1671 126.371 46.1671 127.06C46.1671 128.123 46.4055 128.97 46.8821 129.601C47.3661 130.224 48.0738 130.536 49.0051 130.536ZM64.5801 133C63.7588 133.154 62.9521 133.22 62.1601 133.198C61.3754 133.183 60.6714 133.048 60.0481 132.791C59.4321 132.527 58.9628 132.105 58.6401 131.526C58.3468 130.983 58.1928 130.433 58.1781 129.876C58.1634 129.311 58.1561 128.673 58.1561 127.962V117.82H61.1481V127.786C61.1481 128.248 61.1518 128.666 61.1591 129.04C61.1738 129.407 61.2508 129.7 61.3901 129.92C61.6541 130.338 62.0758 130.565 62.6551 130.602C63.2344 130.639 63.8761 130.609 64.5801 130.514V133ZM56.1321 123.43V121.12H64.5801V123.43H56.1321ZM67.4475 119.47V116.83H70.4395V119.47H67.4475ZM67.4475 133V121.12H70.4395V133H67.4475ZM79.0833 133.33C77.8879 133.33 76.8393 133.062 75.9373 132.527C75.0353 131.992 74.3313 131.255 73.8253 130.316C73.3266 129.37 73.0773 128.285 73.0773 127.06C73.0773 125.821 73.3339 124.732 73.8473 123.793C74.3606 122.847 75.0683 122.11 75.9703 121.582C76.8723 121.054 77.9099 120.79 79.0833 120.79C80.2786 120.79 81.3273 121.058 82.2293 121.593C83.1386 122.128 83.8463 122.869 84.3523 123.815C84.8583 124.754 85.1113 125.835 85.1113 127.06C85.1113 128.292 84.8546 129.381 84.3413 130.327C83.8353 131.266 83.1276 132.003 82.2183 132.538C81.3163 133.066 80.2713 133.33 79.0833 133.33ZM79.0833 130.536C80.0439 130.536 80.7589 130.213 81.2283 129.568C81.7049 128.915 81.9433 128.079 81.9433 127.06C81.9433 126.004 81.7013 125.161 81.2173 124.53C80.7406 123.899 80.0293 123.584 79.0833 123.584C78.4306 123.584 77.8953 123.731 77.4773 124.024C77.0593 124.317 76.7476 124.724 76.5423 125.245C76.3443 125.766 76.2453 126.371 76.2453 127.06C76.2453 128.123 76.4836 128.97 76.9603 129.601C77.4443 130.224 78.1519 130.536 79.0833 130.536ZM95.6262 133V127.39C95.6262 127.119 95.6116 126.774 95.5822 126.356C95.5529 125.931 95.4612 125.505 95.3072 125.08C95.1532 124.655 94.9002 124.299 94.5482 124.013C94.2036 123.727 93.7122 123.584 93.0742 123.584C92.8176 123.584 92.5426 123.624 92.2492 123.705C91.9559 123.786 91.6809 123.943 91.4242 124.178C91.1676 124.405 90.9549 124.743 90.7862 125.19C90.6249 125.637 90.5442 126.231 90.5442 126.972L88.8282 126.158C88.8282 125.219 89.0189 124.339 89.4002 123.518C89.7816 122.697 90.3536 122.033 91.1162 121.527C91.8862 121.021 92.8542 120.768 94.0202 120.768C94.9516 120.768 95.7106 120.926 96.2972 121.241C96.8839 121.556 97.3386 121.956 97.6612 122.44C97.9912 122.924 98.2259 123.43 98.3652 123.958C98.5046 124.479 98.5889 124.955 98.6182 125.388C98.6476 125.821 98.6622 126.136 98.6622 126.334V133H95.6262ZM87.5082 133V121.12H90.1702V125.058H90.5442V133H87.5082ZM104.817 133.33C103.966 133.33 103.244 133.169 102.65 132.846C102.063 132.516 101.616 132.08 101.308 131.537C101.007 130.987 100.857 130.382 100.857 129.722C100.857 129.172 100.941 128.67 101.11 128.215C101.278 127.76 101.55 127.361 101.924 127.016C102.305 126.664 102.815 126.371 103.453 126.136C103.893 125.975 104.417 125.832 105.026 125.707C105.634 125.582 106.324 125.465 107.094 125.355C107.864 125.238 108.711 125.109 109.635 124.97L108.557 125.564C108.557 124.86 108.388 124.343 108.051 124.013C107.713 123.683 107.149 123.518 106.357 123.518C105.917 123.518 105.458 123.624 104.982 123.837C104.505 124.05 104.171 124.427 103.981 124.97L101.275 124.112C101.575 123.129 102.14 122.33 102.969 121.714C103.797 121.098 104.927 120.79 106.357 120.79C107.405 120.79 108.337 120.951 109.151 121.274C109.965 121.597 110.581 122.154 110.999 122.946C111.233 123.386 111.373 123.826 111.417 124.266C111.461 124.706 111.483 125.197 111.483 125.74V133H108.865V130.558L109.239 131.064C108.659 131.863 108.032 132.443 107.358 132.802C106.69 133.154 105.843 133.33 104.817 133.33ZM105.455 130.976C106.005 130.976 106.467 130.881 106.841 130.69C107.222 130.492 107.523 130.268 107.743 130.019C107.97 129.77 108.124 129.561 108.205 129.392C108.359 129.069 108.447 128.695 108.469 128.27C108.498 127.837 108.513 127.478 108.513 127.192L109.393 127.412C108.505 127.559 107.787 127.683 107.237 127.786C106.687 127.881 106.243 127.969 105.906 128.05C105.568 128.131 105.271 128.219 105.015 128.314C104.721 128.431 104.483 128.56 104.3 128.699C104.124 128.831 103.992 128.978 103.904 129.139C103.823 129.3 103.783 129.48 103.783 129.678C103.783 129.949 103.849 130.184 103.981 130.382C104.12 130.573 104.314 130.719 104.564 130.822C104.813 130.925 105.11 130.976 105.455 130.976ZM114.563 133V116.83H117.555V133H114.563ZM125.257 133V117.16H131.945C132.099 117.16 132.304 117.167 132.561 117.182C132.825 117.189 133.059 117.211 133.265 117.248C134.211 117.395 134.984 117.706 135.586 118.183C136.194 118.66 136.642 119.261 136.928 119.987C137.214 120.706 137.357 121.509 137.357 122.396C137.357 123.723 137.027 124.86 136.367 125.806C135.707 126.745 134.673 127.324 133.265 127.544L131.945 127.632H128.249V133H125.257ZM134.189 133L131.065 126.554L134.145 125.96L137.577 133H134.189ZM128.249 124.838H131.813C131.967 124.838 132.135 124.831 132.319 124.816C132.502 124.801 132.671 124.772 132.825 124.728C133.228 124.618 133.54 124.435 133.76 124.178C133.98 123.914 134.13 123.624 134.211 123.309C134.299 122.986 134.343 122.682 134.343 122.396C134.343 122.11 134.299 121.809 134.211 121.494C134.13 121.171 133.98 120.882 133.76 120.625C133.54 120.361 133.228 120.174 132.825 120.064C132.671 120.02 132.502 119.991 132.319 119.976C132.135 119.961 131.967 119.954 131.813 119.954H128.249V124.838ZM145.517 133.33C144.3 133.33 143.225 133.07 142.294 132.549C141.37 132.021 140.644 131.299 140.116 130.382C139.595 129.458 139.335 128.402 139.335 127.214C139.335 125.916 139.592 124.787 140.105 123.826C140.618 122.865 141.326 122.121 142.228 121.593C143.13 121.058 144.168 120.79 145.341 120.79C146.588 120.79 147.647 121.083 148.52 121.67C149.393 122.257 150.038 123.082 150.456 124.145C150.874 125.208 151.021 126.459 150.896 127.896H147.937V126.796C147.937 125.586 147.743 124.717 147.354 124.189C146.973 123.654 146.346 123.386 145.473 123.386C144.454 123.386 143.702 123.698 143.218 124.321C142.741 124.937 142.503 125.85 142.503 127.06C142.503 128.167 142.741 129.025 143.218 129.634C143.702 130.235 144.41 130.536 145.341 130.536C145.928 130.536 146.43 130.408 146.848 130.151C147.266 129.894 147.585 129.524 147.805 129.04L150.797 129.898C150.35 130.983 149.642 131.827 148.674 132.428C147.713 133.029 146.661 133.33 145.517 133.33ZM141.579 127.896V125.674H149.455V127.896H141.579ZM158.022 133.33C156.526 133.33 155.316 132.993 154.392 132.318C153.475 131.636 152.918 130.675 152.72 129.436L155.778 128.974C155.903 129.531 156.178 129.968 156.603 130.283C157.036 130.598 157.582 130.756 158.242 130.756C158.785 130.756 159.203 130.653 159.496 130.448C159.789 130.235 159.936 129.942 159.936 129.568C159.936 129.333 159.877 129.146 159.76 129.007C159.643 128.86 159.379 128.717 158.968 128.578C158.565 128.439 157.934 128.255 157.076 128.028C156.108 127.779 155.334 127.5 154.755 127.192C154.176 126.884 153.758 126.517 153.501 126.092C153.244 125.659 153.116 125.139 153.116 124.53C153.116 123.767 153.31 123.107 153.699 122.55C154.088 121.985 154.634 121.553 155.338 121.252C156.049 120.944 156.885 120.79 157.846 120.79C158.777 120.79 159.602 120.933 160.321 121.219C161.04 121.505 161.619 121.912 162.059 122.44C162.506 122.968 162.781 123.591 162.884 124.31L159.826 124.86C159.775 124.42 159.584 124.072 159.254 123.815C158.924 123.558 158.477 123.408 157.912 123.364C157.362 123.327 156.918 123.401 156.581 123.584C156.251 123.767 156.086 124.031 156.086 124.376C156.086 124.581 156.156 124.754 156.295 124.893C156.442 125.032 156.739 125.175 157.186 125.322C157.641 125.469 158.33 125.659 159.254 125.894C160.156 126.129 160.878 126.404 161.421 126.719C161.971 127.027 162.371 127.401 162.62 127.841C162.869 128.274 162.994 128.798 162.994 129.414C162.994 130.631 162.554 131.588 161.674 132.285C160.794 132.982 159.577 133.33 158.022 133.33ZM171.241 133.33C170.06 133.33 169.074 133.055 168.282 132.505C167.49 131.955 166.892 131.207 166.489 130.261C166.093 129.315 165.895 128.248 165.895 127.06C165.895 125.872 166.093 124.805 166.489 123.859C166.885 122.913 167.468 122.165 168.238 121.615C169.008 121.065 169.958 120.79 171.087 120.79C172.224 120.79 173.214 121.061 174.057 121.604C174.9 122.147 175.553 122.891 176.015 123.837C176.484 124.776 176.719 125.85 176.719 127.06C176.719 128.248 176.488 129.315 176.026 130.261C175.571 131.207 174.933 131.955 174.112 132.505C173.291 133.055 172.334 133.33 171.241 133.33ZM165.389 138.28V121.12H168.029V129.26H168.403V138.28H165.389ZM170.757 130.668C171.402 130.668 171.93 130.507 172.341 130.184C172.752 129.861 173.056 129.429 173.254 128.886C173.452 128.336 173.551 127.727 173.551 127.06C173.551 126.4 173.448 125.799 173.243 125.256C173.038 124.706 172.719 124.27 172.286 123.947C171.861 123.617 171.314 123.452 170.647 123.452C170.024 123.452 169.518 123.602 169.129 123.903C168.748 124.204 168.469 124.625 168.293 125.168C168.117 125.711 168.029 126.341 168.029 127.06C168.029 127.779 168.117 128.409 168.293 128.952C168.469 129.495 168.755 129.916 169.151 130.217C169.554 130.518 170.09 130.668 170.757 130.668ZM184.486 133.33C183.29 133.33 182.242 133.062 181.34 132.527C180.438 131.992 179.734 131.255 179.228 130.316C178.729 129.37 178.48 128.285 178.48 127.06C178.48 125.821 178.736 124.732 179.25 123.793C179.763 122.847 180.471 122.11 181.373 121.582C182.275 121.054 183.312 120.79 184.486 120.79C185.681 120.79 186.73 121.058 187.632 121.593C188.541 122.128 189.249 122.869 189.755 123.815C190.261 124.754 190.514 125.835 190.514 127.06C190.514 128.292 190.257 129.381 189.744 130.327C189.238 131.266 188.53 132.003 187.621 132.538C186.719 133.066 185.674 133.33 184.486 133.33ZM184.486 130.536C185.446 130.536 186.161 130.213 186.631 129.568C187.107 128.915 187.346 128.079 187.346 127.06C187.346 126.004 187.104 125.161 186.62 124.53C186.143 123.899 185.432 123.584 184.486 123.584C183.833 123.584 183.298 123.731 182.88 124.024C182.462 124.317 182.15 124.724 181.945 125.245C181.747 125.766 181.648 126.371 181.648 127.06C181.648 128.123 181.886 128.97 182.363 129.601C182.847 130.224 183.554 130.536 184.486 130.536ZM201.029 133V127.39C201.029 127.119 201.014 126.774 200.985 126.356C200.955 125.931 200.864 125.505 200.71 125.08C200.556 124.655 200.303 124.299 199.951 124.013C199.606 123.727 199.115 123.584 198.477 123.584C198.22 123.584 197.945 123.624 197.652 123.705C197.358 123.786 197.083 123.943 196.827 124.178C196.57 124.405 196.357 124.743 196.189 125.19C196.027 125.637 195.947 126.231 195.947 126.972L194.231 126.158C194.231 125.219 194.421 124.339 194.803 123.518C195.184 122.697 195.756 122.033 196.519 121.527C197.289 121.021 198.257 120.768 199.423 120.768C200.354 120.768 201.113 120.926 201.7 121.241C202.286 121.556 202.741 121.956 203.064 122.44C203.394 122.924 203.628 123.43 203.768 123.958C203.907 124.479 203.991 124.955 204.021 125.388C204.05 125.821 204.065 126.136 204.065 126.334V133H201.029ZM192.911 133V121.12H195.573V125.058H195.947V133H192.911ZM211.561 133.33C210.065 133.33 208.855 132.993 207.931 132.318C207.014 131.636 206.457 130.675 206.259 129.436L209.317 128.974C209.442 129.531 209.717 129.968 210.142 130.283C210.575 130.598 211.121 130.756 211.781 130.756C212.324 130.756 212.742 130.653 213.035 130.448C213.328 130.235 213.475 129.942 213.475 129.568C213.475 129.333 213.416 129.146 213.299 129.007C213.182 128.86 212.918 128.717 212.507 128.578C212.104 128.439 211.473 128.255 210.615 128.028C209.647 127.779 208.873 127.5 208.294 127.192C207.715 126.884 207.297 126.517 207.04 126.092C206.783 125.659 206.655 125.139 206.655 124.53C206.655 123.767 206.849 123.107 207.238 122.55C207.627 121.985 208.173 121.553 208.877 121.252C209.588 120.944 210.424 120.79 211.385 120.79C212.316 120.79 213.141 120.933 213.86 121.219C214.579 121.505 215.158 121.912 215.598 122.44C216.045 122.968 216.32 123.591 216.423 124.31L213.365 124.86C213.314 124.42 213.123 124.072 212.793 123.815C212.463 123.558 212.016 123.408 211.451 123.364C210.901 123.327 210.457 123.401 210.12 123.584C209.79 123.767 209.625 124.031 209.625 124.376C209.625 124.581 209.695 124.754 209.834 124.893C209.981 125.032 210.278 125.175 210.725 125.322C211.18 125.469 211.869 125.659 212.793 125.894C213.695 126.129 214.417 126.404 214.96 126.719C215.51 127.027 215.91 127.401 216.159 127.841C216.408 128.274 216.533 128.798 216.533 129.414C216.533 130.631 216.093 131.588 215.213 132.285C214.333 132.982 213.116 133.33 211.561 133.33ZM224.472 133.33C223.255 133.33 222.18 133.07 221.249 132.549C220.325 132.021 219.599 131.299 219.071 130.382C218.55 129.458 218.29 128.402 218.29 127.214C218.29 125.916 218.547 124.787 219.06 123.826C219.573 122.865 220.281 122.121 221.183 121.593C222.085 121.058 223.123 120.79 224.296 120.79C225.543 120.79 226.602 121.083 227.475 121.67C228.348 122.257 228.993 123.082 229.411 124.145C229.829 125.208 229.976 126.459 229.851 127.896H226.892V126.796C226.892 125.586 226.698 124.717 226.309 124.189C225.928 123.654 225.301 123.386 224.428 123.386C223.409 123.386 222.657 123.698 222.173 124.321C221.696 124.937 221.458 125.85 221.458 127.06C221.458 128.167 221.696 129.025 222.173 129.634C222.657 130.235 223.365 130.536 224.296 130.536C224.883 130.536 225.385 130.408 225.803 130.151C226.221 129.894 226.54 129.524 226.76 129.04L229.752 129.898C229.305 130.983 228.597 131.827 227.629 132.428C226.668 133.029 225.616 133.33 224.472 133.33ZM220.534 127.896V125.674H228.41V127.896H220.534Z" fill="#1A4555"/>
<path d="M26.8584 179V167.309H22.3314V166.04H32.7084V167.309H28.1814V179H26.8584ZM41.1716 179V174.041C41.1716 173.501 41.1206 173.006 41.0186 172.556C40.9166 172.1 40.7516 171.704 40.5236 171.368C40.3016 171.026 40.0106 170.762 39.6506 170.576C39.2966 170.39 38.8646 170.297 38.3546 170.297C37.8866 170.297 37.4726 170.378 37.1126 170.54C36.7586 170.702 36.4586 170.936 36.2126 171.242C35.9726 171.542 35.7896 171.908 35.6636 172.34C35.5376 172.772 35.4746 173.264 35.4746 173.816L34.5386 173.609C34.5386 172.613 34.7126 171.776 35.0606 171.098C35.4086 170.42 35.8886 169.907 36.5006 169.559C37.1126 169.211 37.8146 169.037 38.6066 169.037C39.1886 169.037 39.6956 169.127 40.1276 169.307C40.5656 169.487 40.9346 169.73 41.2346 170.036C41.5406 170.342 41.7866 170.693 41.9726 171.089C42.1586 171.479 42.2936 171.896 42.3776 172.34C42.4616 172.778 42.5036 173.216 42.5036 173.654V179H41.1716ZM34.1426 179V166.04H35.3396V173.357H35.4746V179H34.1426ZM48.9521 179.27C48.0041 179.27 47.1821 179.06 46.4861 178.64C45.7961 178.22 45.2591 177.629 44.8751 176.867C44.4911 176.105 44.2991 175.211 44.2991 174.185C44.2991 173.123 44.4881 172.205 44.8661 171.431C45.2441 170.657 45.7751 170.06 46.4591 169.64C47.1491 169.22 47.9621 169.01 48.8981 169.01C49.8581 169.01 50.6771 169.232 51.3551 169.676C52.0331 170.114 52.5461 170.744 52.8941 171.566C53.2421 172.388 53.4011 173.369 53.3711 174.509H52.0211V174.041C51.9971 172.781 51.7241 171.83 51.2021 171.188C50.6861 170.546 49.9301 170.225 48.9341 170.225C47.8901 170.225 47.0891 170.564 46.5311 171.242C45.9791 171.92 45.7031 172.886 45.7031 174.14C45.7031 175.364 45.9791 176.315 46.5311 176.993C47.0891 177.665 47.8781 178.001 48.8981 178.001C49.5941 178.001 50.2001 177.842 50.7161 177.524C51.2381 177.2 51.6491 176.735 51.9491 176.129L53.1821 176.606C52.7981 177.452 52.2311 178.109 51.4811 178.577C50.7371 179.039 49.8941 179.27 48.9521 179.27ZM45.2351 174.509V173.402H52.6601V174.509H45.2351ZM62.7429 179.27C61.8369 179.27 61.0629 179.045 60.4209 178.595C59.7789 178.139 59.2869 177.524 58.9449 176.75C58.6029 175.976 58.4319 175.103 58.4319 174.131C58.4319 173.165 58.5999 172.295 58.9359 171.521C59.2779 170.747 59.7669 170.135 60.4029 169.685C61.0389 169.235 61.8009 169.01 62.6889 169.01C63.6009 169.01 64.3689 169.232 64.9929 169.676C65.6169 170.12 66.0879 170.729 66.4059 171.503C66.7299 172.271 66.8919 173.147 66.8919 174.131C66.8919 175.097 66.7329 175.97 66.4149 176.75C66.0969 177.524 65.6289 178.139 65.0109 178.595C64.3929 179.045 63.6369 179.27 62.7429 179.27ZM62.8779 178.037C63.5679 178.037 64.1379 177.869 64.5879 177.533C65.0379 177.197 65.3739 176.735 65.5959 176.147C65.8179 175.553 65.9289 174.881 65.9289 174.131C65.9289 173.369 65.8179 172.697 65.5959 172.115C65.3739 171.527 65.0379 171.068 64.5879 170.738C64.1439 170.408 63.5829 170.243 62.9049 170.243C62.2089 170.243 61.6329 170.414 61.1769 170.756C60.7209 171.098 60.3819 171.563 60.1599 172.151C59.9439 172.739 59.8359 173.399 59.8359 174.131C59.8359 174.869 59.9469 175.535 60.1689 176.129C60.3969 176.717 60.7359 177.182 61.1859 177.524C61.6359 177.866 62.1999 178.037 62.8779 178.037ZM65.9289 179V171.683H65.7849V166.04H67.1169V179H65.9289ZM73.7548 179.27C72.8068 179.27 71.9848 179.06 71.2888 178.64C70.5988 178.22 70.0618 177.629 69.6778 176.867C69.2938 176.105 69.1018 175.211 69.1018 174.185C69.1018 173.123 69.2908 172.205 69.6688 171.431C70.0468 170.657 70.5778 170.06 71.2618 169.64C71.9518 169.22 72.7648 169.01 73.7008 169.01C74.6608 169.01 75.4798 169.232 76.1578 169.676C76.8358 170.114 77.3488 170.744 77.6968 171.566C78.0448 172.388 78.2038 173.369 78.1738 174.509H76.8238V174.041C76.7998 172.781 76.5268 171.83 76.0048 171.188C75.4888 170.546 74.7328 170.225 73.7368 170.225C72.6928 170.225 71.8918 170.564 71.3338 171.242C70.7818 171.92 70.5058 172.886 70.5058 174.14C70.5058 175.364 70.7818 176.315 71.3338 176.993C71.8918 177.665 72.6808 178.001 73.7008 178.001C74.3968 178.001 75.0028 177.842 75.5188 177.524C76.0408 177.2 76.4518 176.735 76.7518 176.129L77.9848 176.606C77.6008 177.452 77.0338 178.109 76.2838 178.577C75.5398 179.039 74.6968 179.27 73.7548 179.27ZM70.0378 174.509V173.402H77.4628V174.509H70.0378ZM83.7981 179.261C82.6581 179.261 81.7191 179.015 80.9811 178.523C80.2491 178.031 79.7991 177.347 79.6311 176.471L80.9811 176.246C81.1251 176.798 81.4521 177.239 81.9621 177.569C82.4781 177.893 83.1141 178.055 83.8701 178.055C84.6081 178.055 85.1901 177.902 85.6161 177.596C86.0421 177.284 86.2551 176.861 86.2551 176.327C86.2551 176.027 86.1861 175.784 86.0481 175.598C85.9161 175.406 85.6431 175.229 85.2291 175.067C84.8151 174.905 84.1971 174.713 83.3751 174.491C82.4931 174.251 81.8031 174.011 81.3051 173.771C80.8071 173.531 80.4531 173.255 80.2431 172.943C80.0331 172.625 79.9281 172.238 79.9281 171.782C79.9281 171.23 80.0841 170.747 80.3961 170.333C80.7081 169.913 81.1401 169.589 81.6921 169.361C82.2441 169.127 82.8861 169.01 83.6181 169.01C84.3501 169.01 85.0041 169.13 85.5801 169.37C86.1621 169.604 86.6301 169.934 86.9841 170.36C87.3381 170.786 87.5481 171.281 87.6141 171.845L86.2641 172.088C86.1741 171.518 85.8891 171.068 85.4091 170.738C84.9351 170.402 84.3321 170.228 83.6001 170.216C82.9101 170.198 82.3491 170.33 81.9171 170.612C81.4851 170.888 81.2691 171.257 81.2691 171.719C81.2691 171.977 81.3471 172.199 81.5031 172.385C81.6591 172.565 81.9411 172.736 82.3491 172.898C82.7631 173.06 83.3511 173.237 84.1131 173.429C85.0071 173.657 85.7091 173.897 86.2191 174.149C86.7291 174.401 87.0921 174.698 87.3081 175.04C87.5241 175.382 87.6321 175.805 87.6321 176.309C87.6321 177.227 87.2901 177.95 86.6061 178.478C85.9281 179 84.9921 179.261 83.7981 179.261ZM89.8082 167.435V165.95H91.1312V167.435H89.8082ZM89.8082 179V169.28H91.1312V179H89.8082ZM97.6903 183.59C97.1923 183.59 96.7003 183.515 96.2143 183.365C95.7343 183.221 95.2903 182.99 94.8823 182.672C94.4743 182.36 94.1323 181.952 93.8563 181.448L95.0533 180.782C95.3233 181.322 95.7013 181.709 96.1873 181.943C96.6793 182.183 97.1803 182.303 97.6903 182.303C98.3923 182.303 98.9593 182.171 99.3913 181.907C99.8293 181.649 100.147 181.265 100.345 180.755C100.543 180.245 100.639 179.609 100.633 178.847V176.255H100.786V169.28H101.965V178.865C101.965 179.141 101.956 179.405 101.938 179.657C101.926 179.915 101.899 180.167 101.857 180.413C101.743 181.139 101.506 181.736 101.146 182.204C100.792 182.672 100.324 183.02 99.7423 183.248C99.1663 183.476 98.4823 183.59 97.6903 183.59ZM97.6003 179.27C96.6943 179.27 95.9203 179.045 95.2783 178.595C94.6363 178.139 94.1443 177.524 93.8023 176.75C93.4603 175.976 93.2893 175.103 93.2893 174.131C93.2893 173.165 93.4573 172.295 93.7933 171.521C94.1353 170.747 94.6243 170.135 95.2603 169.685C95.8963 169.235 96.6583 169.01 97.5463 169.01C98.4583 169.01 99.2263 169.232 99.8503 169.676C100.474 170.12 100.945 170.729 101.263 171.503C101.587 172.271 101.749 173.147 101.749 174.131C101.749 175.097 101.59 175.97 101.272 176.75C100.954 177.524 100.486 178.139 99.8683 178.595C99.2503 179.045 98.4943 179.27 97.6003 179.27ZM97.7353 178.037C98.4253 178.037 98.9953 177.869 99.4453 177.533C99.8953 177.197 100.231 176.735 100.453 176.147C100.675 175.553 100.786 174.881 100.786 174.131C100.786 173.369 100.675 172.697 100.453 172.115C100.231 171.527 99.8953 171.068 99.4453 170.738C99.0013 170.408 98.4403 170.243 97.7623 170.243C97.0663 170.243 96.4903 170.414 96.0343 170.756C95.5783 171.098 95.2393 171.563 95.0173 172.151C94.8013 172.739 94.6933 173.399 94.6933 174.131C94.6933 174.869 94.8043 175.535 95.0263 176.129C95.2543 176.717 95.5933 177.182 96.0433 177.524C96.4933 177.866 97.0573 178.037 97.7353 178.037ZM111.502 179V174.041C111.502 173.501 111.451 173.006 111.349 172.556C111.247 172.1 111.082 171.704 110.854 171.368C110.632 171.026 110.341 170.762 109.981 170.576C109.627 170.39 109.195 170.297 108.685 170.297C108.217 170.297 107.803 170.378 107.443 170.54C107.089 170.702 106.789 170.936 106.543 171.242C106.303 171.542 106.12 171.908 105.994 172.34C105.868 172.772 105.805 173.264 105.805 173.816L104.869 173.609C104.869 172.613 105.043 171.776 105.391 171.098C105.739 170.42 106.219 169.907 106.831 169.559C107.443 169.211 108.145 169.037 108.937 169.037C109.519 169.037 110.026 169.127 110.458 169.307C110.896 169.487 111.265 169.73 111.565 170.036C111.871 170.342 112.117 170.693 112.303 171.089C112.489 171.479 112.624 171.896 112.708 172.34C112.792 172.778 112.834 173.216 112.834 173.654V179H111.502ZM104.473 179V169.28H105.67V171.674H105.805V179H104.473ZM120.843 179L117.873 169.271L119.196 169.28L121.5 176.831L123.813 169.28H125.019L127.332 176.831L129.654 169.28H130.968L127.998 179H126.846L124.416 171.26L121.995 179H120.843ZM134.825 179.27C134.093 179.27 133.478 179.138 132.98 178.874C132.488 178.61 132.119 178.259 131.873 177.821C131.627 177.383 131.504 176.906 131.504 176.39C131.504 175.862 131.609 175.412 131.819 175.04C132.035 174.662 132.326 174.353 132.692 174.113C133.064 173.873 133.493 173.69 133.979 173.564C134.471 173.444 135.014 173.339 135.608 173.249C136.208 173.153 136.793 173.072 137.363 173.006C137.939 172.934 138.443 172.865 138.875 172.799L138.407 173.087C138.425 172.127 138.239 171.416 137.849 170.954C137.459 170.492 136.781 170.261 135.815 170.261C135.149 170.261 134.585 170.411 134.123 170.711C133.667 171.011 133.346 171.485 133.16 172.133L131.873 171.755C132.095 170.885 132.542 170.21 133.214 169.73C133.886 169.25 134.759 169.01 135.833 169.01C136.721 169.01 137.474 169.178 138.092 169.514C138.716 169.844 139.157 170.324 139.415 170.954C139.535 171.236 139.613 171.551 139.649 171.899C139.685 172.247 139.703 172.601 139.703 172.961V179H138.524V176.561L138.866 176.705C138.536 177.539 138.023 178.175 137.327 178.613C136.631 179.051 135.797 179.27 134.825 179.27ZM134.978 178.127C135.596 178.127 136.136 178.016 136.598 177.794C137.06 177.572 137.432 177.269 137.714 176.885C137.996 176.495 138.179 176.057 138.263 175.571C138.335 175.259 138.374 174.917 138.38 174.545C138.386 174.167 138.389 173.885 138.389 173.699L138.893 173.96C138.443 174.02 137.954 174.08 137.426 174.14C136.904 174.2 136.388 174.269 135.878 174.347C135.374 174.425 134.918 174.518 134.51 174.626C134.234 174.704 133.967 174.815 133.709 174.959C133.451 175.097 133.238 175.283 133.07 175.517C132.908 175.751 132.827 176.042 132.827 176.39C132.827 176.672 132.896 176.945 133.034 177.209C133.178 177.473 133.406 177.692 133.718 177.866C134.036 178.04 134.456 178.127 134.978 178.127ZM145.673 179.261C144.533 179.261 143.594 179.015 142.856 178.523C142.124 178.031 141.674 177.347 141.506 176.471L142.856 176.246C143 176.798 143.327 177.239 143.837 177.569C144.353 177.893 144.989 178.055 145.745 178.055C146.483 178.055 147.065 177.902 147.491 177.596C147.917 177.284 148.13 176.861 148.13 176.327C148.13 176.027 148.061 175.784 147.923 175.598C147.791 175.406 147.518 175.229 147.104 175.067C146.69 174.905 146.072 174.713 145.25 174.491C144.368 174.251 143.678 174.011 143.18 173.771C142.682 173.531 142.328 173.255 142.118 172.943C141.908 172.625 141.803 172.238 141.803 171.782C141.803 171.23 141.959 170.747 142.271 170.333C142.583 169.913 143.015 169.589 143.567 169.361C144.119 169.127 144.761 169.01 145.493 169.01C146.225 169.01 146.879 169.13 147.455 169.37C148.037 169.604 148.505 169.934 148.859 170.36C149.213 170.786 149.423 171.281 149.489 171.845L148.139 172.088C148.049 171.518 147.764 171.068 147.284 170.738C146.81 170.402 146.207 170.228 145.475 170.216C144.785 170.198 144.224 170.33 143.792 170.612C143.36 170.888 143.144 171.257 143.144 171.719C143.144 171.977 143.222 172.199 143.378 172.385C143.534 172.565 143.816 172.736 144.224 172.898C144.638 173.06 145.226 173.237 145.988 173.429C146.882 173.657 147.584 173.897 148.094 174.149C148.604 174.401 148.967 174.698 149.183 175.04C149.399 175.382 149.507 175.805 149.507 176.309C149.507 177.227 149.165 177.95 148.481 178.478C147.803 179 146.867 179.261 145.673 179.261ZM158.734 179.261C157.594 179.261 156.655 179.015 155.917 178.523C155.185 178.031 154.735 177.347 154.567 176.471L155.917 176.246C156.061 176.798 156.388 177.239 156.898 177.569C157.414 177.893 158.05 178.055 158.806 178.055C159.544 178.055 160.126 177.902 160.552 177.596C160.978 177.284 161.191 176.861 161.191 176.327C161.191 176.027 161.122 175.784 160.984 175.598C160.852 175.406 160.579 175.229 160.165 175.067C159.751 174.905 159.133 174.713 158.311 174.491C157.429 174.251 156.739 174.011 156.241 173.771C155.743 173.531 155.389 173.255 155.179 172.943C154.969 172.625 154.864 172.238 154.864 171.782C154.864 171.23 155.02 170.747 155.332 170.333C155.644 169.913 156.076 169.589 156.628 169.361C157.18 169.127 157.822 169.01 158.554 169.01C159.286 169.01 159.94 169.13 160.516 169.37C161.098 169.604 161.566 169.934 161.92 170.36C162.274 170.786 162.484 171.281 162.55 171.845L161.2 172.088C161.11 171.518 160.825 171.068 160.345 170.738C159.871 170.402 159.268 170.228 158.536 170.216C157.846 170.198 157.285 170.33 156.853 170.612C156.421 170.888 156.205 171.257 156.205 171.719C156.205 171.977 156.283 172.199 156.439 172.385C156.595 172.565 156.877 172.736 157.285 172.898C157.699 173.06 158.287 173.237 159.049 173.429C159.943 173.657 160.645 173.897 161.155 174.149C161.665 174.401 162.028 174.698 162.244 175.04C162.46 175.382 162.568 175.805 162.568 176.309C162.568 177.227 162.226 177.95 161.542 178.478C160.864 179 159.928 179.261 158.734 179.261ZM168.677 179.27C167.729 179.27 166.907 179.06 166.211 178.64C165.521 178.22 164.984 177.629 164.6 176.867C164.216 176.105 164.024 175.211 164.024 174.185C164.024 173.123 164.213 172.205 164.591 171.431C164.969 170.657 165.5 170.06 166.184 169.64C166.874 169.22 167.687 169.01 168.623 169.01C169.583 169.01 170.402 169.232 171.08 169.676C171.758 170.114 172.271 170.744 172.619 171.566C172.967 172.388 173.126 173.369 173.096 174.509H171.746V174.041C171.722 172.781 171.449 171.83 170.927 171.188C170.411 170.546 169.655 170.225 168.659 170.225C167.615 170.225 166.814 170.564 166.256 171.242C165.704 171.92 165.428 172.886 165.428 174.14C165.428 175.364 165.704 176.315 166.256 176.993C166.814 177.665 167.603 178.001 168.623 178.001C169.319 178.001 169.925 177.842 170.441 177.524C170.963 177.2 171.374 176.735 171.674 176.129L172.907 176.606C172.523 177.452 171.956 178.109 171.206 178.577C170.462 179.039 169.619 179.27 168.677 179.27ZM164.96 174.509V173.402H172.385V174.509H164.96ZM179.206 179.27C178.258 179.27 177.436 179.06 176.74 178.64C176.05 178.22 175.513 177.629 175.129 176.867C174.745 176.105 174.553 175.211 174.553 174.185C174.553 173.123 174.742 172.205 175.12 171.431C175.498 170.657 176.029 170.06 176.713 169.64C177.403 169.22 178.216 169.01 179.152 169.01C180.112 169.01 180.931 169.232 181.609 169.676C182.287 170.114 182.8 170.744 183.148 171.566C183.496 172.388 183.655 173.369 183.625 174.509H182.275V174.041C182.251 172.781 181.978 171.83 181.456 171.188C180.94 170.546 180.184 170.225 179.188 170.225C178.144 170.225 177.343 170.564 176.785 171.242C176.233 171.92 175.957 172.886 175.957 174.14C175.957 175.364 176.233 176.315 176.785 176.993C177.343 177.665 178.132 178.001 179.152 178.001C179.848 178.001 180.454 177.842 180.97 177.524C181.492 177.2 181.903 176.735 182.203 176.129L183.436 176.606C183.052 177.452 182.485 178.109 181.735 178.577C180.991 179.039 180.148 179.27 179.206 179.27ZM175.489 174.509V173.402H182.914V174.509H175.489ZM192.379 179V174.041C192.379 173.501 192.328 173.006 192.226 172.556C192.124 172.1 191.959 171.704 191.731 171.368C191.509 171.026 191.218 170.762 190.858 170.576C190.504 170.39 190.072 170.297 189.562 170.297C189.094 170.297 188.68 170.378 188.32 170.54C187.966 170.702 187.666 170.936 187.42 171.242C187.18 171.542 186.997 171.908 186.871 172.34C186.745 172.772 186.682 173.264 186.682 173.816L185.746 173.609C185.746 172.613 185.92 171.776 186.268 171.098C186.616 170.42 187.096 169.907 187.708 169.559C188.32 169.211 189.022 169.037 189.814 169.037C190.396 169.037 190.903 169.127 191.335 169.307C191.773 169.487 192.142 169.73 192.442 170.036C192.748 170.342 192.994 170.693 193.18 171.089C193.366 171.479 193.501 171.896 193.585 172.34C193.669 172.778 193.711 173.216 193.711 173.654V179H192.379ZM185.35 179V169.28H186.547V171.674H186.682V179H185.35ZM202.431 179.27C201.699 179.27 201.084 179.138 200.586 178.874C200.094 178.61 199.725 178.259 199.479 177.821C199.233 177.383 199.11 176.906 199.11 176.39C199.11 175.862 199.215 175.412 199.425 175.04C199.641 174.662 199.932 174.353 200.298 174.113C200.67 173.873 201.099 173.69 201.585 173.564C202.077 173.444 202.62 173.339 203.214 173.249C203.814 173.153 204.399 173.072 204.969 173.006C205.545 172.934 206.049 172.865 206.481 172.799L206.013 173.087C206.031 172.127 205.845 171.416 205.455 170.954C205.065 170.492 204.387 170.261 203.421 170.261C202.755 170.261 202.191 170.411 201.729 170.711C201.273 171.011 200.952 171.485 200.766 172.133L199.479 171.755C199.701 170.885 200.148 170.21 200.82 169.73C201.492 169.25 202.365 169.01 203.439 169.01C204.327 169.01 205.08 169.178 205.698 169.514C206.322 169.844 206.763 170.324 207.021 170.954C207.141 171.236 207.219 171.551 207.255 171.899C207.291 172.247 207.309 172.601 207.309 172.961V179H206.13V176.561L206.472 176.705C206.142 177.539 205.629 178.175 204.933 178.613C204.237 179.051 203.403 179.27 202.431 179.27ZM202.584 178.127C203.202 178.127 203.742 178.016 204.204 177.794C204.666 177.572 205.038 177.269 205.32 176.885C205.602 176.495 205.785 176.057 205.869 175.571C205.941 175.259 205.98 174.917 205.986 174.545C205.992 174.167 205.995 173.885 205.995 173.699L206.499 173.96C206.049 174.02 205.56 174.08 205.032 174.14C204.51 174.2 203.994 174.269 203.484 174.347C202.98 174.425 202.524 174.518 202.116 174.626C201.84 174.704 201.573 174.815 201.315 174.959C201.057 175.097 200.844 175.283 200.676 175.517C200.514 175.751 200.433 176.042 200.433 176.39C200.433 176.672 200.502 176.945 200.64 177.209C200.784 177.473 201.012 177.692 201.324 177.866C201.642 178.04 202.062 178.127 202.584 178.127ZM213.279 179.261C212.139 179.261 211.2 179.015 210.462 178.523C209.73 178.031 209.28 177.347 209.112 176.471L210.462 176.246C210.606 176.798 210.933 177.239 211.443 177.569C211.959 177.893 212.595 178.055 213.351 178.055C214.089 178.055 214.671 177.902 215.097 177.596C215.523 177.284 215.736 176.861 215.736 176.327C215.736 176.027 215.667 175.784 215.529 175.598C215.397 175.406 215.124 175.229 214.71 175.067C214.296 174.905 213.678 174.713 212.856 174.491C211.974 174.251 211.284 174.011 210.786 173.771C210.288 173.531 209.934 173.255 209.724 172.943C209.514 172.625 209.409 172.238 209.409 171.782C209.409 171.23 209.565 170.747 209.877 170.333C210.189 169.913 210.621 169.589 211.173 169.361C211.725 169.127 212.367 169.01 213.099 169.01C213.831 169.01 214.485 169.13 215.061 169.37C215.643 169.604 216.111 169.934 216.465 170.36C216.819 170.786 217.029 171.281 217.095 171.845L215.745 172.088C215.655 171.518 215.37 171.068 214.89 170.738C214.416 170.402 213.813 170.228 213.081 170.216C212.391 170.198 211.83 170.33 211.398 170.612C210.966 170.888 210.75 171.257 210.75 171.719C210.75 171.977 210.828 172.199 210.984 172.385C211.14 172.565 211.422 172.736 211.83 172.898C212.244 173.06 212.832 173.237 213.594 173.429C214.488 173.657 215.19 173.897 215.7 174.149C216.21 174.401 216.573 174.698 216.789 175.04C217.005 175.382 217.113 175.805 217.113 176.309C217.113 177.227 216.771 177.95 216.087 178.478C215.409 179 214.473 179.261 213.279 179.261ZM35.6379 203C35.0919 203.114 34.5519 203.159 34.0179 203.135C33.4899 203.111 33.0159 202.997 32.5959 202.793C32.1819 202.589 31.8669 202.271 31.6509 201.839C31.4769 201.479 31.3809 201.116 31.3629 200.75C31.3509 200.378 31.3449 199.955 31.3449 199.481V190.58H32.6589V199.427C32.6589 199.835 32.6619 200.177 32.6679 200.453C32.6799 200.723 32.7429 200.963 32.8569 201.173C33.0729 201.575 33.4149 201.815 33.8829 201.893C34.3569 201.971 34.9419 201.953 35.6379 201.839V203ZM29.2659 194.414V193.28H35.6379V194.414H29.2659ZM37.553 203V193.28H38.741V195.62L38.507 195.314C38.615 195.026 38.756 194.762 38.93 194.522C39.104 194.276 39.293 194.075 39.497 193.919C39.749 193.697 40.043 193.529 40.379 193.415C40.715 193.295 41.054 193.226 41.396 193.208C41.738 193.184 42.05 193.208 42.332 193.28V194.522C41.978 194.432 41.591 194.411 41.171 194.459C40.751 194.507 40.364 194.675 40.01 194.963C39.686 195.215 39.443 195.518 39.281 195.872C39.119 196.22 39.011 196.592 38.957 196.988C38.903 197.378 38.876 197.765 38.876 198.149V203H37.553ZM46.4512 203.27C45.7192 203.27 45.1042 203.138 44.6062 202.874C44.1142 202.61 43.7452 202.259 43.4992 201.821C43.2532 201.383 43.1302 200.906 43.1302 200.39C43.1302 199.862 43.2352 199.412 43.4452 199.04C43.6612 198.662 43.9522 198.353 44.3182 198.113C44.6902 197.873 45.1192 197.69 45.6052 197.564C46.0972 197.444 46.6402 197.339 47.2342 197.249C47.8342 197.153 48.4192 197.072 48.9892 197.006C49.5652 196.934 50.0692 196.865 50.5012 196.799L50.0332 197.087C50.0512 196.127 49.8652 195.416 49.4752 194.954C49.0852 194.492 48.4072 194.261 47.4412 194.261C46.7752 194.261 46.2112 194.411 45.7492 194.711C45.2932 195.011 44.9722 195.485 44.7862 196.133L43.4992 195.755C43.7212 194.885 44.1682 194.21 44.8402 193.73C45.5122 193.25 46.3852 193.01 47.4592 193.01C48.3472 193.01 49.1002 193.178 49.7182 193.514C50.3422 193.844 50.7832 194.324 51.0412 194.954C51.1612 195.236 51.2392 195.551 51.2752 195.899C51.3112 196.247 51.3292 196.601 51.3292 196.961V203H50.1502V200.561L50.4922 200.705C50.1622 201.539 49.6492 202.175 48.9532 202.613C48.2572 203.051 47.4232 203.27 46.4512 203.27ZM46.6042 202.127C47.2222 202.127 47.7622 202.016 48.2242 201.794C48.6862 201.572 49.0582 201.269 49.3402 200.885C49.6222 200.495 49.8052 200.057 49.8892 199.571C49.9612 199.259 50.0002 198.917 50.0062 198.545C50.0122 198.167 50.0152 197.885 50.0152 197.699L50.5192 197.96C50.0692 198.02 49.5802 198.08 49.0522 198.14C48.5302 198.2 48.0142 198.269 47.5042 198.347C47.0002 198.425 46.5442 198.518 46.1362 198.626C45.8602 198.704 45.5932 198.815 45.3352 198.959C45.0772 199.097 44.8642 199.283 44.6962 199.517C44.5342 199.751 44.4532 200.042 44.4532 200.39C44.4532 200.672 44.5222 200.945 44.6602 201.209C44.8042 201.473 45.0322 201.692 45.3442 201.866C45.6622 202.04 46.0822 202.127 46.6042 202.127ZM60.6921 203V198.041C60.6921 197.501 60.6411 197.006 60.5391 196.556C60.4371 196.1 60.2721 195.704 60.0441 195.368C59.8221 195.026 59.5311 194.762 59.1711 194.576C58.8171 194.39 58.3851 194.297 57.8751 194.297C57.4071 194.297 56.9931 194.378 56.6331 194.54C56.2791 194.702 55.9791 194.936 55.7331 195.242C55.4931 195.542 55.3101 195.908 55.1841 196.34C55.0581 196.772 54.9951 197.264 54.9951 197.816L54.0591 197.609C54.0591 196.613 54.2331 195.776 54.5811 195.098C54.9291 194.42 55.4091 193.907 56.0211 193.559C56.6331 193.211 57.3351 193.037 58.1271 193.037C58.7091 193.037 59.2161 193.127 59.6481 193.307C60.0861 193.487 60.4551 193.73 60.7551 194.036C61.0611 194.342 61.3071 194.693 61.4931 195.089C61.6791 195.479 61.8141 195.896 61.8981 196.34C61.9821 196.778 62.0241 197.216 62.0241 197.654V203H60.6921ZM53.6631 203V193.28H54.8601V195.674H54.9951V203H53.6631ZM67.9866 203.261C66.8466 203.261 65.9076 203.015 65.1696 202.523C64.4376 202.031 63.9876 201.347 63.8196 200.471L65.1696 200.246C65.3136 200.798 65.6406 201.239 66.1506 201.569C66.6666 201.893 67.3026 202.055 68.0586 202.055C68.7966 202.055 69.3786 201.902 69.8046 201.596C70.2306 201.284 70.4436 200.861 70.4436 200.327C70.4436 200.027 70.3746 199.784 70.2366 199.598C70.1046 199.406 69.8316 199.229 69.4176 199.067C69.0036 198.905 68.3856 198.713 67.5636 198.491C66.6816 198.251 65.9916 198.011 65.4936 197.771C64.9956 197.531 64.6416 197.255 64.4316 196.943C64.2216 196.625 64.1166 196.238 64.1166 195.782C64.1166 195.23 64.2726 194.747 64.5846 194.333C64.8966 193.913 65.3286 193.589 65.8806 193.361C66.4326 193.127 67.0746 193.01 67.8066 193.01C68.5386 193.01 69.1926 193.13 69.7686 193.37C70.3506 193.604 70.8186 193.934 71.1726 194.36C71.5266 194.786 71.7366 195.281 71.8026 195.845L70.4526 196.088C70.3626 195.518 70.0776 195.068 69.5976 194.738C69.1236 194.402 68.5206 194.228 67.7886 194.216C67.0986 194.198 66.5376 194.33 66.1056 194.612C65.6736 194.888 65.4576 195.257 65.4576 195.719C65.4576 195.977 65.5356 196.199 65.6916 196.385C65.8476 196.565 66.1296 196.736 66.5376 196.898C66.9516 197.06 67.5396 197.237 68.3016 197.429C69.1956 197.657 69.8976 197.897 70.4076 198.149C70.9176 198.401 71.2806 198.698 71.4966 199.04C71.7126 199.382 71.8206 199.805 71.8206 200.309C71.8206 201.227 71.4786 201.95 70.7946 202.478C70.1166 203 69.1806 203.261 67.9866 203.261ZM78.1816 203.27C77.2876 203.27 76.5316 203.045 75.9136 202.595C75.2956 202.139 74.8276 201.524 74.5096 200.75C74.1916 199.97 74.0326 199.097 74.0326 198.131C74.0326 197.147 74.1916 196.271 74.5096 195.503C74.8336 194.729 75.3076 194.12 75.9316 193.676C76.5556 193.232 77.3236 193.01 78.2356 193.01C79.1236 193.01 79.8856 193.235 80.5216 193.685C81.1576 194.135 81.6436 194.747 81.9796 195.521C82.3216 196.295 82.4926 197.165 82.4926 198.131C82.4926 199.103 82.3216 199.976 81.9796 200.75C81.6376 201.524 81.1456 202.139 80.5036 202.595C79.8616 203.045 79.0876 203.27 78.1816 203.27ZM73.8076 207.32V193.28H74.9956V200.597H75.1396V207.32H73.8076ZM78.0466 202.037C78.7246 202.037 79.2886 201.866 79.7386 201.524C80.1886 201.182 80.5246 200.717 80.7466 200.129C80.9746 199.535 81.0886 198.869 81.0886 198.131C81.0886 197.399 80.9776 196.739 80.7556 196.151C80.5336 195.563 80.1946 195.098 79.7386 194.756C79.2886 194.414 78.7156 194.243 78.0196 194.243C77.3416 194.243 76.7776 194.408 76.3276 194.738C75.8836 195.068 75.5506 195.527 75.3286 196.115C75.1066 196.697 74.9956 197.369 74.9956 198.131C74.9956 198.881 75.1066 199.553 75.3286 200.147C75.5506 200.735 75.8866 201.197 76.3366 201.533C76.7866 201.869 77.3566 202.037 78.0466 202.037ZM87.25 203.27C86.518 203.27 85.903 203.138 85.405 202.874C84.913 202.61 84.544 202.259 84.298 201.821C84.052 201.383 83.929 200.906 83.929 200.39C83.929 199.862 84.034 199.412 84.244 199.04C84.46 198.662 84.751 198.353 85.117 198.113C85.489 197.873 85.918 197.69 86.404 197.564C86.896 197.444 87.439 197.339 88.033 197.249C88.633 197.153 89.218 197.072 89.788 197.006C90.364 196.934 90.868 196.865 91.3 196.799L90.832 197.087C90.85 196.127 90.664 195.416 90.274 194.954C89.884 194.492 89.206 194.261 88.24 194.261C87.574 194.261 87.01 194.411 86.548 194.711C86.092 195.011 85.771 195.485 85.585 196.133L84.298 195.755C84.52 194.885 84.967 194.21 85.639 193.73C86.311 193.25 87.184 193.01 88.258 193.01C89.146 193.01 89.899 193.178 90.517 193.514C91.141 193.844 91.582 194.324 91.84 194.954C91.96 195.236 92.038 195.551 92.074 195.899C92.11 196.247 92.128 196.601 92.128 196.961V203H90.949V200.561L91.291 200.705C90.961 201.539 90.448 202.175 89.752 202.613C89.056 203.051 88.222 203.27 87.25 203.27ZM87.403 202.127C88.021 202.127 88.561 202.016 89.023 201.794C89.485 201.572 89.857 201.269 90.139 200.885C90.421 200.495 90.604 200.057 90.688 199.571C90.76 199.259 90.799 198.917 90.805 198.545C90.811 198.167 90.814 197.885 90.814 197.699L91.318 197.96C90.868 198.02 90.379 198.08 89.851 198.14C89.329 198.2 88.813 198.269 88.303 198.347C87.799 198.425 87.343 198.518 86.935 198.626C86.659 198.704 86.392 198.815 86.134 198.959C85.876 199.097 85.663 199.283 85.495 199.517C85.333 199.751 85.252 200.042 85.252 200.39C85.252 200.672 85.321 200.945 85.459 201.209C85.603 201.473 85.831 201.692 86.143 201.866C86.461 202.04 86.881 202.127 87.403 202.127ZM94.4709 203V193.28H95.6589V195.62L95.4249 195.314C95.5329 195.026 95.6739 194.762 95.8479 194.522C96.0219 194.276 96.2109 194.075 96.4149 193.919C96.6669 193.697 96.9609 193.529 97.2969 193.415C97.6329 193.295 97.9719 193.226 98.3139 193.208C98.6559 193.184 98.9679 193.208 99.2499 193.28V194.522C98.8959 194.432 98.5089 194.411 98.0889 194.459C97.6689 194.507 97.2819 194.675 96.9279 194.963C96.6039 195.215 96.3609 195.518 96.1989 195.872C96.0369 196.22 95.9289 196.592 95.8749 196.988C95.8209 197.378 95.7939 197.765 95.7939 198.149V203H94.4709ZM104.894 203.27C103.946 203.27 103.124 203.06 102.428 202.64C101.738 202.22 101.201 201.629 100.817 200.867C100.433 200.105 100.241 199.211 100.241 198.185C100.241 197.123 100.43 196.205 100.808 195.431C101.186 194.657 101.717 194.06 102.401 193.64C103.091 193.22 103.904 193.01 104.84 193.01C105.8 193.01 106.619 193.232 107.297 193.676C107.975 194.114 108.488 194.744 108.836 195.566C109.184 196.388 109.343 197.369 109.313 198.509H107.963V198.041C107.939 196.781 107.666 195.83 107.144 195.188C106.628 194.546 105.872 194.225 104.876 194.225C103.832 194.225 103.031 194.564 102.473 195.242C101.921 195.92 101.645 196.886 101.645 198.14C101.645 199.364 101.921 200.315 102.473 200.993C103.031 201.665 103.82 202.001 104.84 202.001C105.536 202.001 106.142 201.842 106.658 201.524C107.18 201.2 107.591 200.735 107.891 200.129L109.124 200.606C108.74 201.452 108.173 202.109 107.423 202.577C106.679 203.039 105.836 203.27 104.894 203.27ZM101.177 198.509V197.402H108.602V198.509H101.177ZM118.067 203V198.041C118.067 197.501 118.016 197.006 117.914 196.556C117.812 196.1 117.647 195.704 117.419 195.368C117.197 195.026 116.906 194.762 116.546 194.576C116.192 194.39 115.76 194.297 115.25 194.297C114.782 194.297 114.368 194.378 114.008 194.54C113.654 194.702 113.354 194.936 113.108 195.242C112.868 195.542 112.685 195.908 112.559 196.34C112.433 196.772 112.37 197.264 112.37 197.816L111.434 197.609C111.434 196.613 111.608 195.776 111.956 195.098C112.304 194.42 112.784 193.907 113.396 193.559C114.008 193.211 114.71 193.037 115.502 193.037C116.084 193.037 116.591 193.127 117.023 193.307C117.461 193.487 117.83 193.73 118.13 194.036C118.436 194.342 118.682 194.693 118.868 195.089C119.054 195.479 119.189 195.896 119.273 196.34C119.357 196.778 119.399 197.216 119.399 197.654V203H118.067ZM111.038 203V193.28H112.235V195.674H112.37V203H111.038ZM127.027 203C126.481 203.114 125.941 203.159 125.407 203.135C124.879 203.111 124.405 202.997 123.985 202.793C123.571 202.589 123.256 202.271 123.04 201.839C122.866 201.479 122.77 201.116 122.752 200.75C122.74 200.378 122.734 199.955 122.734 199.481V190.58H124.048V199.427C124.048 199.835 124.051 200.177 124.057 200.453C124.069 200.723 124.132 200.963 124.246 201.173C124.462 201.575 124.804 201.815 125.272 201.893C125.746 201.971 126.331 201.953 127.027 201.839V203ZM120.655 194.414V193.28H127.027V194.414H120.655ZM135.326 203.27C134.594 203.27 133.979 203.138 133.481 202.874C132.989 202.61 132.62 202.259 132.374 201.821C132.128 201.383 132.005 200.906 132.005 200.39C132.005 199.862 132.11 199.412 132.32 199.04C132.536 198.662 132.827 198.353 133.193 198.113C133.565 197.873 133.994 197.69 134.48 197.564C134.972 197.444 135.515 197.339 136.109 197.249C136.709 197.153 137.294 197.072 137.864 197.006C138.44 196.934 138.944 196.865 139.376 196.799L138.908 197.087C138.926 196.127 138.74 195.416 138.35 194.954C137.96 194.492 137.282 194.261 136.316 194.261C135.65 194.261 135.086 194.411 134.624 194.711C134.168 195.011 133.847 195.485 133.661 196.133L132.374 195.755C132.596 194.885 133.043 194.21 133.715 193.73C134.387 193.25 135.26 193.01 136.334 193.01C137.222 193.01 137.975 193.178 138.593 193.514C139.217 193.844 139.658 194.324 139.916 194.954C140.036 195.236 140.114 195.551 140.15 195.899C140.186 196.247 140.204 196.601 140.204 196.961V203H139.025V200.561L139.367 200.705C139.037 201.539 138.524 202.175 137.828 202.613C137.132 203.051 136.298 203.27 135.326 203.27ZM135.479 202.127C136.097 202.127 136.637 202.016 137.099 201.794C137.561 201.572 137.933 201.269 138.215 200.885C138.497 200.495 138.68 200.057 138.764 199.571C138.836 199.259 138.875 198.917 138.881 198.545C138.887 198.167 138.89 197.885 138.89 197.699L139.394 197.96C138.944 198.02 138.455 198.08 137.927 198.14C137.405 198.2 136.889 198.269 136.379 198.347C135.875 198.425 135.419 198.518 135.011 198.626C134.735 198.704 134.468 198.815 134.21 198.959C133.952 199.097 133.739 199.283 133.571 199.517C133.409 199.751 133.328 200.042 133.328 200.39C133.328 200.672 133.397 200.945 133.535 201.209C133.679 201.473 133.907 201.692 134.219 201.866C134.537 202.04 134.957 202.127 135.479 202.127ZM149.567 203V198.041C149.567 197.501 149.516 197.006 149.414 196.556C149.312 196.1 149.147 195.704 148.919 195.368C148.697 195.026 148.406 194.762 148.046 194.576C147.692 194.39 147.26 194.297 146.75 194.297C146.282 194.297 145.868 194.378 145.508 194.54C145.154 194.702 144.854 194.936 144.608 195.242C144.368 195.542 144.185 195.908 144.059 196.34C143.933 196.772 143.87 197.264 143.87 197.816L142.934 197.609C142.934 196.613 143.108 195.776 143.456 195.098C143.804 194.42 144.284 193.907 144.896 193.559C145.508 193.211 146.21 193.037 147.002 193.037C147.584 193.037 148.091 193.127 148.523 193.307C148.961 193.487 149.33 193.73 149.63 194.036C149.936 194.342 150.182 194.693 150.368 195.089C150.554 195.479 150.689 195.896 150.773 196.34C150.857 196.778 150.899 197.216 150.899 197.654V203H149.567ZM142.538 203V193.28H143.735V195.674H143.87V203H142.538ZM156.953 203.27C156.047 203.27 155.273 203.045 154.631 202.595C153.989 202.139 153.497 201.524 153.155 200.75C152.813 199.976 152.642 199.103 152.642 198.131C152.642 197.165 152.81 196.295 153.146 195.521C153.488 194.747 153.977 194.135 154.613 193.685C155.249 193.235 156.011 193.01 156.899 193.01C157.811 193.01 158.579 193.232 159.203 193.676C159.827 194.12 160.298 194.729 160.616 195.503C160.94 196.271 161.102 197.147 161.102 198.131C161.102 199.097 160.943 199.97 160.625 200.75C160.307 201.524 159.839 202.139 159.221 202.595C158.603 203.045 157.847 203.27 156.953 203.27ZM157.088 202.037C157.778 202.037 158.348 201.869 158.798 201.533C159.248 201.197 159.584 200.735 159.806 200.147C160.028 199.553 160.139 198.881 160.139 198.131C160.139 197.369 160.028 196.697 159.806 196.115C159.584 195.527 159.248 195.068 158.798 194.738C158.354 194.408 157.793 194.243 157.115 194.243C156.419 194.243 155.843 194.414 155.387 194.756C154.931 195.098 154.592 195.563 154.37 196.151C154.154 196.739 154.046 197.399 154.046 198.131C154.046 198.869 154.157 199.535 154.379 200.129C154.607 200.717 154.946 201.182 155.396 201.524C155.846 201.866 156.41 202.037 157.088 202.037ZM160.139 203V195.683H159.995V190.04H161.327V203H160.139ZM171.172 203.243C170.59 203.243 170.08 203.153 169.642 202.973C169.21 202.793 168.841 202.55 168.535 202.244C168.235 201.938 167.992 201.59 167.806 201.2C167.62 200.804 167.485 200.387 167.401 199.949C167.317 199.505 167.275 199.064 167.275 198.626V193.28H168.607V198.239C168.607 198.773 168.658 199.268 168.76 199.724C168.862 200.18 169.024 200.579 169.246 200.921C169.474 201.257 169.765 201.518 170.119 201.704C170.479 201.89 170.914 201.983 171.424 201.983C171.892 201.983 172.303 201.902 172.657 201.74C173.017 201.578 173.317 201.347 173.557 201.047C173.803 200.741 173.989 200.372 174.115 199.94C174.241 199.502 174.304 199.01 174.304 198.464L175.24 198.671C175.24 199.667 175.066 200.504 174.718 201.182C174.37 201.86 173.89 202.373 173.278 202.721C172.666 203.069 171.964 203.243 171.172 203.243ZM174.439 203V200.606H174.304V193.28H175.627V203H174.439ZM181.77 203.261C180.63 203.261 179.691 203.015 178.953 202.523C178.221 202.031 177.771 201.347 177.603 200.471L178.953 200.246C179.097 200.798 179.424 201.239 179.934 201.569C180.45 201.893 181.086 202.055 181.842 202.055C182.58 202.055 183.162 201.902 183.588 201.596C184.014 201.284 184.227 200.861 184.227 200.327C184.227 200.027 184.158 199.784 184.02 199.598C183.888 199.406 183.615 199.229 183.201 199.067C182.787 198.905 182.169 198.713 181.347 198.491C180.465 198.251 179.775 198.011 179.277 197.771C178.779 197.531 178.425 197.255 178.215 196.943C178.005 196.625 177.9 196.238 177.9 195.782C177.9 195.23 178.056 194.747 178.368 194.333C178.68 193.913 179.112 193.589 179.664 193.361C180.216 193.127 180.858 193.01 181.59 193.01C182.322 193.01 182.976 193.13 183.552 193.37C184.134 193.604 184.602 193.934 184.956 194.36C185.31 194.786 185.52 195.281 185.586 195.845L184.236 196.088C184.146 195.518 183.861 195.068 183.381 194.738C182.907 194.402 182.304 194.228 181.572 194.216C180.882 194.198 180.321 194.33 179.889 194.612C179.457 194.888 179.241 195.257 179.241 195.719C179.241 195.977 179.319 196.199 179.475 196.385C179.631 196.565 179.913 196.736 180.321 196.898C180.735 197.06 181.323 197.237 182.085 197.429C182.979 197.657 183.681 197.897 184.191 198.149C184.701 198.401 185.064 198.698 185.28 199.04C185.496 199.382 185.604 199.805 185.604 200.309C185.604 201.227 185.262 201.95 184.578 202.478C183.9 203 182.964 203.261 181.77 203.261ZM191.713 203.27C190.765 203.27 189.943 203.06 189.247 202.64C188.557 202.22 188.02 201.629 187.636 200.867C187.252 200.105 187.06 199.211 187.06 198.185C187.06 197.123 187.249 196.205 187.627 195.431C188.005 194.657 188.536 194.06 189.22 193.64C189.91 193.22 190.723 193.01 191.659 193.01C192.619 193.01 193.438 193.232 194.116 193.676C194.794 194.114 195.307 194.744 195.655 195.566C196.003 196.388 196.162 197.369 196.132 198.509H194.782V198.041C194.758 196.781 194.485 195.83 193.963 195.188C193.447 194.546 192.691 194.225 191.695 194.225C190.651 194.225 189.85 194.564 189.292 195.242C188.74 195.92 188.464 196.886 188.464 198.14C188.464 199.364 188.74 200.315 189.292 200.993C189.85 201.665 190.639 202.001 191.659 202.001C192.355 202.001 192.961 201.842 193.477 201.524C193.999 201.2 194.41 200.735 194.71 200.129L195.943 200.606C195.559 201.452 194.992 202.109 194.242 202.577C193.498 203.039 192.655 203.27 191.713 203.27ZM187.996 198.509V197.402H195.421V198.509H187.996ZM198.129 203V193.28H199.317V195.62L199.083 195.314C199.191 195.026 199.332 194.762 199.506 194.522C199.68 194.276 199.869 194.075 200.073 193.919C200.325 193.697 200.619 193.529 200.955 193.415C201.291 193.295 201.63 193.226 201.972 193.208C202.314 193.184 202.626 193.208 202.908 193.28V194.522C202.554 194.432 202.167 194.411 201.747 194.459C201.327 194.507 200.94 194.675 200.586 194.963C200.262 195.215 200.019 195.518 199.857 195.872C199.695 196.22 199.587 196.592 199.533 196.988C199.479 197.378 199.452 197.765 199.452 198.149V203H198.129ZM204.435 197.897V196.763H209.835V197.897H204.435ZM2.4105 227V216.56C2.4105 216.308 2.4225 216.059 2.4465 215.813C2.4765 215.567 2.5335 215.333 2.6175 215.111C2.7015 214.883 2.8335 214.673 3.0135 214.481C3.2115 214.265 3.4275 214.109 3.6615 214.013C3.8955 213.911 4.1385 213.845 4.3905 213.815C4.6485 213.785 4.9005 213.77 5.1465 213.77H6.3885V214.886H5.2365C4.7325 214.886 4.3545 215.009 4.1025 215.255C3.8565 215.501 3.7335 215.888 3.7335 216.416V227H2.4105ZM0.7275 218.414V217.28H6.3885V218.414H0.7275ZM7.82836 227V217.28H9.01636V219.62L8.78236 219.314C8.89036 219.026 9.03136 218.762 9.20536 218.522C9.37936 218.276 9.56836 218.075 9.77236 217.919C10.0244 217.697 10.3184 217.529 10.6544 217.415C10.9904 217.295 11.3294 217.226 11.6714 217.208C12.0134 217.184 12.3254 217.208 12.6074 217.28V218.522C12.2534 218.432 11.8664 218.411 11.4464 218.459C11.0264 218.507 10.6394 218.675 10.2854 218.963C9.96136 219.215 9.71836 219.518 9.55636 219.872C9.39436 220.22 9.28636 220.592 9.23236 220.988C9.17836 221.378 9.15136 221.765 9.15136 222.149V227H7.82836ZM14.4947 215.435V213.95H15.8177V215.435H14.4947ZM14.4947 227V217.28H15.8177V227H14.4947ZM22.6289 227.27C21.6809 227.27 20.8589 227.06 20.1629 226.64C19.4729 226.22 18.9359 225.629 18.5519 224.867C18.1679 224.105 17.9759 223.211 17.9759 222.185C17.9759 221.123 18.1649 220.205 18.5429 219.431C18.9209 218.657 19.4519 218.06 20.1359 217.64C20.8259 217.22 21.6389 217.01 22.5749 217.01C23.5349 217.01 24.3539 217.232 25.0319 217.676C25.7099 218.114 26.2229 218.744 26.5709 219.566C26.9189 220.388 27.0779 221.369 27.0479 222.509H25.6979V222.041C25.6739 220.781 25.4009 219.83 24.8789 219.188C24.3629 218.546 23.6069 218.225 22.6109 218.225C21.5669 218.225 20.7659 218.564 20.2079 219.242C19.6559 219.92 19.3799 220.886 19.3799 222.14C19.3799 223.364 19.6559 224.315 20.2079 224.993C20.7659 225.665 21.5549 226.001 22.5749 226.001C23.2709 226.001 23.8769 225.842 24.3929 225.524C24.9149 225.2 25.3259 224.735 25.6259 224.129L26.8589 224.606C26.4749 225.452 25.9079 226.109 25.1579 226.577C24.4139 227.039 23.5709 227.27 22.6289 227.27ZM18.9119 222.509V221.402H26.3369V222.509H18.9119ZM35.8015 227V222.041C35.8015 221.501 35.7505 221.006 35.6485 220.556C35.5465 220.1 35.3815 219.704 35.1535 219.368C34.9315 219.026 34.6405 218.762 34.2805 218.576C33.9265 218.39 33.4945 218.297 32.9845 218.297C32.5165 218.297 32.1025 218.378 31.7425 218.54C31.3885 218.702 31.0885 218.936 30.8425 219.242C30.6025 219.542 30.4195 219.908 30.2935 220.34C30.1675 220.772 30.1045 221.264 30.1045 221.816L29.1685 221.609C29.1685 220.613 29.3425 219.776 29.6905 219.098C30.0385 218.42 30.5185 217.907 31.1305 217.559C31.7425 217.211 32.4445 217.037 33.2365 217.037C33.8185 217.037 34.3255 217.127 34.7575 217.307C35.1955 217.487 35.5645 217.73 35.8645 218.036C36.1705 218.342 36.4165 218.693 36.6025 219.089C36.7885 219.479 36.9235 219.896 37.0075 220.34C37.0915 220.778 37.1335 221.216 37.1335 221.654V227H35.8015ZM28.7725 227V217.28H29.9695V219.674H30.1045V227H28.7725ZM43.1873 227.27C42.2813 227.27 41.5073 227.045 40.8653 226.595C40.2233 226.139 39.7313 225.524 39.3893 224.75C39.0473 223.976 38.8763 223.103 38.8763 222.131C38.8763 221.165 39.0443 220.295 39.3803 219.521C39.7223 218.747 40.2113 218.135 40.8473 217.685C41.4833 217.235 42.2453 217.01 43.1333 217.01C44.0453 217.01 44.8133 217.232 45.4373 217.676C46.0613 218.12 46.5323 218.729 46.8503 219.503C47.1743 220.271 47.3363 221.147 47.3363 222.131C47.3363 223.097 47.1773 223.97 46.8593 224.75C46.5413 225.524 46.0733 226.139 45.4553 226.595C44.8373 227.045 44.0813 227.27 43.1873 227.27ZM43.3223 226.037C44.0123 226.037 44.5823 225.869 45.0323 225.533C45.4823 225.197 45.8183 224.735 46.0403 224.147C46.2623 223.553 46.3733 222.881 46.3733 222.131C46.3733 221.369 46.2623 220.697 46.0403 220.115C45.8183 219.527 45.4823 219.068 45.0323 218.738C44.5883 218.408 44.0273 218.243 43.3493 218.243C42.6533 218.243 42.0773 218.414 41.6213 218.756C41.1653 219.098 40.8263 219.563 40.6043 220.151C40.3883 220.739 40.2803 221.399 40.2803 222.131C40.2803 222.869 40.3913 223.535 40.6133 224.129C40.8413 224.717 41.1803 225.182 41.6303 225.524C42.0803 225.866 42.6443 226.037 43.3223 226.037ZM46.3733 227V219.683H46.2293V214.04H47.5613V227H46.3733ZM50.2662 227V213.77H51.5892V227H50.2662ZM55.6733 231.32L57.5543 226.217L57.5813 227.729L53.3243 217.28H54.7283L58.2203 226.019H57.6443L60.8663 217.28H62.2163L56.9963 231.32H55.6733ZM62.1581 228.881L62.2391 228.224C62.4791 228.242 62.6531 228.194 62.7611 228.08C62.8691 227.966 62.9351 227.813 62.9591 227.621C62.9831 227.429 62.9891 227.222 62.9771 227H62.1581V225.101H63.6971V227.36C63.6971 227.912 63.5561 228.326 63.2741 228.602C62.9981 228.878 62.6261 228.971 62.1581 228.881ZM74.8359 227.27C73.8879 227.27 73.0659 227.06 72.3699 226.64C71.6799 226.22 71.1429 225.629 70.7589 224.867C70.3749 224.105 70.1829 223.211 70.1829 222.185C70.1829 221.123 70.3719 220.205 70.7499 219.431C71.1279 218.657 71.6589 218.06 72.3429 217.64C73.0329 217.22 73.8459 217.01 74.7819 217.01C75.7419 217.01 76.5609 217.232 77.2389 217.676C77.9169 218.114 78.4299 218.744 78.7779 219.566C79.1259 220.388 79.2849 221.369 79.2549 222.509H77.9049V222.041C77.8809 220.781 77.6079 219.83 77.0859 219.188C76.5699 218.546 75.8139 218.225 74.8179 218.225C73.7739 218.225 72.9729 218.564 72.4149 219.242C71.8629 219.92 71.5869 220.886 71.5869 222.14C71.5869 223.364 71.8629 224.315 72.4149 224.993C72.9729 225.665 73.7619 226.001 74.7819 226.001C75.4779 226.001 76.0839 225.842 76.5999 225.524C77.1219 225.2 77.5329 224.735 77.8329 224.129L79.0659 224.606C78.6819 225.452 78.1149 226.109 77.3649 226.577C76.6209 227.039 75.7779 227.27 74.8359 227.27ZM71.1189 222.509V221.402H78.5439V222.509H71.1189ZM84.8792 227.261C83.7392 227.261 82.8002 227.015 82.0622 226.523C81.3302 226.031 80.8802 225.347 80.7122 224.471L82.0622 224.246C82.2062 224.798 82.5332 225.239 83.0432 225.569C83.5592 225.893 84.1952 226.055 84.9512 226.055C85.6892 226.055 86.2712 225.902 86.6972 225.596C87.1232 225.284 87.3362 224.861 87.3362 224.327C87.3362 224.027 87.2672 223.784 87.1292 223.598C86.9972 223.406 86.7242 223.229 86.3102 223.067C85.8962 222.905 85.2782 222.713 84.4562 222.491C83.5742 222.251 82.8842 222.011 82.3862 221.771C81.8882 221.531 81.5342 221.255 81.3242 220.943C81.1142 220.625 81.0092 220.238 81.0092 219.782C81.0092 219.23 81.1652 218.747 81.4772 218.333C81.7892 217.913 82.2212 217.589 82.7732 217.361C83.3252 217.127 83.9672 217.01 84.6992 217.01C85.4312 217.01 86.0852 217.13 86.6612 217.37C87.2432 217.604 87.7112 217.934 88.0652 218.36C88.4192 218.786 88.6292 219.281 88.6952 219.845L87.3452 220.088C87.2552 219.518 86.9702 219.068 86.4902 218.738C86.0162 218.402 85.4132 218.228 84.6812 218.216C83.9912 218.198 83.4302 218.33 82.9982 218.612C82.5662 218.888 82.3502 219.257 82.3502 219.719C82.3502 219.977 82.4282 220.199 82.5842 220.385C82.7402 220.565 83.0222 220.736 83.4302 220.898C83.8442 221.06 84.4322 221.237 85.1942 221.429C86.0882 221.657 86.7902 221.897 87.3002 222.149C87.8102 222.401 88.1732 222.698 88.3892 223.04C88.6052 223.382 88.7132 223.805 88.7132 224.309C88.7132 225.227 88.3712 225.95 87.6872 226.478C87.0092 227 86.0732 227.261 84.8792 227.261ZM95.0742 227.27C94.1802 227.27 93.4242 227.045 92.8062 226.595C92.1882 226.139 91.7202 225.524 91.4022 224.75C91.0842 223.97 90.9252 223.097 90.9252 222.131C90.9252 221.147 91.0842 220.271 91.4022 219.503C91.7262 218.729 92.2002 218.12 92.8242 217.676C93.4482 217.232 94.2162 217.01 95.1282 217.01C96.0162 217.01 96.7782 217.235 97.4142 217.685C98.0502 218.135 98.5362 218.747 98.8722 219.521C99.2142 220.295 99.3852 221.165 99.3852 222.131C99.3852 223.103 99.2142 223.976 98.8722 224.75C98.5302 225.524 98.0382 226.139 97.3962 226.595C96.7542 227.045 95.9802 227.27 95.0742 227.27ZM90.7002 231.32V217.28H91.8882V224.597H92.0322V231.32H90.7002ZM94.9392 226.037C95.6172 226.037 96.1812 225.866 96.6312 225.524C97.0812 225.182 97.4172 224.717 97.6392 224.129C97.8672 223.535 97.9812 222.869 97.9812 222.131C97.9812 221.399 97.8702 220.739 97.6482 220.151C97.4262 219.563 97.0872 219.098 96.6312 218.756C96.1812 218.414 95.6082 218.243 94.9122 218.243C94.2342 218.243 93.6702 218.408 93.2202 218.738C92.7762 219.068 92.4432 219.527 92.2212 220.115C91.9992 220.697 91.8882 221.369 91.8882 222.131C91.8882 222.881 91.9992 223.553 92.2212 224.147C92.4432 224.735 92.7792 225.197 93.2292 225.533C93.6792 225.869 94.2492 226.037 94.9392 226.037ZM105.475 227.27C104.527 227.27 103.705 227.06 103.009 226.64C102.319 226.22 101.782 225.629 101.398 224.867C101.014 224.105 100.822 223.211 100.822 222.185C100.822 221.123 101.011 220.205 101.389 219.431C101.767 218.657 102.298 218.06 102.982 217.64C103.672 217.22 104.485 217.01 105.421 217.01C106.381 217.01 107.2 217.232 107.878 217.676C108.556 218.114 109.069 218.744 109.417 219.566C109.765 220.388 109.924 221.369 109.894 222.509H108.544V222.041C108.52 220.781 108.247 219.83 107.725 219.188C107.209 218.546 106.453 218.225 105.457 218.225C104.413 218.225 103.612 218.564 103.054 219.242C102.502 219.92 102.226 220.886 102.226 222.14C102.226 223.364 102.502 224.315 103.054 224.993C103.612 225.665 104.401 226.001 105.421 226.001C106.117 226.001 106.723 225.842 107.239 225.524C107.761 225.2 108.172 224.735 108.472 224.129L109.705 224.606C109.321 225.452 108.754 226.109 108.004 226.577C107.26 227.039 106.417 227.27 105.475 227.27ZM101.758 222.509V221.402H109.183V222.509H101.758ZM115.923 227.27C114.945 227.27 114.117 227.051 113.439 226.613C112.761 226.175 112.245 225.572 111.891 224.804C111.543 224.03 111.363 223.142 111.351 222.14C111.363 221.12 111.549 220.226 111.909 219.458C112.269 218.684 112.788 218.084 113.466 217.658C114.144 217.226 114.966 217.01 115.932 217.01C116.916 217.01 117.771 217.25 118.497 217.73C119.229 218.21 119.73 218.867 120 219.701L118.704 220.115C118.476 219.533 118.113 219.083 117.615 218.765C117.123 218.441 116.559 218.279 115.923 218.279C115.209 218.279 114.618 218.444 114.15 218.774C113.682 219.098 113.334 219.551 113.106 220.133C112.878 220.715 112.761 221.384 112.755 222.14C112.767 223.304 113.037 224.24 113.565 224.948C114.093 225.65 114.879 226.001 115.923 226.001C116.583 226.001 117.144 225.851 117.606 225.551C118.074 225.245 118.428 224.801 118.668 224.219L120 224.615C119.64 225.479 119.112 226.139 118.416 226.595C117.72 227.045 116.889 227.27 115.923 227.27ZM121.774 215.435V213.95H123.097V215.435H121.774ZM121.774 227V217.28H123.097V227H121.774ZM128.576 227.27C127.844 227.27 127.229 227.138 126.731 226.874C126.239 226.61 125.87 226.259 125.624 225.821C125.378 225.383 125.255 224.906 125.255 224.39C125.255 223.862 125.36 223.412 125.57 223.04C125.786 222.662 126.077 222.353 126.443 222.113C126.815 221.873 127.244 221.69 127.73 221.564C128.222 221.444 128.765 221.339 129.359 221.249C129.959 221.153 130.544 221.072 131.114 221.006C131.69 220.934 132.194 220.865 132.626 220.799L132.158 221.087C132.176 220.127 131.99 219.416 131.6 218.954C131.21 218.492 130.532 218.261 129.566 218.261C128.9 218.261 128.336 218.411 127.874 218.711C127.418 219.011 127.097 219.485 126.911 220.133L125.624 219.755C125.846 218.885 126.293 218.21 126.965 217.73C127.637 217.25 128.51 217.01 129.584 217.01C130.472 217.01 131.225 217.178 131.843 217.514C132.467 217.844 132.908 218.324 133.166 218.954C133.286 219.236 133.364 219.551 133.4 219.899C133.436 220.247 133.454 220.601 133.454 220.961V227H132.275V224.561L132.617 224.705C132.287 225.539 131.774 226.175 131.078 226.613C130.382 227.051 129.548 227.27 128.576 227.27ZM128.729 226.127C129.347 226.127 129.887 226.016 130.349 225.794C130.811 225.572 131.183 225.269 131.465 224.885C131.747 224.495 131.93 224.057 132.014 223.571C132.086 223.259 132.125 222.917 132.131 222.545C132.137 222.167 132.14 221.885 132.14 221.699L132.644 221.96C132.194 222.02 131.705 222.08 131.177 222.14C130.655 222.2 130.139 222.269 129.629 222.347C129.125 222.425 128.669 222.518 128.261 222.626C127.985 222.704 127.718 222.815 127.46 222.959C127.202 223.097 126.989 223.283 126.821 223.517C126.659 223.751 126.578 224.042 126.578 224.39C126.578 224.672 126.647 224.945 126.785 225.209C126.929 225.473 127.157 225.692 127.469 225.866C127.787 226.04 128.207 226.127 128.729 226.127ZM135.977 227V213.77H137.3V227H135.977ZM140.178 227V213.77H141.501V227H140.178ZM145.585 231.32L147.466 226.217L147.493 227.729L143.236 217.28H144.64L148.132 226.019H147.556L150.778 217.28H152.128L146.908 231.32H145.585ZM161.327 227.27C160.349 227.27 159.521 227.051 158.843 226.613C158.165 226.175 157.649 225.572 157.295 224.804C156.947 224.03 156.767 223.142 156.755 222.14C156.767 221.12 156.953 220.226 157.313 219.458C157.673 218.684 158.192 218.084 158.87 217.658C159.548 217.226 160.37 217.01 161.336 217.01C162.32 217.01 163.175 217.25 163.901 217.73C164.633 218.21 165.134 218.867 165.404 219.701L164.108 220.115C163.88 219.533 163.517 219.083 163.019 218.765C162.527 218.441 161.963 218.279 161.327 218.279C160.613 218.279 160.022 218.444 159.554 218.774C159.086 219.098 158.738 219.551 158.51 220.133C158.282 220.715 158.165 221.384 158.159 222.14C158.171 223.304 158.441 224.24 158.969 224.948C159.497 225.65 160.283 226.001 161.327 226.001C161.987 226.001 162.548 225.851 163.01 225.551C163.478 225.245 163.832 224.801 164.072 224.219L165.404 224.615C165.044 225.479 164.516 226.139 163.82 226.595C163.124 227.045 162.293 227.27 161.327 227.27ZM171.057 227.27C170.091 227.27 169.266 227.051 168.582 226.613C167.898 226.175 167.373 225.569 167.007 224.795C166.641 224.021 166.458 223.133 166.458 222.131C166.458 221.111 166.644 220.217 167.016 219.449C167.388 218.681 167.916 218.084 168.6 217.658C169.29 217.226 170.109 217.01 171.057 217.01C172.029 217.01 172.857 217.229 173.541 217.667C174.231 218.099 174.756 218.702 175.116 219.476C175.482 220.244 175.665 221.129 175.665 222.131C175.665 223.151 175.482 224.048 175.116 224.822C174.75 225.59 174.222 226.19 173.532 226.622C172.842 227.054 172.017 227.27 171.057 227.27ZM171.057 226.001C172.137 226.001 172.941 225.644 173.469 224.93C173.997 224.21 174.261 223.277 174.261 222.131C174.261 220.955 173.994 220.019 173.46 219.323C172.932 218.627 172.131 218.279 171.057 218.279C170.331 218.279 169.731 218.444 169.257 218.774C168.789 219.098 168.438 219.551 168.204 220.133C167.976 220.709 167.862 221.375 167.862 222.131C167.862 223.301 168.132 224.24 168.672 224.948C169.212 225.65 170.007 226.001 171.057 226.001ZM189.243 227L189.252 220.619C189.252 219.869 189.042 219.281 188.622 218.855C188.208 218.423 187.68 218.207 187.038 218.207C186.672 218.207 186.315 218.291 185.967 218.459C185.619 218.627 185.331 218.897 185.103 219.269C184.881 219.641 184.77 220.127 184.77 220.727L183.987 220.502C183.969 219.806 184.104 219.197 184.392 218.675C184.686 218.153 185.088 217.748 185.598 217.46C186.114 217.166 186.696 217.019 187.344 217.019C188.322 217.019 189.105 217.322 189.693 217.928C190.281 218.528 190.575 219.341 190.575 220.367L190.566 227H189.243ZM177.642 227V217.28H178.83V219.674H178.974V227H177.642ZM183.456 227L183.465 220.709C183.465 219.935 183.258 219.326 182.844 218.882C182.436 218.432 181.896 218.207 181.224 218.207C180.552 218.207 180.009 218.438 179.595 218.9C179.181 219.356 178.974 219.965 178.974 220.727L178.182 220.295C178.182 219.671 178.329 219.113 178.623 218.621C178.917 218.123 179.319 217.733 179.829 217.451C180.339 217.163 180.918 217.019 181.566 217.019C182.184 217.019 182.733 217.151 183.213 217.415C183.699 217.679 184.08 218.063 184.356 218.567C184.632 219.071 184.77 219.683 184.77 220.403L184.761 227H183.456ZM197.273 227.27C196.379 227.27 195.623 227.045 195.005 226.595C194.387 226.139 193.919 225.524 193.601 224.75C193.283 223.97 193.124 223.097 193.124 222.131C193.124 221.147 193.283 220.271 193.601 219.503C193.925 218.729 194.399 218.12 195.023 217.676C195.647 217.232 196.415 217.01 197.327 217.01C198.215 217.01 198.977 217.235 199.613 217.685C200.249 218.135 200.735 218.747 201.071 219.521C201.413 220.295 201.584 221.165 201.584 222.131C201.584 223.103 201.413 223.976 201.071 224.75C200.729 225.524 200.237 226.139 199.595 226.595C198.953 227.045 198.179 227.27 197.273 227.27ZM192.899 231.32V217.28H194.087V224.597H194.231V231.32H192.899ZM197.138 226.037C197.816 226.037 198.38 225.866 198.83 225.524C199.28 225.182 199.616 224.717 199.838 224.129C200.066 223.535 200.18 222.869 200.18 222.131C200.18 221.399 200.069 220.739 199.847 220.151C199.625 219.563 199.286 219.098 198.83 218.756C198.38 218.414 197.807 218.243 197.111 218.243C196.433 218.243 195.869 218.408 195.419 218.738C194.975 219.068 194.642 219.527 194.42 220.115C194.198 220.697 194.087 221.369 194.087 222.131C194.087 222.881 194.198 223.553 194.42 224.147C194.642 224.735 194.978 225.197 195.428 225.533C195.878 225.869 196.448 226.037 197.138 226.037ZM206.342 227.27C205.61 227.27 204.995 227.138 204.497 226.874C204.005 226.61 203.636 226.259 203.39 225.821C203.144 225.383 203.021 224.906 203.021 224.39C203.021 223.862 203.126 223.412 203.336 223.04C203.552 222.662 203.843 222.353 204.209 222.113C204.581 221.873 205.01 221.69 205.496 221.564C205.988 221.444 206.531 221.339 207.125 221.249C207.725 221.153 208.31 221.072 208.88 221.006C209.456 220.934 209.96 220.865 210.392 220.799L209.924 221.087C209.942 220.127 209.756 219.416 209.366 218.954C208.976 218.492 208.298 218.261 207.332 218.261C206.666 218.261 206.102 218.411 205.64 218.711C205.184 219.011 204.863 219.485 204.677 220.133L203.39 219.755C203.612 218.885 204.059 218.21 204.731 217.73C205.403 217.25 206.276 217.01 207.35 217.01C208.238 217.01 208.991 217.178 209.609 217.514C210.233 217.844 210.674 218.324 210.932 218.954C211.052 219.236 211.13 219.551 211.166 219.899C211.202 220.247 211.22 220.601 211.22 220.961V227H210.041V224.561L210.383 224.705C210.053 225.539 209.54 226.175 208.844 226.613C208.148 227.051 207.314 227.27 206.342 227.27ZM206.495 226.127C207.113 226.127 207.653 226.016 208.115 225.794C208.577 225.572 208.949 225.269 209.231 224.885C209.513 224.495 209.696 224.057 209.78 223.571C209.852 223.259 209.891 222.917 209.897 222.545C209.903 222.167 209.906 221.885 209.906 221.699L210.41 221.96C209.96 222.02 209.471 222.08 208.943 222.14C208.421 222.2 207.905 222.269 207.395 222.347C206.891 222.425 206.435 222.518 206.027 222.626C205.751 222.704 205.484 222.815 205.226 222.959C204.968 223.097 204.755 223.283 204.587 223.517C204.425 223.751 204.344 224.042 204.344 224.39C204.344 224.672 204.413 224.945 204.551 225.209C204.695 225.473 204.923 225.692 205.235 225.866C205.553 226.04 205.973 226.127 206.495 226.127ZM213.563 227V217.28H214.751V219.62L214.517 219.314C214.625 219.026 214.766 218.762 214.94 218.522C215.114 218.276 215.303 218.075 215.507 217.919C215.759 217.697 216.053 217.529 216.389 217.415C216.725 217.295 217.064 217.226 217.406 217.208C217.748 217.184 218.06 217.208 218.342 217.28V218.522C217.988 218.432 217.601 218.411 217.181 218.459C216.761 218.507 216.374 218.675 216.02 218.963C215.696 219.215 215.453 219.518 215.291 219.872C215.129 220.22 215.021 220.592 214.967 220.988C214.913 221.378 214.886 221.765 214.886 222.149V227H213.563ZM223.986 227.27C223.038 227.27 222.216 227.06 221.52 226.64C220.83 226.22 220.293 225.629 219.909 224.867C219.525 224.105 219.333 223.211 219.333 222.185C219.333 221.123 219.522 220.205 219.9 219.431C220.278 218.657 220.809 218.06 221.493 217.64C222.183 217.22 222.996 217.01 223.932 217.01C224.892 217.01 225.711 217.232 226.389 217.676C227.067 218.114 227.58 218.744 227.928 219.566C228.276 220.388 228.435 221.369 228.405 222.509H227.055V222.041C227.031 220.781 226.758 219.83 226.236 219.188C225.72 218.546 224.964 218.225 223.968 218.225C222.924 218.225 222.123 218.564 221.565 219.242C221.013 219.92 220.737 220.886 220.737 222.14C220.737 223.364 221.013 224.315 221.565 224.993C222.123 225.665 222.912 226.001 223.932 226.001C224.628 226.001 225.234 225.842 225.75 225.524C226.272 225.2 226.683 224.735 226.983 224.129L228.216 224.606C227.832 225.452 227.265 226.109 226.515 226.577C225.771 227.039 224.928 227.27 223.986 227.27ZM220.269 222.509V221.402H227.694V222.509H220.269ZM234.174 227.27C233.268 227.27 232.494 227.045 231.852 226.595C231.21 226.139 230.718 225.524 230.376 224.75C230.034 223.976 229.863 223.103 229.863 222.131C229.863 221.165 230.031 220.295 230.367 219.521C230.709 218.747 231.198 218.135 231.834 217.685C232.47 217.235 233.232 217.01 234.12 217.01C235.032 217.01 235.8 217.232 236.424 217.676C237.048 218.12 237.519 218.729 237.837 219.503C238.161 220.271 238.323 221.147 238.323 222.131C238.323 223.097 238.164 223.97 237.846 224.75C237.528 225.524 237.06 226.139 236.442 226.595C235.824 227.045 235.068 227.27 234.174 227.27ZM234.309 226.037C234.999 226.037 235.569 225.869 236.019 225.533C236.469 225.197 236.805 224.735 237.027 224.147C237.249 223.553 237.36 222.881 237.36 222.131C237.36 221.369 237.249 220.697 237.027 220.115C236.805 219.527 236.469 219.068 236.019 218.738C235.575 218.408 235.014 218.243 234.336 218.243C233.64 218.243 233.064 218.414 232.608 218.756C232.152 219.098 231.813 219.563 231.591 220.151C231.375 220.739 231.267 221.399 231.267 222.131C231.267 222.869 231.378 223.535 231.6 224.129C231.828 224.717 232.167 225.182 232.617 225.524C233.067 225.866 233.631 226.037 234.309 226.037ZM237.36 227V219.683H237.216V214.04H238.548V227H237.36ZM36.0862 251C35.5402 251.114 35.0002 251.159 34.4662 251.135C33.9382 251.111 33.4642 250.997 33.0442 250.793C32.6302 250.589 32.3152 250.271 32.0992 249.839C31.9252 249.479 31.8292 249.116 31.8112 248.75C31.7992 248.378 31.7932 247.955 31.7932 247.481V238.58H33.1072V247.427C33.1072 247.835 33.1102 248.177 33.1162 248.453C33.1282 248.723 33.1912 248.963 33.3052 249.173C33.5212 249.575 33.8632 249.815 34.3312 249.893C34.8052 249.971 35.3902 249.953 36.0862 249.839V251ZM29.7142 242.414V241.28H36.0862V242.414H29.7142ZM41.7086 251.27C40.7426 251.27 39.9176 251.051 39.2336 250.613C38.5496 250.175 38.0246 249.569 37.6586 248.795C37.2926 248.021 37.1096 247.133 37.1096 246.131C37.1096 245.111 37.2956 244.217 37.6676 243.449C38.0396 242.681 38.5676 242.084 39.2516 241.658C39.9416 241.226 40.7606 241.01 41.7086 241.01C42.6806 241.01 43.5086 241.229 44.1926 241.667C44.8826 242.099 45.4076 242.702 45.7676 243.476C46.1336 244.244 46.3166 245.129 46.3166 246.131C46.3166 247.151 46.1336 248.048 45.7676 248.822C45.4016 249.59 44.8736 250.19 44.1836 250.622C43.4936 251.054 42.6686 251.27 41.7086 251.27ZM41.7086 250.001C42.7886 250.001 43.5926 249.644 44.1206 248.93C44.6486 248.21 44.9126 247.277 44.9126 246.131C44.9126 244.955 44.6456 244.019 44.1116 243.323C43.5836 242.627 42.7826 242.279 41.7086 242.279C40.9826 242.279 40.3826 242.444 39.9086 242.774C39.4406 243.098 39.0896 243.551 38.8556 244.133C38.6276 244.709 38.5136 245.375 38.5136 246.131C38.5136 247.301 38.7836 248.24 39.3236 248.948C39.8636 249.65 40.6586 250.001 41.7086 250.001ZM57.1975 251C56.6515 251.114 56.1115 251.159 55.5775 251.135C55.0495 251.111 54.5755 250.997 54.1555 250.793C53.7415 250.589 53.4265 250.271 53.2105 249.839C53.0365 249.479 52.9405 249.116 52.9225 248.75C52.9105 248.378 52.9045 247.955 52.9045 247.481V238.58H54.2185V247.427C54.2185 247.835 54.2215 248.177 54.2275 248.453C54.2395 248.723 54.3025 248.963 54.4165 249.173C54.6325 249.575 54.9745 249.815 55.4425 249.893C55.9165 249.971 56.5015 249.953 57.1975 249.839V251ZM50.8255 242.414V241.28H57.1975V242.414H50.8255ZM60.2349 255.32L62.1159 250.217L62.1429 251.729L57.8859 241.28H59.2899L62.7819 250.019H62.2059L65.4279 241.28H66.7779L61.5579 255.32H60.2349ZM72.7061 251.27C71.8121 251.27 71.0561 251.045 70.4381 250.595C69.8201 250.139 69.3521 249.524 69.0341 248.75C68.7161 247.97 68.5571 247.097 68.5571 246.131C68.5571 245.147 68.7161 244.271 69.0341 243.503C69.3581 242.729 69.8321 242.12 70.4561 241.676C71.0801 241.232 71.8481 241.01 72.7601 241.01C73.6481 241.01 74.4101 241.235 75.0461 241.685C75.6821 242.135 76.1681 242.747 76.5041 243.521C76.8461 244.295 77.0171 245.165 77.0171 246.131C77.0171 247.103 76.8461 247.976 76.5041 248.75C76.1621 249.524 75.6701 250.139 75.0281 250.595C74.3861 251.045 73.6121 251.27 72.7061 251.27ZM68.3321 255.32V241.28H69.5201V248.597H69.6641V255.32H68.3321ZM72.5711 250.037C73.2491 250.037 73.8131 249.866 74.2631 249.524C74.7131 249.182 75.0491 248.717 75.2711 248.129C75.4991 247.535 75.6131 246.869 75.6131 246.131C75.6131 245.399 75.5021 244.739 75.2801 244.151C75.0581 243.563 74.7191 243.098 74.2631 242.756C73.8131 242.414 73.2401 242.243 72.5441 242.243C71.8661 242.243 71.3021 242.408 70.8521 242.738C70.4081 243.068 70.0751 243.527 69.8531 244.115C69.6311 244.697 69.5201 245.369 69.5201 246.131C69.5201 246.881 69.6311 247.553 69.8531 248.147C70.0751 248.735 70.4111 249.197 70.8611 249.533C71.3111 249.869 71.8811 250.037 72.5711 250.037ZM79.1734 239.435V237.95H80.4964V239.435H79.1734ZM79.1734 251V241.28H80.4964V251H79.1734ZM87.2266 251.27C86.2486 251.27 85.4206 251.051 84.7426 250.613C84.0646 250.175 83.5486 249.572 83.1946 248.804C82.8466 248.03 82.6666 247.142 82.6546 246.14C82.6666 245.12 82.8526 244.226 83.2126 243.458C83.5726 242.684 84.0916 242.084 84.7696 241.658C85.4476 241.226 86.2696 241.01 87.2356 241.01C88.2196 241.01 89.0746 241.25 89.8006 241.73C90.5326 242.21 91.0336 242.867 91.3036 243.701L90.0076 244.115C89.7796 243.533 89.4166 243.083 88.9186 242.765C88.4266 242.441 87.8626 242.279 87.2266 242.279C86.5126 242.279 85.9216 242.444 85.4536 242.774C84.9856 243.098 84.6376 243.551 84.4096 244.133C84.1816 244.715 84.0646 245.384 84.0586 246.14C84.0706 247.304 84.3406 248.24 84.8686 248.948C85.3966 249.65 86.1826 250.001 87.2266 250.001C87.8866 250.001 88.4476 249.851 88.9096 249.551C89.3776 249.245 89.7316 248.801 89.9716 248.219L91.3036 248.615C90.9436 249.479 90.4156 250.139 89.7196 250.595C89.0236 251.045 88.1926 251.27 87.2266 251.27ZM95.8896 251.27C95.1576 251.27 94.5426 251.138 94.0446 250.874C93.5526 250.61 93.1836 250.259 92.9376 249.821C92.6916 249.383 92.5686 248.906 92.5686 248.39C92.5686 247.862 92.6736 247.412 92.8836 247.04C93.0996 246.662 93.3906 246.353 93.7566 246.113C94.1286 245.873 94.5576 245.69 95.0436 245.564C95.5356 245.444 96.0786 245.339 96.6726 245.249C97.2726 245.153 97.8576 245.072 98.4276 245.006C99.0036 244.934 99.5076 244.865 99.9396 244.799L99.4716 245.087C99.4896 244.127 99.3036 243.416 98.9136 242.954C98.5236 242.492 97.8456 242.261 96.8796 242.261C96.2136 242.261 95.6496 242.411 95.1876 242.711C94.7316 243.011 94.4106 243.485 94.2246 244.133L92.9376 243.755C93.1596 242.885 93.6066 242.21 94.2786 241.73C94.9506 241.25 95.8236 241.01 96.8976 241.01C97.7856 241.01 98.5386 241.178 99.1566 241.514C99.7806 241.844 100.222 242.324 100.48 242.954C100.6 243.236 100.678 243.551 100.714 243.899C100.75 244.247 100.768 244.601 100.768 244.961V251H99.5886V248.561L99.9306 248.705C99.6006 249.539 99.0876 250.175 98.3916 250.613C97.6956 251.051 96.8616 251.27 95.8896 251.27ZM96.0426 250.127C96.6606 250.127 97.2006 250.016 97.6626 249.794C98.1246 249.572 98.4966 249.269 98.7786 248.885C99.0606 248.495 99.2436 248.057 99.3276 247.571C99.3996 247.259 99.4386 246.917 99.4446 246.545C99.4506 246.167 99.4536 245.885 99.4536 245.699L99.9576 245.96C99.5076 246.02 99.0186 246.08 98.4906 246.14C97.9686 246.2 97.4526 246.269 96.9426 246.347C96.4386 246.425 95.9826 246.518 95.5746 246.626C95.2986 246.704 95.0316 246.815 94.7736 246.959C94.5156 247.097 94.3026 247.283 94.1346 247.517C93.9726 247.751 93.8916 248.042 93.8916 248.39C93.8916 248.672 93.9606 248.945 94.0986 249.209C94.2426 249.473 94.4706 249.692 94.7826 249.866C95.1006 250.04 95.5206 250.127 96.0426 250.127ZM103.291 251V237.77H104.614V251H103.291ZM114.776 255.59C114.278 255.59 113.786 255.515 113.3 255.365C112.82 255.221 112.376 254.99 111.968 254.672C111.56 254.36 111.218 253.952 110.942 253.448L112.139 252.782C112.409 253.322 112.787 253.709 113.273 253.943C113.765 254.183 114.266 254.303 114.776 254.303C115.478 254.303 116.045 254.171 116.477 253.907C116.915 253.649 117.233 253.265 117.431 252.755C117.629 252.245 117.725 251.609 117.719 250.847V248.255H117.872V241.28H119.051V250.865C119.051 251.141 119.042 251.405 119.024 251.657C119.012 251.915 118.985 252.167 118.943 252.413C118.829 253.139 118.592 253.736 118.232 254.204C117.878 254.672 117.41 255.02 116.828 255.248C116.252 255.476 115.568 255.59 114.776 255.59ZM114.686 251.27C113.78 251.27 113.006 251.045 112.364 250.595C111.722 250.139 111.23 249.524 110.888 248.75C110.546 247.976 110.375 247.103 110.375 246.131C110.375 245.165 110.543 244.295 110.879 243.521C111.221 242.747 111.71 242.135 112.346 241.685C112.982 241.235 113.744 241.01 114.632 241.01C115.544 241.01 116.312 241.232 116.936 241.676C117.56 242.12 118.031 242.729 118.349 243.503C118.673 244.271 118.835 245.147 118.835 246.131C118.835 247.097 118.676 247.97 118.358 248.75C118.04 249.524 117.572 250.139 116.954 250.595C116.336 251.045 115.58 251.27 114.686 251.27ZM114.821 250.037C115.511 250.037 116.081 249.869 116.531 249.533C116.981 249.197 117.317 248.735 117.539 248.147C117.761 247.553 117.872 246.881 117.872 246.131C117.872 245.369 117.761 244.697 117.539 244.115C117.317 243.527 116.981 243.068 116.531 242.738C116.087 242.408 115.526 242.243 114.848 242.243C114.152 242.243 113.576 242.414 113.12 242.756C112.664 243.098 112.325 243.563 112.103 244.151C111.887 244.739 111.779 245.399 111.779 246.131C111.779 246.869 111.89 247.535 112.112 248.129C112.34 248.717 112.679 249.182 113.129 249.524C113.579 249.866 114.143 250.037 114.821 250.037ZM125.627 251.27C124.661 251.27 123.836 251.051 123.152 250.613C122.468 250.175 121.943 249.569 121.577 248.795C121.211 248.021 121.028 247.133 121.028 246.131C121.028 245.111 121.214 244.217 121.586 243.449C121.958 242.681 122.486 242.084 123.17 241.658C123.86 241.226 124.679 241.01 125.627 241.01C126.599 241.01 127.427 241.229 128.111 241.667C128.801 242.099 129.326 242.702 129.686 243.476C130.052 244.244 130.235 245.129 130.235 246.131C130.235 247.151 130.052 248.048 129.686 248.822C129.32 249.59 128.792 250.19 128.102 250.622C127.412 251.054 126.587 251.27 125.627 251.27ZM125.627 250.001C126.707 250.001 127.511 249.644 128.039 248.93C128.567 248.21 128.831 247.277 128.831 246.131C128.831 244.955 128.564 244.019 128.03 243.323C127.502 242.627 126.701 242.279 125.627 242.279C124.901 242.279 124.301 242.444 123.827 242.774C123.359 243.098 123.008 243.551 122.774 244.133C122.546 244.709 122.432 245.375 122.432 246.131C122.432 247.301 122.702 248.24 123.242 248.948C123.782 249.65 124.577 250.001 125.627 250.001ZM134.496 251L130.968 241.28H132.309L135.18 249.272L138.033 241.28H139.392L135.864 251H134.496ZM144.77 251.27C143.822 251.27 143 251.06 142.304 250.64C141.614 250.22 141.077 249.629 140.693 248.867C140.309 248.105 140.117 247.211 140.117 246.185C140.117 245.123 140.306 244.205 140.684 243.431C141.062 242.657 141.593 242.06 142.277 241.64C142.967 241.22 143.78 241.01 144.716 241.01C145.676 241.01 146.495 241.232 147.173 241.676C147.851 242.114 148.364 242.744 148.712 243.566C149.06 244.388 149.219 245.369 149.189 246.509H147.839V246.041C147.815 244.781 147.542 243.83 147.02 243.188C146.504 242.546 145.748 242.225 144.752 242.225C143.708 242.225 142.907 242.564 142.349 243.242C141.797 243.92 141.521 244.886 141.521 246.14C141.521 247.364 141.797 248.315 142.349 248.993C142.907 249.665 143.696 250.001 144.716 250.001C145.412 250.001 146.018 249.842 146.534 249.524C147.056 249.2 147.467 248.735 147.767 248.129L149 248.606C148.616 249.452 148.049 250.109 147.299 250.577C146.555 251.039 145.712 251.27 144.77 251.27ZM141.053 246.509V245.402H148.478V246.509H141.053ZM151.187 251V241.28H152.375V243.62L152.141 243.314C152.249 243.026 152.39 242.762 152.564 242.522C152.738 242.276 152.927 242.075 153.131 241.919C153.383 241.697 153.677 241.529 154.013 241.415C154.349 241.295 154.688 241.226 155.03 241.208C155.372 241.184 155.684 241.208 155.966 241.28V242.522C155.612 242.432 155.225 242.411 154.805 242.459C154.385 242.507 153.998 242.675 153.644 242.963C153.32 243.215 153.077 243.518 152.915 243.872C152.753 244.22 152.645 244.592 152.591 244.988C152.537 245.378 152.51 245.765 152.51 246.149V251H151.187ZM164.693 251V246.041C164.693 245.501 164.642 245.006 164.54 244.556C164.438 244.1 164.273 243.704 164.045 243.368C163.823 243.026 163.532 242.762 163.172 242.576C162.818 242.39 162.386 242.297 161.876 242.297C161.408 242.297 160.994 242.378 160.634 242.54C160.28 242.702 159.98 242.936 159.734 243.242C159.494 243.542 159.311 243.908 159.185 244.34C159.059 244.772 158.996 245.264 158.996 245.816L158.06 245.609C158.06 244.613 158.234 243.776 158.582 243.098C158.93 242.42 159.41 241.907 160.022 241.559C160.634 241.211 161.336 241.037 162.128 241.037C162.71 241.037 163.217 241.127 163.649 241.307C164.087 241.487 164.456 241.73 164.756 242.036C165.062 242.342 165.308 242.693 165.494 243.089C165.68 243.479 165.815 243.896 165.899 244.34C165.983 244.778 166.025 245.216 166.025 245.654V251H164.693ZM157.664 251V241.28H158.861V243.674H158.996V251H157.664ZM179.953 251L179.962 244.619C179.962 243.869 179.752 243.281 179.332 242.855C178.918 242.423 178.39 242.207 177.748 242.207C177.382 242.207 177.025 242.291 176.677 242.459C176.329 242.627 176.041 242.897 175.813 243.269C175.591 243.641 175.48 244.127 175.48 244.727L174.697 244.502C174.679 243.806 174.814 243.197 175.102 242.675C175.396 242.153 175.798 241.748 176.308 241.46C176.824 241.166 177.406 241.019 178.054 241.019C179.032 241.019 179.815 241.322 180.403 241.928C180.991 242.528 181.285 243.341 181.285 244.367L181.276 251H179.953ZM168.352 251V241.28H169.54V243.674H169.684V251H168.352ZM174.166 251L174.175 244.709C174.175 243.935 173.968 243.326 173.554 242.882C173.146 242.432 172.606 242.207 171.934 242.207C171.262 242.207 170.719 242.438 170.305 242.9C169.891 243.356 169.684 243.965 169.684 244.727L168.892 244.295C168.892 243.671 169.039 243.113 169.333 242.621C169.627 242.123 170.029 241.733 170.539 241.451C171.049 241.163 171.628 241.019 172.276 241.019C172.894 241.019 173.443 241.151 173.923 241.415C174.409 241.679 174.79 242.063 175.066 242.567C175.342 243.071 175.48 243.683 175.48 244.403L175.471 251H174.166ZM187.679 251.27C186.731 251.27 185.909 251.06 185.213 250.64C184.523 250.22 183.986 249.629 183.602 248.867C183.218 248.105 183.026 247.211 183.026 246.185C183.026 245.123 183.215 244.205 183.593 243.431C183.971 242.657 184.502 242.06 185.186 241.64C185.876 241.22 186.689 241.01 187.625 241.01C188.585 241.01 189.404 241.232 190.082 241.676C190.76 242.114 191.273 242.744 191.621 243.566C191.969 244.388 192.128 245.369 192.098 246.509H190.748V246.041C190.724 244.781 190.451 243.83 189.929 243.188C189.413 242.546 188.657 242.225 187.661 242.225C186.617 242.225 185.816 242.564 185.258 243.242C184.706 243.92 184.43 244.886 184.43 246.14C184.43 247.364 184.706 248.315 185.258 248.993C185.816 249.665 186.605 250.001 187.625 250.001C188.321 250.001 188.927 249.842 189.443 249.524C189.965 249.2 190.376 248.735 190.676 248.129L191.909 248.606C191.525 249.452 190.958 250.109 190.208 250.577C189.464 251.039 188.621 251.27 187.679 251.27ZM183.962 246.509V245.402H191.387V246.509H183.962ZM200.851 251V246.041C200.851 245.501 200.8 245.006 200.698 244.556C200.596 244.1 200.431 243.704 200.203 243.368C199.981 243.026 199.69 242.762 199.33 242.576C198.976 242.39 198.544 242.297 198.034 242.297C197.566 242.297 197.152 242.378 196.792 242.54C196.438 242.702 196.138 242.936 195.892 243.242C195.652 243.542 195.469 243.908 195.343 244.34C195.217 244.772 195.154 245.264 195.154 245.816L194.218 245.609C194.218 244.613 194.392 243.776 194.74 243.098C195.088 242.42 195.568 241.907 196.18 241.559C196.792 241.211 197.494 241.037 198.286 241.037C198.868 241.037 199.375 241.127 199.807 241.307C200.245 241.487 200.614 241.73 200.914 242.036C201.22 242.342 201.466 242.693 201.652 243.089C201.838 243.479 201.973 243.896 202.057 244.34C202.141 244.778 202.183 245.216 202.183 245.654V251H200.851ZM193.822 251V241.28H195.019V243.674H195.154V251H193.822ZM209.811 251C209.265 251.114 208.725 251.159 208.191 251.135C207.663 251.111 207.189 250.997 206.769 250.793C206.355 250.589 206.04 250.271 205.824 249.839C205.65 249.479 205.554 249.116 205.536 248.75C205.524 248.378 205.518 247.955 205.518 247.481V238.58H206.832V247.427C206.832 247.835 206.835 248.177 206.841 248.453C206.853 248.723 206.916 248.963 207.03 249.173C207.246 249.575 207.588 249.815 208.056 249.893C208.53 249.971 209.115 249.953 209.811 249.839V251ZM203.439 242.414V241.28H209.811V242.414H203.439ZM83.5155 275L80.5455 265.271L81.8685 265.28L84.1725 272.831L86.4855 265.28H87.6915L90.0045 272.831L92.3265 265.28H93.6405L90.6705 275H89.5185L87.0885 267.26L84.6675 275H83.5155ZM99.0234 275.27C98.0754 275.27 97.2534 275.06 96.5574 274.64C95.8674 274.22 95.3304 273.629 94.9464 272.867C94.5624 272.105 94.3704 271.211 94.3704 270.185C94.3704 269.123 94.5594 268.205 94.9374 267.431C95.3154 266.657 95.8464 266.06 96.5304 265.64C97.2204 265.22 98.0334 265.01 98.9694 265.01C99.9294 265.01 100.748 265.232 101.426 265.676C102.104 266.114 102.617 266.744 102.965 267.566C103.313 268.388 103.472 269.369 103.442 270.509H102.092V270.041C102.068 268.781 101.795 267.83 101.273 267.188C100.757 266.546 100.001 266.225 99.0054 266.225C97.9614 266.225 97.1604 266.564 96.6024 267.242C96.0504 267.92 95.7744 268.886 95.7744 270.14C95.7744 271.364 96.0504 272.315 96.6024 272.993C97.1604 273.665 97.9494 274.001 98.9694 274.001C99.6654 274.001 100.271 273.842 100.787 273.524C101.309 273.2 101.72 272.735 102.02 272.129L103.253 272.606C102.869 273.452 102.302 274.109 101.552 274.577C100.808 275.039 99.9654 275.27 99.0234 275.27ZM95.3064 270.509V269.402H102.731V270.509H95.3064ZM109.805 275.27C108.911 275.27 108.155 275.045 107.537 274.595C106.919 274.139 106.451 273.524 106.133 272.75C105.815 271.97 105.656 271.097 105.656 270.131C105.656 269.147 105.815 268.271 106.133 267.503C106.457 266.729 106.931 266.12 107.555 265.676C108.179 265.232 108.947 265.01 109.859 265.01C110.747 265.01 111.509 265.235 112.145 265.685C112.781 266.135 113.267 266.747 113.603 267.521C113.945 268.295 114.116 269.165 114.116 270.131C114.116 271.103 113.945 271.976 113.603 272.75C113.261 273.524 112.769 274.139 112.127 274.595C111.485 275.045 110.711 275.27 109.805 275.27ZM105.431 275V262.04H106.763V267.683H106.619V275H105.431ZM109.67 274.037C110.348 274.037 110.912 273.866 111.362 273.524C111.812 273.182 112.148 272.717 112.37 272.129C112.598 271.535 112.712 270.869 112.712 270.131C112.712 269.399 112.601 268.739 112.379 268.151C112.157 267.563 111.818 267.098 111.362 266.756C110.912 266.414 110.339 266.243 109.643 266.243C108.965 266.243 108.401 266.408 107.951 266.738C107.507 267.068 107.174 267.527 106.952 268.115C106.73 268.697 106.619 269.369 106.619 270.131C106.619 270.881 106.73 271.553 106.952 272.147C107.174 272.735 107.51 273.197 107.96 273.533C108.41 273.869 108.98 274.037 109.67 274.037ZM119.631 275.261C118.491 275.261 117.552 275.015 116.814 274.523C116.082 274.031 115.632 273.347 115.464 272.471L116.814 272.246C116.958 272.798 117.285 273.239 117.795 273.569C118.311 273.893 118.947 274.055 119.703 274.055C120.441 274.055 121.023 273.902 121.449 273.596C121.875 273.284 122.088 272.861 122.088 272.327C122.088 272.027 122.019 271.784 121.881 271.598C121.749 271.406 121.476 271.229 121.062 271.067C120.648 270.905 120.03 270.713 119.208 270.491C118.326 270.251 117.636 270.011 117.138 269.771C116.64 269.531 116.286 269.255 116.076 268.943C115.866 268.625 115.761 268.238 115.761 267.782C115.761 267.23 115.917 266.747 116.229 266.333C116.541 265.913 116.973 265.589 117.525 265.361C118.077 265.127 118.719 265.01 119.451 265.01C120.183 265.01 120.837 265.13 121.413 265.37C121.995 265.604 122.463 265.934 122.817 266.36C123.171 266.786 123.381 267.281 123.447 267.845L122.097 268.088C122.007 267.518 121.722 267.068 121.242 266.738C120.768 266.402 120.165 266.228 119.433 266.216C118.743 266.198 118.182 266.33 117.75 266.612C117.318 266.888 117.102 267.257 117.102 267.719C117.102 267.977 117.18 268.199 117.336 268.385C117.492 268.565 117.774 268.736 118.182 268.898C118.596 269.06 119.184 269.237 119.946 269.429C120.84 269.657 121.542 269.897 122.052 270.149C122.562 270.401 122.925 270.698 123.141 271.04C123.357 271.382 123.465 271.805 123.465 272.309C123.465 273.227 123.123 273.95 122.439 274.478C121.761 275 120.825 275.261 119.631 275.261ZM125.641 263.435V261.95H126.964V263.435H125.641ZM125.641 275V265.28H126.964V275H125.641ZM134.954 275C134.408 275.114 133.868 275.159 133.334 275.135C132.806 275.111 132.332 274.997 131.912 274.793C131.498 274.589 131.183 274.271 130.967 273.839C130.793 273.479 130.697 273.116 130.679 272.75C130.667 272.378 130.661 271.955 130.661 271.481V262.58H131.975V271.427C131.975 271.835 131.978 272.177 131.984 272.453C131.996 272.723 132.059 272.963 132.173 273.173C132.389 273.575 132.731 273.815 133.199 273.893C133.673 273.971 134.258 273.953 134.954 273.839V275ZM128.582 266.414V265.28H134.954V266.414H128.582ZM140.631 275.27C139.683 275.27 138.861 275.06 138.165 274.64C137.475 274.22 136.938 273.629 136.554 272.867C136.17 272.105 135.978 271.211 135.978 270.185C135.978 269.123 136.167 268.205 136.545 267.431C136.923 266.657 137.454 266.06 138.138 265.64C138.828 265.22 139.641 265.01 140.577 265.01C141.537 265.01 142.356 265.232 143.034 265.676C143.712 266.114 144.225 266.744 144.573 267.566C144.921 268.388 145.08 269.369 145.05 270.509H143.7V270.041C143.676 268.781 143.403 267.83 142.881 267.188C142.365 266.546 141.609 266.225 140.613 266.225C139.569 266.225 138.768 266.564 138.21 267.242C137.658 267.92 137.382 268.886 137.382 270.14C137.382 271.364 137.658 272.315 138.21 272.993C138.768 273.665 139.557 274.001 140.577 274.001C141.273 274.001 141.879 273.842 142.395 273.524C142.917 273.2 143.328 272.735 143.628 272.129L144.861 272.606C144.477 273.452 143.91 274.109 143.16 274.577C142.416 275.039 141.573 275.27 140.631 275.27ZM136.914 270.509V269.402H144.339V270.509H136.914ZM150.674 275.261C149.534 275.261 148.595 275.015 147.857 274.523C147.125 274.031 146.675 273.347 146.507 272.471L147.857 272.246C148.001 272.798 148.328 273.239 148.838 273.569C149.354 273.893 149.99 274.055 150.746 274.055C151.484 274.055 152.066 273.902 152.492 273.596C152.918 273.284 153.131 272.861 153.131 272.327C153.131 272.027 153.062 271.784 152.924 271.598C152.792 271.406 152.519 271.229 152.105 271.067C151.691 270.905 151.073 270.713 150.251 270.491C149.369 270.251 148.679 270.011 148.181 269.771C147.683 269.531 147.329 269.255 147.119 268.943C146.909 268.625 146.804 268.238 146.804 267.782C146.804 267.23 146.96 266.747 147.272 266.333C147.584 265.913 148.016 265.589 148.568 265.361C149.12 265.127 149.762 265.01 150.494 265.01C151.226 265.01 151.88 265.13 152.456 265.37C153.038 265.604 153.506 265.934 153.86 266.36C154.214 266.786 154.424 267.281 154.49 267.845L153.14 268.088C153.05 267.518 152.765 267.068 152.285 266.738C151.811 266.402 151.208 266.228 150.476 266.216C149.786 266.198 149.225 266.33 148.793 266.612C148.361 266.888 148.145 267.257 148.145 267.719C148.145 267.977 148.223 268.199 148.379 268.385C148.535 268.565 148.817 268.736 149.225 268.898C149.639 269.06 150.227 269.237 150.989 269.429C151.883 269.657 152.585 269.897 153.095 270.149C153.605 270.401 153.968 270.698 154.184 271.04C154.4 271.382 154.508 271.805 154.508 272.309C154.508 273.227 154.166 273.95 153.482 274.478C152.804 275 151.868 275.261 150.674 275.261ZM156.756 275V273.461H158.295V275H156.756Z" fill="#1A4555"/>
<defs>
<filter id="filter0_d_49_81" x="81.25" y="0.994629" width="78.0996" height="81.187" filterUnits="userSpaceOnUse" color-interpolation-filters="sRGB">
<feFlood flood-opacity="0" result="BackgroundImageFix"/>
<feColorMatrix in="SourceAlpha" type="matrix" values="0 0 0 0 0 0 0 0 0 0 0 0 0 0 0 0 0 0 127 0" result="hardAlpha"/>
<feOffset dy="1"/>
<feGaussianBlur stdDeviation="2.5"/>
<feComposite in2="hardAlpha" operator="out"/>
<feColorMatrix type="matrix" values="0 0 0 0 0.956863 0 0 0 0 0.470588 0 0 0 0 0.317647 0 0 0 0.5 0"/>
<feBlend mode="normal" in2="BackgroundImageFix" result="effect1_dropShadow_49_81"/>
<feBlend mode="normal" in="SourceGraphic" in2="effect1_dropShadow_49_81" result="shape"/>
</filter>
<linearGradient id="paint0_linear_49_81" x1="86" y1="5" x2="154" y2="76" gradientUnits="userSpaceOnUse">
<stop stop-color="#F47851"/>
<stop offset="1" stop-color="#F6B472"/>
</linearGradient>
<clipPath id="clip0_49_81">
<rect width="80" height="80" fill="white" transform="translate(80)"/>
</clipPath>
</defs>
</svg>
