<svg width="36" height="36" viewBox="0 0 36 36" fill="none" xmlns="http://www.w3.org/2000/svg">
<path d="M4.5 7.5V6.75C4.30109 6.75 4.11032 6.82902 3.96967 6.96967C3.82902 7.11032 3.75 7.30109 3.75 7.5H4.5ZM31.5 7.5H32.25C32.25 7.30109 32.171 7.11032 32.0303 6.96967C31.8897 6.82902 31.6989 6.75 31.5 6.75V7.5ZM4.5 8.25H31.5V6.75H4.5V8.25ZM30.75 7.5V25.5H32.25V7.5H30.75ZM28.5 27.75H7.5V29.25H28.5V27.75ZM5.25 25.5V7.5H3.75V25.5H5.25ZM7.5 27.75C6.90326 27.75 6.33097 27.5129 5.90901 27.091C5.48705 26.669 5.25 26.0967 5.25 25.5H3.75C3.75 26.4946 4.14509 27.4484 4.84835 28.1517C5.55161 28.8549 6.50544 29.25 7.5 29.25V27.75ZM30.75 25.5C30.75 26.0967 30.5129 26.669 30.091 27.091C29.669 27.5129 29.0967 27.75 28.5 27.75V29.25C29.4946 29.25 30.4484 28.8549 31.1517 28.1517C31.8549 27.4484 32.25 26.4946 32.25 25.5H30.75Z" fill="#0050D4"/>
<path d="M5.25 8.25L18 21L30.75 8.25" stroke="#0050D4" stroke-width="2" stroke-linecap="round" stroke-linejoin="round"/>
</svg>
