<svg width="36" height="36" viewBox="0 0 36 36" fill="none" xmlns="http://www.w3.org/2000/svg">
<path d="M15.3 29.5675C10.6708 31.1295 6.8139 29.5675 4.5 24.7507" stroke="#0050D4" stroke-width="2" stroke-linecap="round" stroke-linejoin="round"/>
<path d="M15.2999 31.5007V27.124C15.2999 26.3167 15.5483 25.6147 15.9479 24.9802C16.2233 24.5455 16.0343 23.9272 15.5389 23.7922C11.4308 22.6609 8.54993 20.8451 8.54993 14.8214C8.54993 13.2554 9.06293 11.7839 9.96473 10.5014C10.1888 10.1828 10.3022 10.0235 10.3292 9.88045C10.3562 9.73465 10.309 9.547 10.2145 9.169C9.83243 7.6354 9.85808 6.00595 10.4305 4.5385C10.4305 4.5385 11.6144 4.15105 14.3104 5.8345C14.926 6.21925 15.2338 6.4123 15.5051 6.4555C15.7765 6.4987 16.1383 6.40825 16.8619 6.22735C17.8965 5.97084 18.959 5.84431 20.0249 5.8507C21.0908 5.84614 22.1532 5.9731 23.188 6.2287C23.9116 6.4096 24.2747 6.4987 24.5461 6.45685C24.8161 6.41365 25.1239 6.2206 25.7395 5.83585C28.4354 4.1524 29.6194 4.53985 29.6194 4.53985C30.1918 6.0073 30.2174 7.63675 29.8354 9.17035C29.7409 9.54835 29.695 9.73735 29.722 9.88045C29.749 10.0235 29.861 10.1842 30.0851 10.5028C30.9869 11.7853 31.4999 13.2568 31.4999 14.8228C31.4999 20.8465 28.619 22.6622 24.511 23.7908C24.0155 23.9272 23.8265 24.5455 24.1019 24.9788C24.5015 25.6133 24.7499 26.3153 24.7499 27.124V31.5007" stroke="#0050D4" stroke-width="2" stroke-linecap="round" stroke-linejoin="round"/>
</svg>
