<svg width="36" height="36" viewBox="0 0 36 36" fill="none" xmlns="http://www.w3.org/2000/svg">
<path d="M9.46667 28.6366L11.4987 27.0112L11.512 27.0006C11.936 26.6606 12.1507 26.4899 12.3893 26.3686C12.6036 26.2592 12.8293 26.1801 13.0667 26.1312C13.332 26.0766 13.608 26.0766 14.1627 26.0766H25.7373C27.228 26.0766 27.9747 26.0766 28.544 25.7859C29.0457 25.5303 29.4537 25.1223 29.7093 24.6206C30 24.0499 30 23.3032 30 21.8152V11.6726C30 10.1819 30 9.43525 29.7093 8.86591C29.4533 8.36397 29.0449 7.95601 28.5427 7.70058C27.9733 7.40991 27.2267 7.40991 25.7333 7.40991H10.2667C8.77333 7.40991 8.02667 7.40991 7.456 7.70058C6.95426 7.95624 6.54633 8.36417 6.29067 8.86591C6 9.43658 6 10.1832 6 11.6766V26.9712C6 28.3926 6 29.1032 6.29067 29.4672C6.41566 29.6242 6.57445 29.7509 6.75521 29.8379C6.93597 29.9249 7.13404 29.9701 7.33467 29.9699C7.80133 29.9699 8.356 29.5246 9.46667 28.6366Z" stroke="#0050D4" stroke-width="2" stroke-linecap="round" stroke-linejoin="round"/>
</svg>
