<svg width="36" height="36" viewBox="0 0 36 36" fill="none" xmlns="http://www.w3.org/2000/svg">
<path d="M30 6L21.4851 29.5797C21.4276 29.7051 21.3354 29.8114 21.2193 29.8859C21.1032 29.9604 20.9681 30 20.8301 30C20.6922 30 20.5571 29.9604 20.441 29.8859C20.3249 29.8114 20.2326 29.7051 20.1751 29.5797L15.5902 20.4098L6.42034 15.8249C6.29492 15.7674 6.18863 15.6751 6.11412 15.559C6.03961 15.4429 6 15.3078 6 15.1699C6 15.0319 6.03961 14.8968 6.11412 14.7807C6.18863 14.6646 6.29492 14.5724 6.42034 14.5149L30 6Z" stroke="#0050D4" stroke-width="2" stroke-linecap="round" stroke-linejoin="round"/>
</svg>
