<svg width="36" height="36" viewBox="0 0 36 36" fill="none" xmlns="http://www.w3.org/2000/svg">
<path d="M19.5001 6V3C26.4901 3.75 31.9951 9.285 32.7751 16.275C33.6751 24.51 27.7501 31.92 19.5001 32.82V29.82C24.9601 29.145 29.2501 24.84 29.9401 19.38C30.1344 17.8158 30.0184 16.2286 29.5987 14.7092C29.179 13.1898 28.4639 11.7681 27.4942 10.5254C26.5246 9.28269 25.3194 8.24334 23.9477 7.46683C22.576 6.69031 21.0646 6.19186 19.5001 6ZM8.50507 6.3C10.7788 4.42312 13.5644 3.27334 16.5001 3V6.09C14.3551 6.39 12.3301 7.26 10.6501 8.61L8.50507 6.3ZM3.07507 16.5C3.35271 13.5627 4.50779 10.7769 6.39007 8.505L8.53507 10.65C7.20496 12.3439 6.35525 14.3646 6.07507 16.5H3.07507ZM6.40507 27.495C4.54159 25.2118 3.38898 22.432 3.09007 19.5H6.09007C6.36007 21.63 7.21507 23.655 8.53507 25.35L6.40507 27.495ZM8.50507 29.61L10.5901 27.555H10.6501C12.3451 28.875 14.3701 29.73 16.5001 30V33C13.5601 32.685 10.7701 31.5 8.50507 29.61ZM18.0001 25.5L20.3401 20.37L25.5001 18L20.3401 15.66L18.0001 10.5L15.6451 15.66L10.5001 18L15.6451 20.37L18.0001 25.5Z" fill="#0050D4"/>
</svg>
