<svg width="550" height="550" viewBox="0 0 550 550" fill="none" xmlns="http://www.w3.org/2000/svg">
<g clip-path="url(#clip0_5_96)">
<path d="M315.228 367.957C303.491 367.601 268.666 356.488 261.743 351.36Z" fill="#050504"/>
<path d="M320.058 422.731C341.713 453.061 411.731 462.065 423.677 466.4C443.271 473.825 446.604 493.9 446.894 504.835C447.731 535.991 451.386 589.438 440.454 617.682" fill="#050504"/>
<path d="M320.058 422.731C306.92 399.048 315.228 367.957 315.228 367.957C315.228 367.957 340.682 369.17 350.89 363.945C370.516 355.485 393.829 324.539 393.588 280.232C393.031 240.331 384.644 200.933 368.906 164.295C354.706 127.397 266.589 92.9085 200.208 157.356C200.208 157.356 164.417 190.226 185.202 244.854" fill="#050504"/>
<path d="M82.063 617.682C72.6122 587.254 76.3314 507.246 77.6999 495.954C79.0684 484.663 84.3493 461.757 112.315 454.785C124.68 451.663 202.108 439.085 217.821 417.263" fill="#050504"/>
<path d="M221.621 334.763C221.621 334.763 195.619 319.929 185.251 289C174.882 258.07 185.202 244.854 185.202 244.854C193.526 232.382 226.644 229.325 226.644 266.951" fill="#050504"/>
<path d="M221.621 334.763C223.601 374.072 224.101 392.109 217.821 417.263Z" fill="#050504"/>
<path d="M320.058 422.731C341.713 453.061 411.731 462.065 423.677 466.4C443.271 473.825 446.604 493.9 446.894 504.835C447.731 535.991 451.386 589.438 440.454 617.682H82.063C72.6122 587.254 76.3314 507.246 77.6999 495.954C79.0684 484.663 84.3493 461.757 112.315 454.785C124.68 451.663 202.108 439.085 217.821 417.263C224.101 392.109 223.601 374.072 221.621 334.763C221.621 334.763 195.619 319.929 185.251 289C174.882 258.07 185.202 244.854 185.202 244.854C164.417 190.226 200.208 157.356 200.208 157.356C266.589 92.9085 354.706 127.397 368.906 164.295C384.644 200.933 393.031 240.331 393.588 280.232C393.829 324.539 370.516 355.485 350.89 363.945C340.682 369.17 315.228 367.957 315.228 367.957C315.228 367.957 306.92 399.048 320.058 422.731Z" fill="#050504"/>
<path opacity="0.4" d="M314.858 366.711C313.299 377.721 310.884 393.897 314.858 406.838C300.126 403.328 258.539 374.444 258.539 350.988C276.735 358.128 295.604 363.396 314.858 366.711Z" fill="#050504"/>
<path d="M204.179 253.971C197.9 255.685 193.617 265.213 198.608 275.485" stroke="#050504" stroke-width="3.66667" stroke-linecap="round"/>
<path d="M314.953 366.339C303.161 365.983 268.171 354.87 261.215 349.742Z" fill="white"/>
<path d="M319.806 421.113C341.564 451.444 411.913 460.447 423.916 464.782C443.603 472.207 446.951 492.282 447.243 503.218C448.084 534.373 451.756 587.821 440.772 616.065" fill="white"/>
<path d="M319.806 421.113C306.606 397.431 314.953 366.339 314.953 366.339C314.953 366.339 340.528 367.553 350.784 362.328C370.503 353.867 393.927 322.922 393.684 278.614C393.125 238.714 384.698 199.316 368.886 162.678C354.618 125.779 266.084 91.2908 199.389 155.738C199.389 155.738 163.428 188.608 184.312 243.236" fill="white"/>
<path d="M80.6844 616.065C71.1888 585.637 74.9256 505.628 76.3006 494.337C77.6756 483.046 82.9815 460.14 111.08 453.168C123.504 450.046 201.297 437.467 217.086 415.645" fill="white"/>
<path d="M220.903 333.145C220.903 333.145 194.778 318.311 184.361 287.382C173.943 256.453 184.312 243.236 184.312 243.236C192.675 230.764 225.95 227.707 225.95 265.333" fill="white"/>
<path d="M220.903 333.145C222.893 372.454 223.395 390.491 217.086 415.645Z" fill="white"/>
<path d="M319.806 421.113C341.564 451.444 411.913 460.447 423.916 464.782C443.603 472.207 446.951 492.282 447.243 503.218C448.084 534.373 451.756 587.821 440.772 616.065H80.6844C71.1888 585.637 74.9256 505.628 76.3006 494.337C77.6756 483.046 82.9815 460.14 111.08 453.168C123.504 450.046 201.297 437.467 217.086 415.645C223.395 390.491 222.893 372.454 220.903 333.145C220.903 333.145 194.778 318.311 184.361 287.382C173.943 256.453 184.312 243.236 184.312 243.236C163.428 188.608 199.389 155.738 199.389 155.738C266.084 91.2908 354.618 125.779 368.886 162.678C384.698 199.316 393.125 238.714 393.684 278.614C393.927 322.922 370.503 353.867 350.784 362.328C340.528 367.553 314.953 366.339 314.953 366.339C314.953 366.339 306.606 397.431 319.806 421.113Z" fill="white"/>
<path d="M314.953 366.339C303.161 365.983 268.171 354.87 261.215 349.742M314.953 366.339C314.953 366.339 306.606 397.431 319.806 421.113C341.564 451.444 411.913 460.447 423.916 464.782C443.603 472.207 446.951 492.282 447.243 503.218C448.084 534.373 451.756 587.821 440.772 616.065H80.6844C71.1888 585.637 74.9256 505.628 76.3006 494.337C77.6756 483.046 82.9815 460.14 111.08 453.168C123.504 450.046 201.297 437.467 217.086 415.645C223.395 390.491 222.893 372.454 220.903 333.145C220.903 333.145 194.778 318.311 184.361 287.382C173.943 256.453 184.312 243.236 184.312 243.236M314.953 366.339C314.953 366.339 340.528 367.553 350.784 362.328C370.503 353.867 393.927 322.922 393.684 278.614C393.125 238.714 384.698 199.316 368.886 162.678C354.618 125.779 266.084 91.2908 199.389 155.738C199.389 155.738 163.428 188.608 184.312 243.236M184.312 243.236C192.675 230.764 225.95 227.707 225.95 265.333" stroke="#050504" stroke-width="3.66667" stroke-linecap="round" stroke-linejoin="round"/>
<path opacity="0.4" d="M314.581 365.094C313.015 376.103 310.588 392.279 314.581 405.221C299.78 401.71 257.996 372.826 257.996 349.37C276.278 356.511 295.236 361.779 314.581 365.094Z" fill="black"/>
<path d="M203.378 252.353C197.07 254.068 192.767 263.596 197.781 273.868" stroke="black" stroke-width="4.88889" stroke-miterlimit="10" stroke-linecap="round"/>
<path d="M82.3012 616.873C72.8056 586.445 76.5424 506.437 77.9174 495.146C79.2924 483.854 84.5983 460.948 112.697 453.976C125.12 450.854 176.172 443.235 200.436 431.103" fill="white"/>
<path d="M82.3012 616.873C72.8056 586.445 76.5424 506.437 77.9174 495.146C79.2924 483.854 84.5983 460.948 112.697 453.976C125.12 450.854 176.172 443.235 200.436 431.103L210.951 425.441C210.951 437.949 235.129 446.471 265.951 446.471C296.773 446.471 321.76 436.331 321.76 423.824L329.039 431.103C356.539 454.559 413.53 461.256 425.533 465.591C445.22 473.016 448.568 493.091 448.859 504.026C449.701 535.182 453.373 588.629 442.389 616.873H82.3012Z" fill="white"/>
<path d="M82.3012 616.873C72.8056 586.445 76.5424 506.437 77.9174 495.146C79.2924 483.854 84.5983 460.948 112.697 453.976C125.12 450.854 176.172 443.235 200.436 431.103" stroke="#050504" stroke-width="3.66667" stroke-linecap="round" stroke-linejoin="round"/>
<path d="M82.3012 616.873C72.8056 586.445 76.5424 506.437 77.9174 495.146C79.2924 483.854 84.5983 460.948 112.697 453.976C125.12 450.854 176.172 443.235 200.436 431.103L210.951 425.441C210.951 437.949 235.129 446.471 265.951 446.471C296.773 446.471 321.76 436.331 321.76 423.824L329.039 431.103C356.539 454.559 413.53 461.256 425.533 465.591C445.22 473.016 448.568 493.091 448.859 504.026C449.701 535.182 453.373 588.629 442.389 616.873H82.3012Z" stroke="#050504" stroke-width="3.66667" stroke-linecap="round" stroke-linejoin="round"/>
<path d="M82.3012 616.873C72.8056 586.445 76.5424 506.437 77.9174 495.146C79.2924 483.854 84.5983 460.948 112.697 453.976C125.12 450.854 176.172 443.235 200.436 431.103" fill="#050504"/>
<path d="M82.3012 616.873C72.8056 586.445 76.5424 506.437 77.9174 495.146C79.2924 483.854 84.5983 460.948 112.697 453.976C125.12 450.854 176.172 443.235 200.436 431.103L210.951 425.441C210.951 437.949 235.129 446.471 265.951 446.471C296.773 446.471 321.76 436.331 321.76 423.824L329.039 431.103C356.539 454.559 413.53 461.256 425.533 465.591C445.22 473.016 448.568 493.091 448.859 504.026C449.701 535.182 453.373 588.629 442.389 616.873H82.3012Z" fill="#050504"/>
<path d="M82.3012 616.873C72.8056 586.445 76.5424 506.437 77.9174 495.146C79.2924 483.854 84.5983 460.948 112.697 453.976C125.12 450.854 176.172 443.235 200.436 431.103" stroke="#050504" stroke-width="3.66667" stroke-linecap="round" stroke-linejoin="round"/>
<path d="M82.3012 616.873C72.8056 586.445 76.5424 506.437 77.9174 495.146C79.2924 483.854 84.5983 460.948 112.697 453.976C125.12 450.854 176.172 443.235 200.436 431.103L210.951 425.441C210.951 437.949 235.129 446.471 265.951 446.471C296.773 446.471 321.76 436.331 321.76 423.824L329.039 431.103C356.539 454.559 413.53 461.256 425.533 465.591C445.22 473.016 448.568 493.091 448.859 504.026C449.701 535.182 453.373 588.629 442.389 616.873H82.3012Z" stroke="#050504" stroke-width="3.66667" stroke-linecap="round" stroke-linejoin="round"/>
<mask id="mask0_5_96" style="mask-type:alpha" maskUnits="userSpaceOnUse" x="78" y="435" width="370" height="180">
<path d="M197.056 435.337C197.97 438.213 199.782 440.862 202.209 443.229C205.778 446.71 210.817 449.733 216.845 452.22C228.914 457.198 245.419 460.221 263.525 460.221C281.61 460.221 298.106 457.406 310.17 452.637C316.197 450.256 321.242 447.338 324.819 443.932C327.518 441.362 329.459 438.431 330.256 435.202C344.391 446.017 364.467 453.03 382.469 457.861C392.127 460.452 401.289 462.44 408.749 464.044L409.365 464.176C416.609 465.734 421.962 466.884 424.693 467.867C442.85 474.726 446.147 493.301 446.434 504.091C446.543 508.15 446.7 512.569 446.866 517.249C447.341 530.632 447.891 546.152 447.632 561.501C447.296 581.502 445.583 600.824 440.705 614.447H84.1149C79.8893 599.315 78.5374 573.154 78.4593 548.825C78.3786 523.643 79.6567 500.936 80.3261 495.439C80.995 489.946 82.6045 481.802 87.3429 474.228C92.0367 466.725 99.8731 459.658 113.281 456.331L113.288 456.33C116.156 455.609 121.187 454.632 127.632 453.38L128.698 453.173C135.611 451.83 143.941 450.201 152.647 448.288C168.021 444.911 184.786 440.604 197.056 435.337Z" fill="#C4C4C4"/>
</mask>
<g mask="url(#mask0_5_96)">
<path d="M132.647 576.691C132.647 598.579 115.265 616.323 93.8233 616.323C72.3816 616.323 54.9998 598.579 54.9998 576.691C54.9998 554.803 72.3816 537.059 93.8233 537.059C115.265 537.059 132.647 554.803 132.647 576.691Z" fill="white"/>
<path d="M478.823 481.25C478.823 503.138 458.182 520.882 432.72 520.882C407.258 520.882 386.617 503.138 386.617 481.25C386.617 459.362 407.258 441.618 432.72 441.618C458.182 441.618 478.823 459.362 478.823 481.25Z" fill="white"/>
<path d="M313.823 604.191C313.823 626.079 288.475 643.823 257.206 643.823C225.937 643.823 200.588 626.079 200.588 604.191C200.588 582.303 225.937 564.559 257.206 564.559C288.475 564.559 313.823 582.303 313.823 604.191Z" fill="white"/>
<path d="M200.588 468.309C200.588 486.623 183.206 501.471 161.764 501.471C140.323 501.471 122.941 486.623 122.941 468.309C122.941 449.994 140.323 435.147 161.764 435.147C183.206 435.147 200.588 449.994 200.588 468.309Z" fill="white"/>
<path d="M338.897 471.544C338.897 492.539 323.816 506.323 298.354 506.323C272.892 506.323 253.162 492.539 253.162 471.544C253.162 450.549 272.892 443.235 298.354 443.235C323.816 443.235 338.897 450.549 338.897 471.544Z" fill="white"/>
<path d="M449.706 589.632C449.706 613.307 430.513 632.5 406.838 632.5C383.163 632.5 363.97 613.307 363.97 589.632C363.97 565.957 383.163 546.765 406.838 546.765C430.513 546.765 449.706 565.957 449.706 589.632Z" fill="white"/>
</g>
<path d="M265.142 457.794C300.878 457.794 329.848 446.653 329.848 431.912L321.76 423.824C321.76 436.331 296.773 446.471 265.951 446.471C235.129 446.471 210.951 437.949 210.951 425.441L200.436 431.103C200.436 445.844 229.406 457.794 265.142 457.794Z" fill="white" stroke="#050504" stroke-width="3.66667" stroke-linecap="round" stroke-linejoin="round"/>
<path d="M74.6822 483.822C73.3072 495.113 69.5704 575.122 79.066 605.55H439.154C450.137 577.306 446.465 523.859 445.624 492.703C445.333 481.767 441.985 461.692 422.298 454.267C411.307 450.298 353.448 444.212 326.765 419.779C326.765 419.779 327.573 436.764 266.103 436.764C204.632 436.764 205.289 415.247 205.289 415.247C179.123 431.51 120.173 439.961 109.462 442.653C81.363 449.625 76.0572 472.531 74.6822 483.822Z" fill="#050504" stroke="#050504" stroke-width="3.66667" stroke-linecap="round" stroke-linejoin="round"/>
<path d="M326.232 420.701C326.232 428.15 309.287 436.373 285.71 439.447C279.588 440.245 273.02 440.695 266.185 440.695C264.502 440.695 262.831 440.664 261.176 440.602C230.214 439.45 204.632 427.877 204.632 418.97" fill="white"/>
<path d="M206.138 388.72C206.154 388.893 206.169 389.065 206.184 389.236C207.051 399.356 205.579 408.828 204.632 418.97" fill="white"/>
<path d="M326.232 388.72C326.215 388.895 326.2 389.07 326.184 389.245C325.294 399.221 325.31 410.782 326.232 420.701" fill="white"/>
<path d="M215.956 395.867C216.919 406.181 215.741 419.082 214.778 429.397Z" fill="white"/>
<path d="M261.17 401.759C262.131 414.689 262.133 427.672 261.176 440.602C261.174 440.628 261.172 440.653 261.17 440.679" fill="white"/>
<path d="M226.763 398.556C227.668 408.682 226.697 425.013 225.661 434.088Z" fill="white"/>
<path d="M237.794 400.212C238.7 410.338 237.179 428.083 236.176 437.158Z" fill="white"/>
<path d="M249.367 401.24C250.273 411.367 249.332 430.375 248.329 439.45Z" fill="white"/>
<path d="M273.496 401.726C274.459 414.282 274.459 427.967 273.496 440.523Z" fill="white"/>
<path d="M285.71 401.054C286.664 413.49 286.664 427.01 285.71 439.447L285.71 439.45" fill="white"/>
<path d="M296.871 399.929C297.826 412.037 297.826 425.336 296.871 437.444Z" fill="white"/>
<path d="M307.467 398.188C308.422 409.729 308.422 422.943 307.467 434.484Z" fill="white"/>
<path d="M316.623 396C317.586 407.546 317.586 419.152 316.623 430.698Z" fill="white"/>
<path fill-rule="evenodd" clip-rule="evenodd" d="M326.232 388.72C326.232 388.896 326.216 389.071 326.184 389.245C326.2 389.07 326.215 388.895 326.232 388.72ZM296.871 399.929C296.893 399.926 296.915 399.924 296.937 399.921C297.065 399.904 297.193 399.887 297.321 399.87M206.184 389.236C206.153 389.065 206.138 388.893 206.138 388.72C206.154 388.893 206.169 389.065 206.184 389.236Z" fill="white"/>
<path d="M285.71 439.447C309.287 436.373 326.232 428.15 326.232 420.701C325.31 410.782 325.294 399.221 326.184 389.245C325.362 393.75 314.008 397.668 297.321 399.87C297.193 399.887 297.065 399.904 296.937 399.921C296.915 399.924 296.893 399.926 296.871 399.929C293.366 400.383 289.629 400.761 285.71 401.054C286.664 413.49 286.664 427.01 285.71 439.447Z" fill="white"/>
<path d="M261.176 440.602C262.831 440.664 264.502 440.695 266.185 440.695C268.66 440.695 271.1 440.636 273.496 440.523C277.718 440.323 281.805 439.956 285.71 439.447C286.664 427.01 286.664 413.49 285.71 401.054C279.588 401.511 273.02 401.759 266.185 401.759C260.347 401.759 254.703 401.578 249.367 401.24C245.704 401.008 242.186 400.703 238.849 400.332C238.495 400.292 238.143 400.252 237.794 400.212C228.954 399.179 221.441 397.68 215.956 395.867C210.155 393.948 206.622 391.678 206.184 389.236C207.051 399.356 205.579 408.828 204.632 418.97C204.632 427.877 230.214 439.45 261.176 440.602Z" fill="white"/>
<path d="M313.679 380.745C321.54 382.945 326.232 385.712 326.232 388.72M326.232 388.72C326.232 388.896 326.216 389.071 326.184 389.245M326.232 388.72C326.215 388.895 326.2 389.07 326.184 389.245M266.185 401.759C256.34 401.759 247.048 401.244 238.849 400.332M266.185 401.759C277.424 401.759 287.942 401.088 296.937 399.921M266.185 401.759C273.02 401.759 279.588 401.511 285.71 401.054M266.185 401.759C260.347 401.759 254.703 401.578 249.367 401.24M206.138 388.72C206.138 385.712 210.829 382.945 218.723 380.729M206.138 388.72C206.138 388.893 206.153 389.065 206.184 389.236M206.138 388.72C206.154 388.893 206.169 389.065 206.184 389.236M266.185 440.695C273.02 440.695 279.588 440.245 285.71 439.447M266.185 440.695C264.502 440.695 262.831 440.664 261.176 440.602M266.185 440.695C268.66 440.695 271.1 440.636 273.496 440.523M215.956 395.867C216.919 406.181 215.741 419.082 214.778 429.397M215.956 395.867C221.441 397.68 228.954 399.179 237.794 400.212M215.956 395.867C210.155 393.948 206.622 391.678 206.184 389.236M261.17 401.759C262.131 414.689 262.133 427.672 261.176 440.602M261.17 440.679C261.172 440.653 261.174 440.628 261.176 440.602M226.763 398.556C227.668 408.682 226.697 425.013 225.661 434.088M237.794 400.212C238.7 410.338 237.179 428.083 236.176 437.158M237.794 400.212C238.143 400.252 238.495 400.292 238.849 400.332M249.367 401.24C250.273 411.367 249.332 430.375 248.329 439.45M249.367 401.24C245.704 401.008 242.186 400.703 238.849 400.332M273.496 401.726C274.459 414.282 274.459 427.967 273.496 440.523M273.496 440.523C277.718 440.323 281.805 439.956 285.71 439.447M285.71 401.054C289.629 400.761 293.366 400.383 296.871 399.929M285.71 401.054C286.664 413.49 286.664 427.01 285.71 439.447M285.71 439.45L285.71 439.447M296.871 399.929C297.826 412.037 297.826 425.336 296.871 437.444M296.871 399.929C296.893 399.926 296.915 399.924 296.937 399.921M307.467 398.188C308.422 409.729 308.422 422.943 307.467 434.484M316.623 396C317.586 407.546 317.586 419.152 316.623 430.698M326.184 389.245C325.294 399.221 325.31 410.782 326.232 420.701C326.232 428.15 309.287 436.373 285.71 439.447M326.184 389.245C325.362 393.75 314.008 397.668 297.321 399.87C297.193 399.887 297.065 399.904 296.937 399.921M238.849 400.332C220.092 398.245 207.052 394.079 206.184 389.236M206.184 389.236C207.051 399.356 205.579 408.828 204.632 418.97C204.632 427.877 230.214 439.45 261.176 440.602" stroke="#050504" stroke-width="3.66667" stroke-linecap="round" stroke-linejoin="round"/>
<path d="M220.809 395.515L221.132 380.147C217.06 380.455 207.059 383.798 207.059 388.235C207.059 392.672 217.008 395.207 220.809 395.515Z" fill="#050504"/>
<path d="M311.397 395.515L311.313 380.956C315.385 381.264 324.338 383.798 324.338 388.235C324.338 392.672 315.197 395.207 311.397 395.515Z" fill="#050504"/>
<path d="M340.363 258.185C339.956 257.258 338.875 256.835 337.948 257.241C337.02 257.648 336.598 258.729 337.004 259.656L340.363 258.185ZM341.864 300.228C340.939 300.641 340.525 301.725 340.938 302.65C341.351 303.574 342.436 303.988 343.36 303.575L341.864 300.228ZM266.167 222.717C265.515 223.492 265.614 224.648 266.388 225.301C267.163 225.953 268.319 225.854 268.971 225.08L266.167 222.717ZM302.813 208.693L303.122 206.885L303.109 206.883L302.813 208.693ZM307.471 211.835C308.421 212.187 309.476 211.703 309.828 210.754C310.181 209.805 309.697 208.75 308.748 208.397L307.471 211.835ZM344.627 212.436C343.88 213.12 343.829 214.279 344.513 215.026C345.196 215.773 346.356 215.824 347.103 215.14L344.627 212.436ZM378.452 206.137L379.223 204.473L379.221 204.472L378.452 206.137ZM381.582 210.14C382.39 210.75 383.54 210.589 384.15 209.78C384.759 208.972 384.598 207.823 383.79 207.213L381.582 210.14ZM338.683 258.921C337.004 259.656 337.004 259.656 337.004 259.657C337.004 259.657 337.004 259.657 337.005 259.658C337.005 259.658 337.006 259.66 337.006 259.662C337.008 259.665 337.011 259.671 337.014 259.678C337.02 259.693 337.03 259.716 337.043 259.745C337.069 259.804 337.107 259.892 337.157 260.007C337.258 260.236 337.405 260.574 337.592 261.005C337.967 261.868 338.502 263.104 339.145 264.6C340.43 267.591 342.144 271.615 343.856 275.75C345.57 279.889 347.277 284.124 348.553 287.542C349.192 289.253 349.716 290.739 350.077 291.897C350.257 292.477 350.391 292.953 350.478 293.323C350.521 293.507 350.549 293.651 350.566 293.759C350.584 293.874 350.584 293.912 350.584 293.894H352.417H354.25C354.25 293.445 354.154 292.938 354.047 292.485C353.933 291.998 353.772 291.429 353.577 290.805C353.187 289.555 352.637 287.997 351.989 286.26C350.69 282.781 348.963 278.499 347.244 274.347C345.523 270.192 343.803 266.152 342.514 263.152C341.869 261.651 341.331 260.41 340.955 259.544C340.767 259.111 340.619 258.772 340.518 258.54C340.467 258.425 340.429 258.336 340.403 258.276C340.389 258.246 340.38 258.224 340.373 258.208C340.369 258.201 340.367 258.195 340.365 258.191C340.364 258.189 340.364 258.188 340.363 258.187C340.363 258.186 340.363 258.186 340.363 258.185C340.363 258.185 340.363 258.185 338.683 258.921ZM352.417 293.894H350.584C350.584 294.027 350.442 294.523 349.588 295.378C348.807 296.16 347.711 296.964 346.535 297.707C345.373 298.441 344.2 299.074 343.313 299.526C342.871 299.751 342.503 299.928 342.249 300.049C342.121 300.109 342.022 300.155 341.957 300.185C341.924 300.201 341.899 300.212 341.883 300.219C341.876 300.222 341.87 300.225 341.867 300.226C341.865 300.227 341.864 300.228 341.863 300.228C341.863 300.228 341.863 300.228 341.863 300.228C341.863 300.228 341.863 300.228 341.863 300.228C341.863 300.228 341.864 300.228 342.612 301.901C343.36 303.575 343.36 303.575 343.361 303.575C343.361 303.575 343.361 303.575 343.362 303.574C343.362 303.574 343.363 303.574 343.364 303.573C343.366 303.573 343.368 303.571 343.371 303.57C343.377 303.567 343.386 303.564 343.397 303.559C343.418 303.549 343.448 303.535 343.487 303.517C343.565 303.482 343.677 303.43 343.818 303.363C344.099 303.23 344.498 303.037 344.975 302.794C345.926 302.31 347.205 301.621 348.494 300.806C349.769 300.001 351.124 299.029 352.182 297.969C353.166 296.984 354.25 295.573 354.25 293.894H352.417ZM267.569 223.898L268.971 225.08C277.899 214.482 290.773 208.578 302.516 210.502L302.813 208.693L303.109 206.883C289.768 204.698 275.691 211.412 266.167 222.717L267.569 223.898ZM302.813 208.693L302.504 210.5C304.197 210.789 305.86 211.236 307.471 211.835L308.11 210.116L308.748 208.397C306.923 207.72 305.04 207.214 303.122 206.885L302.813 208.693ZM345.865 213.788L347.103 215.14C356.546 206.495 368.313 203.471 377.683 207.801L378.452 206.137L379.221 204.472C368.079 199.323 354.761 203.158 344.627 212.436L345.865 213.788ZM378.452 206.137L377.68 207.8C379.059 208.439 380.367 209.224 381.582 210.14L382.686 208.676L383.79 207.213C382.368 206.14 380.837 205.222 379.223 204.473L378.452 206.137Z" fill="#050504"/>
<path d="M302.151 265.683C307.166 265.683 311.231 260.106 311.231 253.227C311.231 246.347 307.166 240.771 302.151 240.771C297.136 240.771 293.07 246.347 293.07 253.227C293.07 260.106 297.136 265.683 302.151 265.683Z" fill="#050504"/>
<path d="M308.124 248.73C305.693 239.477 293.537 238.037 284.747 245.737" stroke="#050504" stroke-width="3.66667" stroke-linecap="round"/>
<path d="M373.185 261.185C378.2 261.185 382.266 255.609 382.266 248.73C382.266 241.85 378.2 236.274 373.185 236.274C368.17 236.274 364.105 241.85 364.105 248.73C364.105 255.609 368.17 261.185 373.185 261.185Z" fill="#050504"/>
<path d="M379.159 244.232C376.727 234.979 364.572 233.54 355.781 241.24" stroke="#050504" stroke-width="3.66667" stroke-linecap="round"/>
<path d="M338.363 258.739C338.363 258.739 352.162 290.089 352.162 293.713C352.162 297.336 342.31 301.72 342.31 301.72M266.912 223.717C276.181 212.766 289.721 206.457 302.323 208.511C304.137 208.82 305.918 209.297 307.645 209.935M345.579 213.607C355.414 204.645 368.015 201.216 378.32 205.955C379.824 206.649 381.25 207.501 382.574 208.495" stroke="#050504" stroke-width="3.66667" stroke-linecap="round"/>
<path d="M310.589 320.294C315.412 331.521 332.102 334.219 339.707 332.946" stroke="#050504" stroke-width="3.66667" stroke-miterlimit="10" stroke-linecap="round"/>
<path d="M301.657 265.501C306.696 265.501 310.781 259.925 310.781 253.045C310.781 246.166 306.696 240.589 301.657 240.589C296.619 240.589 292.534 246.166 292.534 253.045C292.534 259.925 296.619 265.501 301.657 265.501Z" fill="black"/>
<path d="M307.659 248.548C305.216 239.295 293.003 237.856 284.171 245.556" stroke="#050504" stroke-width="3.66667" stroke-linecap="round"/>
<path d="M373.028 261.004C378.067 261.004 382.152 255.427 382.152 248.548C382.152 241.669 378.067 236.092 373.028 236.092C367.99 236.092 363.905 241.669 363.905 248.548C363.905 255.427 367.99 261.004 373.028 261.004Z" fill="black"/>
<path d="M379.03 244.051C376.587 234.798 364.374 233.359 355.542 241.059" stroke="#050504" stroke-width="3.66667" stroke-linecap="round"/>
<path d="M185.625 368.475C174.459 370.284 163.149 370.92 151.862 370.373C151.535 370.355 151.224 370.215 150.986 369.978C150.749 369.741 150.6 369.423 150.568 369.081C148.862 351.203 147.735 346.354 149.38 327.87C150.796 316.578 149.517 241.269 149.806 232.178C150.218 228.334 150.842 216.229 151.329 214.012C151.954 210.934 151.938 207.633 152.35 204.523C154.436 188.574 158.076 172.865 166.649 159.691C174.355 147.857 176.213 143.488 185.975 132.579C189.021 129.66 192.919 125.513 195.554 122.754C196.666 121.59 199.65 119.23 200.671 118.145C211.864 108.369 223.895 101.782 237.22 95.4662C256.974 86.0274 278.845 82.5265 300.389 85.3548C320.638 87.664 339.85 95.9244 355.807 109.182C372.056 122.914 383.036 140.441 387.559 162.163C387.871 163.716 388.09 165.287 388.214 166.868C388.442 168.256 388.412 169.069 388.58 170.68C388.58 170.68 405.331 336.769 398.037 342.048C390.742 347.327 355.974 358.435 355.974 358.435C355.974 358.435 369.375 346.968 375.01 336.904C378.999 329.611 382.468 320.988 384.909 312.981C391 293.46 389.904 264.928 387.193 242.807C384.68 222.281 383.127 214.61 378.056 192.569C371.857 165.871 340.03 153.998 340.03 153.998C340.03 153.998 247.439 230.025 208.849 230.551C189.95 230.774 177.051 240.886 180.249 270.55C184.178 294.106 193.544 308.349 197.594 313.404C203.62 321.12 210.828 327.248 218.672 332.894C218.976 339.145 219.433 353.435 219.433 363.196" fill="#050504"/>
<path d="M185.788 368.399C174.647 370.169 163.362 370.791 152.101 370.255C151.774 370.238 151.464 370.101 151.227 369.87C150.99 369.638 150.842 369.326 150.81 368.992C149.108 351.508 147.983 346.766 149.624 328.689C151.037 317.646 149.761 243.997 150.05 235.106C150.46 231.348 151.083 219.509 151.569 217.341C152.192 214.331 152.177 211.103 152.587 208.061C154.669 192.464 158.301 177.101 166.855 164.218C174.544 152.645 176.397 148.371 186.137 137.703C189.176 134.848 193.066 130.793 195.695 128.095C196.804 126.956 199.782 124.648 200.8 123.587C211.968 114.026 223.972 107.585 237.267 101.408C256.977 92.1773 278.799 88.7536 300.295 91.5195C320.498 93.7779 339.667 101.856 355.588 114.822C371.801 128.251 382.756 145.392 387.269 166.635C387.58 168.153 387.799 169.69 387.923 171.236C388.15 172.593 388.12 173.389 388.287 174.964C388.287 174.964 405.001 337.392 397.723 342.555C390.445 347.717 355.755 358.581 355.755 358.581C355.755 358.581 369.126 347.366 374.748 337.524C378.728 330.392 382.19 321.959 384.624 314.129C390.702 295.038 389.608 267.135 386.904 245.502C384.397 225.428 382.847 217.926 377.787 196.371C371.603 170.261 339.847 158.649 339.847 158.649C339.847 158.649 247.463 233.001 208.96 233.516C190.103 233.734 177.233 243.622 180.424 272.633C184.344 295.67 193.689 309.598 197.731 314.542C203.742 322.088 210.934 328.081 218.761 333.602C219.064 339.716 219.52 353.691 219.52 363.237" fill="#050504"/>
<path d="M320.621 254.034C320.621 255.046 321.442 255.867 322.454 255.867C323.467 255.867 324.287 255.046 324.287 254.034H320.621ZM345.646 251.365C345.646 252.377 346.467 253.198 347.479 253.198C348.492 253.198 349.312 252.377 349.312 251.365H345.646ZM272.745 254.473C273.711 254.776 274.74 254.239 275.043 253.273C275.346 252.307 274.809 251.278 273.843 250.974L272.745 254.473ZM186.2 240.057L186.984 241.714C187.004 241.705 187.023 241.695 187.043 241.685L186.2 240.057ZM171.456 265.742C171.642 266.738 172.6 267.394 173.595 267.208C174.59 267.022 175.247 266.065 175.061 265.069L171.456 265.742ZM322.454 252.723H320.621C320.621 267.588 310.206 279.183 297.882 279.183V281.016V282.849C312.699 282.849 324.287 269.11 324.287 252.723H322.454ZM297.882 281.016V279.183C285.558 279.183 275.143 267.588 275.143 252.723H273.31H271.477C271.477 269.11 283.065 282.849 297.882 282.849V281.016ZM273.31 252.723H275.143C275.143 237.859 285.558 226.264 297.882 226.264V224.431V222.597C283.065 222.597 271.477 236.337 271.477 252.723H273.31ZM297.882 224.431V226.264C310.206 226.264 320.621 237.859 320.621 252.723H322.454H324.287C324.287 236.337 312.699 222.597 297.882 222.597V224.431ZM396.397 247.256H394.563C394.563 262.12 384.149 273.715 371.825 273.715V275.548V277.382C386.642 277.382 398.23 263.643 398.23 247.256H396.397ZM371.825 275.548V273.715C359.501 273.715 349.086 262.12 349.086 247.256H347.253H345.419C345.419 263.643 357.007 277.382 371.825 277.382V275.548ZM347.253 247.256H349.086C349.086 232.392 359.501 220.796 371.825 220.796V218.963V217.13C357.007 217.13 345.419 230.869 345.419 247.256H347.253ZM371.825 218.963V220.796C384.149 220.796 394.563 232.392 394.563 247.256H396.397H398.23C398.23 230.869 386.642 217.13 371.825 217.13V218.963ZM322.454 254.034H324.287C324.287 251.998 325.372 250.37 327.345 249.122C329.357 247.848 332.16 247.08 335.077 246.904C337.996 246.728 340.81 247.156 342.816 248.06C344.837 248.97 345.646 250.138 345.646 251.365H347.479H349.312C349.312 248.086 346.993 245.92 344.322 244.717C341.635 243.506 338.194 243.042 334.856 243.244C331.517 243.446 328.063 244.327 325.384 246.023C322.664 247.745 320.621 250.408 320.621 254.034H322.454ZM273.294 252.723C273.843 250.974 273.843 250.974 273.842 250.974C273.841 250.974 273.84 250.973 273.839 250.973C273.837 250.972 273.833 250.971 273.829 250.97C273.82 250.967 273.807 250.963 273.79 250.958C273.756 250.947 273.705 250.931 273.638 250.91C273.504 250.869 273.306 250.808 273.048 250.728C272.531 250.57 271.772 250.338 270.801 250.048C268.859 249.467 266.067 248.648 262.662 247.694C255.855 245.786 246.587 243.337 236.759 241.173C226.941 239.01 216.516 237.123 207.408 236.354C202.854 235.969 198.587 235.861 194.867 236.15C191.174 236.436 187.878 237.124 185.357 238.429L186.2 240.057L187.043 241.685C188.934 240.706 191.668 240.076 195.151 239.805C198.607 239.537 202.661 239.633 207.099 240.007C215.976 240.757 226.222 242.607 235.971 244.753C245.71 246.898 254.907 249.329 261.673 251.224C265.054 252.172 267.825 252.985 269.75 253.561C270.712 253.849 271.463 254.077 271.972 254.233C272.226 254.312 272.42 254.372 272.55 254.412C272.615 254.432 272.664 254.447 272.697 254.458C272.713 254.463 272.725 254.467 272.733 254.469C272.737 254.47 272.74 254.471 272.742 254.472C272.743 254.472 272.744 254.472 272.744 254.472C272.744 254.473 272.745 254.473 273.294 252.723ZM186.2 240.057L185.415 238.4C180.396 240.776 176.304 244.747 173.779 249.694L175.411 250.527L177.044 251.361C179.201 247.136 182.696 243.744 186.984 241.714L186.2 240.057ZM175.411 250.527L173.779 249.694C171.253 254.64 170.437 260.283 171.456 265.742L173.259 265.406L175.061 265.069C174.19 260.406 174.887 255.586 177.044 251.361L175.411 250.527Z" fill="#050504"/>
<path d="M183.611 297.333C177.022 302.459 174.444 311.085 174.444 321.778C174.444 337.978 184.568 351.111 197.056 351.111C209.543 351.111 219.667 337.978 219.667 321.778C219.667 308.325 212.686 296.987 203.167 293.528" stroke="#0050D4" stroke-width="4.88889" stroke-linecap="round" stroke-linejoin="round"/>
</g>
<rect x="1.75" y="1.75" width="546.5" height="546.5" rx="273.25" stroke="#050504" stroke-width="3.5"/>
<defs>
<clipPath id="clip0_5_96">
<rect width="550" height="550" rx="275" fill="white"/>
</clipPath>
</defs>
</svg>
