<svg width="300" height="300" viewBox="0 0 300 300" fill="none" xmlns="http://www.w3.org/2000/svg">
<g clip-path="url(#clip0_10_17)">
<path d="M61.5 166.75C61.5 178.417 60.9167 188.75 59.75 197.75C58.75 206.75 56.5833 214.833 53.25 222C49.9167 229.333 45 236.083 38.5 242.25C32.1667 248.417 23.6667 254.417 13 260.25C11.8333 259.583 10.9167 258.667 10.25 257.5C9.58333 256.333 9.08333 255.083 8.75 253.75C15.0833 248.417 20.4167 242.833 24.75 237C29.0833 231.167 32.3333 224.417 34.5 216.75C36.8333 209.083 38 200 38 189.5V60.75C38 55.0833 37.5 50.75 36.5 47.75C35.5 44.75 33.75 42.5833 31.25 41.25C28.75 39.9167 25.25 39.1667 20.75 39C20.25 37.6667 19.9167 36.0833 19.75 34.25C19.5833 32.4167 19.5 30.4167 19.5 28.25C22 28.4167 24.8333 28.5833 28 28.75C31.3333 28.75 34.8333 28.8333 38.5 29C42.3333 29 46.0833 29 49.75 29C55.25 29 60.9167 28.9167 66.75 28.75C72.5833 28.5833 77 28.4167 80 28.25C80 30.4167 79.9167 32.4167 79.75 34.25C79.5833 36.0833 79.25 37.6667 78.75 39C74.5833 39.1667 71.1667 39.9167 68.5 41.25C66 42.5833 64.1667 44.75 63 47.75C62 50.75 61.5 55.0833 61.5 60.75V166.75ZM115.775 28.5C118.275 28.5 122.025 28.5833 127.025 28.75C132.192 28.75 137.775 28.8333 143.775 29C149.942 29 155.942 29 161.775 29C167.609 29 172.609 29 176.775 29C182.275 29 187.525 29 192.525 29C197.692 29 202.859 29 208.025 29C213.359 28.8333 218.942 28.6667 224.775 28.5C225.609 29.3333 226.275 30.5 226.775 32C227.275 33.5 227.525 35.0833 227.525 36.75C217.192 54.75 206.859 72.5 196.525 90C186.359 107.333 176.025 124.417 165.525 141.25C155.192 158.083 144.609 174.917 133.775 191.75L131.275 187.5H175.025C185.359 187.5 193.359 186.75 199.025 185.25C204.859 183.75 209.192 180.75 212.025 176.25C215.025 171.75 217.442 164.917 219.275 155.75C224.775 156.25 229.109 157.667 232.275 160C231.442 163.667 230.692 167.667 230.025 172C229.359 176.333 228.859 180.833 228.525 185.5C228.192 190 227.942 194.417 227.775 198.75C219.609 198.417 212.025 198.167 205.025 198C198.025 198 191.109 198 184.275 198C177.442 198 170.192 198 162.525 198C151.025 198 140.109 198 129.775 198C119.609 198.167 111.942 198.417 106.775 198.75C106.109 197.417 105.609 196.167 105.275 195C104.942 193.833 104.775 192.417 104.775 190.75C112.775 177.917 120.692 165.083 128.525 152.25C136.359 139.417 144.192 126.583 152.025 113.75C159.859 100.917 167.609 88.0833 175.275 75.25C182.942 62.25 190.525 49.25 198.025 36.25L200.775 39H161.025C153.692 39 147.692 39.8333 143.025 41.5C138.525 43 134.859 46 132.025 50.5C129.359 55 127.109 61.8333 125.275 71C123.109 71 120.609 70.8333 117.775 70.5C114.942 70.1667 112.692 69.5 111.025 68.5C112.525 63.1667 113.692 56.8333 114.525 49.5C115.359 42.1667 115.775 35.1667 115.775 28.5ZM276.99 200.5C271.657 200.5 267.49 199 264.49 196C261.49 193 259.99 189.167 259.99 184.5C259.99 179.833 261.657 175.833 264.99 172.5C268.49 169.167 272.907 167.5 278.24 167.5C283.407 167.5 287.407 169.25 290.24 172.75C293.24 176.083 294.74 179.5 294.74 183C294.74 189 292.907 193.417 289.24 196.25C285.74 199.083 281.657 200.5 276.99 200.5Z" fill="black"/>
</g>
<defs>
<clipPath id="clip0_10_17">
<rect width="300" height="300" fill="white"/>
</clipPath>
</defs>
</svg>
